<svg width="40" height="40" viewBox="0 0 40 40" fill="none" xmlns="http://www.w3.org/2000/svg">
<path d="M8.88889 31.1111H24.4444V26.6667H8.88889V31.1111ZM8.88889 22.2222H31.1111V17.7778H8.88889V22.2222ZM8.88889 13.3333H31.1111V8.88889H8.88889V13.3333ZM4.44445 40C3.22223 40 2.17556 39.5644 1.30445 38.6933C0.433337 37.8222 -0.00147771 36.7763 3.77287e-06 35.5556V4.44445C3.77287e-06 3.22223 0.435559 2.17556 1.30667 1.30445C2.17778 0.433337 3.22371 -0.00147771 4.44445 3.77287e-06H35.5556C36.7778 3.77287e-06 37.8244 0.435559 38.6956 1.30667C39.5667 2.17778 40.0015 3.22371 40 4.44445V35.5556C40 36.7778 39.5644 37.8244 38.6933 38.6956C37.8222 39.5667 36.7763 40.0015 35.5556 40H4.44445ZM4.44445 35.5556H35.5556V4.44445H4.44445V35.5556Z" fill="#619937"/>
</svg>
