<svg width="34" height="49" viewBox="0 0 34 49" fill="none" xmlns="http://www.w3.org/2000/svg">
<path fill-rule="evenodd" clip-rule="evenodd" d="M17.0123 11.0244C18.4605 11.0244 19.8494 10.4436 20.8734 9.40988C21.8974 8.37615 22.4727 6.9741 22.4727 5.51218C22.4727 4.05026 21.8974 2.64822 20.8734 1.61448C19.8494 0.580746 18.4605 0 17.0123 0C15.5642 0 14.1753 0.580746 13.1513 1.61448C12.1273 2.64822 11.552 4.05026 11.552 5.51218C11.552 6.9741 12.1273 8.37615 13.1513 9.40988C14.1753 10.4436 15.5642 11.0244 17.0123 11.0244ZM33.9029 14.0132C34.0831 14.6369 34.0105 15.3074 33.701 15.8771C33.3916 16.4468 32.8706 16.8691 32.2527 17.051C29.3697 17.8987 26.7657 18.5381 24.2928 18.9631V46.5473C24.2935 47.1783 24.053 47.7853 23.6214 48.2417C23.1898 48.6982 22.6003 48.9689 21.9759 48.9975C21.3514 49.0261 20.7402 48.8103 20.2694 48.3952C19.7986 47.98 19.5047 47.3975 19.4489 46.769L18.2355 33.2948C18.2289 33.2211 18.2257 33.1471 18.2257 33.0731H15.7989C15.799 33.1471 15.7958 33.2211 15.7892 33.2948L14.5758 46.769C14.52 47.3975 14.2261 47.98 13.7553 48.3952C13.2845 48.8103 12.6733 49.0261 12.0488 48.9975C11.4244 48.9689 10.8349 48.6982 10.4033 48.2417C9.9717 47.7853 9.7312 47.1783 9.73192 46.5473V18.9178C7.26507 18.4891 4.67082 17.8631 1.80233 17.0596C1.49228 16.9762 1.20169 16.8317 0.947356 16.6342C0.693023 16.4367 0.480001 16.1903 0.320615 15.9092C0.161229 15.6281 0.0586424 15.3179 0.0187916 14.9965C-0.0210593 14.6751 0.00261677 14.3489 0.0884487 14.0369C0.174281 13.7248 0.320565 13.433 0.518839 13.1783C0.717112 12.9237 0.963439 12.7112 1.24357 12.5533C1.5237 12.3954 1.83206 12.2951 2.15083 12.2583C2.4696 12.2214 2.79244 12.2488 3.10067 12.3387C8.69204 13.9042 12.8928 14.6808 17.0233 14.6992C21.144 14.7175 25.3351 13.9826 30.8937 12.3473C31.5116 12.1654 32.1757 12.2387 32.7401 12.5511C33.3044 12.8635 33.7227 13.3894 33.9029 14.0132Z" fill="#619937"/>
</svg>
