<svg width="39" height="39" viewBox="0 0 39 39" fill="none" xmlns="http://www.w3.org/2000/svg">
<path d="M10.8333 32.5H14.0833V28.1667H18.4167V24.9167H14.0833V20.5833H10.8333V24.9167H6.5V28.1667H10.8333V32.5ZM21.6667 30.875H32.5V27.625H21.6667V30.875ZM21.6667 25.4583H32.5V22.2083H21.6667V25.4583ZM24.05 17.225L27.0833 14.1917L30.1167 17.225L32.3917 14.95L29.3583 11.8083L32.3917 8.775L30.1167 6.5L27.0833 9.53334L24.05 6.5L21.775 8.775L24.8083 11.8083L21.775 14.95L24.05 17.225ZM7.04167 13.4333H17.875V10.1833H7.04167V13.4333ZM4.33334 39C3.14167 39 2.12117 38.5753 1.27184 37.726C0.422503 36.8767 -0.00144077 35.8569 3.67855e-06 34.6667V4.33334C3.67855e-06 3.14167 0.42467 2.12117 1.274 1.27184C2.12334 0.422503 3.14311 -0.00144077 4.33334 3.67855e-06H34.6667C35.8583 3.67855e-06 36.8788 0.42467 37.7282 1.274C38.5775 2.12334 39.0014 3.14311 39 4.33334V34.6667C39 35.8583 38.5753 36.8788 37.726 37.7282C36.8767 38.5775 35.8569 39.0014 34.6667 39H4.33334Z" fill="url(#paint0_linear_24_1446)"/>
<defs>
<linearGradient id="paint0_linear_24_1446" x1="0" y1="0" x2="39" y2="39" gradientUnits="userSpaceOnUse">
<stop stop-color="#8FC666"/>
<stop offset="1" stop-color="#3A6C14"/>
</linearGradient>
</defs>
</svg>
