<svg width="26" height="26" viewBox="0 0 26 26" fill="none" xmlns="http://www.w3.org/2000/svg">
<path d="M6.5 20.8C6.13167 20.8 5.8227 20.6752 5.5731 20.4256C5.3235 20.176 5.19913 19.8675 5.2 19.5V16.9H22.1V5.2H24.7C25.0683 5.2 25.3773 5.3248 25.6269 5.5744C25.8765 5.824 26.0009 6.13254 26 6.5V26L20.8 20.8H6.5ZM0 19.5V1.3C0 0.931671 0.1248 0.622704 0.3744 0.373104C0.624 0.123504 0.932533 -0.000862168 1.3 4.49827e-06H18.2C18.5683 4.49827e-06 18.8773 0.124805 19.1269 0.374405C19.3765 0.624004 19.5009 0.932538 19.5 1.3V13C19.5 13.3683 19.3752 13.6773 19.1256 13.9269C18.876 14.1765 18.5675 14.3009 18.2 14.3H5.2L0 19.5ZM16.9 11.7V2.6H2.6V11.7H16.9Z" fill="#B9CC93"/>
</svg>
