<svg width="44" height="44" viewBox="0 0 44 44" fill="none" xmlns="http://www.w3.org/2000/svg">
<path d="M11 35.2C10.3767 35.2 9.8538 34.9888 9.4314 34.5664C9.009 34.144 8.79853 33.6219 8.8 33V28.6H37.4V8.80001H41.8C42.4233 8.80001 42.9462 9.01121 43.3686 9.43361C43.791 9.85601 44.0015 10.3781 44 11V44L35.2 35.2H11ZM0 33V2.20001C0 1.57667 0.2112 1.05381 0.6336 0.631407C1.056 0.209007 1.57813 -0.00145905 2.2 7.61246e-06H30.8C31.4233 7.61246e-06 31.9462 0.211208 32.3686 0.633608C32.791 1.05601 33.0015 1.57814 33 2.20001V22C33 22.6233 32.7888 23.1462 32.3664 23.5686C31.944 23.991 31.4219 24.2015 30.8 24.2H8.8L0 33ZM28.6 19.8V4.40001H4.4V19.8H28.6Z" fill="#619937"/>
</svg>
