<svg width="38" height="34" viewBox="0 0 38 34" fill="none" xmlns="http://www.w3.org/2000/svg">
<path d="M3.8 34C2.755 34 1.8601 33.6298 1.1153 32.8893C0.370503 32.1489 -0.00126344 31.2598 3.22581e-06 30.2222V3.77778C3.22581e-06 2.73889 0.372403 1.84922 1.1172 1.10878C1.862 0.368336 2.75627 -0.00125605 3.8 3.20694e-06H34.2C35.245 3.20694e-06 36.1399 0.370225 36.8847 1.11067C37.6295 1.85111 38.0013 2.74015 38 3.77778V30.2222C38 31.2611 37.6276 32.1508 36.8828 32.8912C36.138 33.6317 35.2437 34.0013 34.2 34H3.8ZM5.7 26.4444H15.2V22.6667H5.7V26.4444ZM23.845 22.6667L33.25 13.3167L30.5425 10.625L23.845 17.3306L21.1375 14.6389L18.4775 17.3306L23.845 22.6667ZM5.7 18.8889H15.2V15.1111H5.7V18.8889ZM5.7 11.3333H15.2V7.55556H5.7V11.3333Z" fill="url(#paint0_linear_24_1442)"/>
<defs>
<linearGradient id="paint0_linear_24_1442" x1="0" y1="0" x2="33.7908" y2="37.7662" gradientUnits="userSpaceOnUse">
<stop stop-color="#8FC666"/>
<stop offset="1" stop-color="#3A6C14"/>
</linearGradient>
</defs>
</svg>
