<svg width="58" height="58" viewBox="0 0 58 58" fill="none" xmlns="http://www.w3.org/2000/svg">
<path d="M48.3333 19.3333C49.5527 19.3329 50.7272 19.7935 51.6213 20.6226C52.5154 21.4518 53.0631 22.5882 53.1546 23.8042L53.1667 24.1667V45.9167C53.1671 47.1361 52.7065 48.3105 51.8774 49.2047C51.0482 50.0988 49.9118 50.6465 48.6958 50.7379L48.3333 50.75H38.6667C37.4473 50.7504 36.2728 50.2899 35.3787 49.4607C34.4846 48.6316 33.9369 47.4951 33.8454 46.2792L33.8333 45.9167V24.1667C33.8329 22.9473 34.2935 21.7728 35.1226 20.8787C35.9518 19.9846 37.0882 19.4369 38.3042 19.3454L38.6667 19.3333H48.3333ZM41.0833 9.66667C42.3652 9.66667 43.5946 10.1759 44.501 11.0823C45.4074 11.9887 45.9167 13.2181 45.9167 14.5H36.25C34.3272 14.5 32.4831 15.2638 31.1235 16.6235C29.7638 17.9831 29 19.8272 29 21.75V48.3333H9.66667C8.38479 48.3333 7.15541 47.8241 6.24898 46.9177C5.34256 46.0113 4.83333 44.7819 4.83333 43.5V14.5C4.83333 13.2181 5.34256 11.9887 6.24898 11.0823C7.15541 10.1759 8.38479 9.66667 9.66667 9.66667H41.0833Z" fill="url(#paint0_linear_23_1434)"/>
<defs>
<linearGradient id="paint0_linear_23_1434" x1="0" y1="0" x2="58" y2="58" gradientUnits="userSpaceOnUse">
<stop stop-color="#8FC666"/>
<stop offset="1" stop-color="#3A6C14"/>
</linearGradient>
</defs>
</svg>
