<svg width="42" height="35" viewBox="0 0 42 35" fill="none" xmlns="http://www.w3.org/2000/svg">
<path d="M6.3 12.3529V16.4706H10.5V12.3529H6.3ZM12.6 12.3529V16.4706H16.8V12.3529H12.6ZM18.9 12.3529V16.4706H23.1V12.3529H18.9ZM6.3 6.17647V10.2941H10.5V6.17647H6.3ZM12.6 6.17647V10.2941H16.8V6.17647H12.6ZM18.9 6.17647V10.2941H23.1V6.17647H18.9ZM25.2 6.17647V10.2941H29.4V6.17647H25.2ZM31.5 6.17647V10.2941H35.7V6.17647H31.5ZM33.6 35L30.66 32.1176L33.9675 28.8235H25.2V24.7059H33.9675L30.66 21.4118L33.6 18.5294L42 26.7647L33.6 35ZM21.21 28.8235H4.2C3.045 28.8235 2.0559 28.42 1.2327 27.6129C0.409503 26.8059 -0.00139643 25.8369 3.56537e-06 24.7059V4.11765C3.56537e-06 2.9853 0.411604 2.01559 1.2348 1.20853C2.058 0.401474 3.0464 -0.00136905 4.2 3.49546e-06H37.8C38.955 3.49546e-06 39.9441 0.403532 40.7673 1.21059C41.5905 2.01765 42.0014 2.98667 42 4.11765V17.5515C41.09 16.7623 40.1009 16.1185 39.0327 15.6203C37.9645 15.1221 36.8536 14.7878 35.7 14.6177V12.3529H31.5V14.6177C31.115 14.6863 30.7559 14.7549 30.4227 14.8235C30.0895 14.8922 29.7486 14.9951 29.4 15.1324V12.3529H25.2V16.4706H26.67C26.215 16.7451 25.795 17.0628 25.41 17.4238C25.025 17.7848 24.64 18.1533 24.255 18.5294H12.6V22.6471H21.735C21.49 23.299 21.315 23.9681 21.21 24.6544C21.105 25.3407 21.0525 26.0441 21.0525 26.7647C21.0525 27.1422 21.0616 27.4942 21.0798 27.8209C21.098 28.1476 21.1414 28.4818 21.21 28.8235Z" fill="url(#paint0_linear_23_1438)"/>
<defs>
<linearGradient id="paint0_linear_23_1438" x1="0" y1="0" x2="34.4262" y2="41.3115" gradientUnits="userSpaceOnUse">
<stop stop-color="#8FC666"/>
<stop offset="1" stop-color="#3A6C14"/>
</linearGradient>
</defs>
</svg>
