<svg width="43" height="50" viewBox="0 0 43 50" fill="none" xmlns="http://www.w3.org/2000/svg">
<path fill-rule="evenodd" clip-rule="evenodd" d="M10.412 15.5981C10.6956 15.4315 10.9693 14.9812 11.4352 14.6759C11.842 14.4093 12.3386 14.2047 12.8411 14.0185C15.4005 13.0701 15.8757 13.3866 18.0202 11.1865C18.4793 10.7154 19.3745 9.53043 19.5449 8.79408C18.1222 8.91924 16.2942 9.81016 15.3082 10.4235C14.8113 10.7325 12.2243 12.916 12.1989 13.1054C12.3271 12.2365 12.9216 11.0508 13.398 10.5693C14.6782 9.27518 18.1303 8.18388 17.525 3.01448C16.9099 3.30726 15.5523 4.78628 15.0927 5.43952C14.3856 6.44476 13.9256 7.40293 13.3585 8.68617C12.5866 10.4331 10.6917 13.9837 10.412 15.5981Z" fill="url(#paint0_linear_14_2553)"/>
<path fill-rule="evenodd" clip-rule="evenodd" d="M4.17251 40.8244C4.18547 42.7803 4.09284 49.4122 4.32781 50C4.42487 49.8701 5.06709 48.6926 5.17022 48.496C5.44982 47.9631 5.32249 45.9456 5.32077 45.0503C5.31183 40.4285 5.71572 36.6431 2.80576 33.0293C2.31482 32.4196 0.926257 31.1731 0 30.9307C0.342526 34.0215 1.18256 36.2548 2.80732 38.6626C3.84081 40.1942 4.16537 39.7623 4.17251 40.8244Z" fill="url(#paint1_linear_14_2553)"/>
<path fill-rule="evenodd" clip-rule="evenodd" d="M5.41039 34.9381C5.86958 34.4437 6.12416 31.9436 6.16477 31.0738C6.23434 29.5857 6.07526 28.2366 5.67555 26.9072C5.11479 25.0427 3.4824 22.1111 1.85788 21.4522C1.74162 24.4091 2.16307 26.2244 3.23135 28.5895C3.63532 29.4839 4.31217 30.5682 4.8365 31.2108C5.4405 31.9511 5.25853 31.7495 5.24286 32.9136C5.23523 33.4819 5.14884 34.519 5.41039 34.9381Z" fill="url(#paint2_linear_14_2553)"/>
<path fill-rule="evenodd" clip-rule="evenodd" d="M7.04405 28.1825C7.57413 27.5469 8.41801 25.3371 8.86005 24.4428C9.8092 22.5226 10.0047 22.695 11.4277 21.4953C13.1461 20.0462 14.7809 17.6579 15.5049 14.494C13.1548 15.0609 10.8084 17.842 9.83053 19.8957C8.74946 22.1662 7.14792 25.2986 7.04405 28.1825Z" fill="url(#paint3_linear_14_2553)"/>
<path fill-rule="evenodd" clip-rule="evenodd" d="M6.96068 23.3315L8.20862 20.7603C9.18361 18.5958 9.39963 16.3657 8.693 14.0271C8.47477 13.3048 7.82228 11.7231 7.35875 11.3743C5.95566 13.4505 5.8728 20.9016 6.96068 23.3315Z" fill="url(#paint4_linear_14_2553)"/>
<path fill-rule="evenodd" clip-rule="evenodd" d="M5.52543 39.5005C5.78034 39.2822 5.77919 39.1701 6.01474 38.9357C7.16768 37.7881 8.48002 36.8846 9.86974 35.2082C10.8189 34.0632 12.6753 31.4894 13.2336 29.8222C9.16417 30.4326 5.74851 34.928 5.52543 39.5005Z" fill="url(#paint5_linear_14_2553)"/>
<path fill-rule="evenodd" clip-rule="evenodd" d="M15.837 18.5997C16.1993 18.4259 18.11 16.1764 21.6732 14.5206C23.1671 13.8264 23.7227 13.4478 24.5746 12.4354C25.1563 11.7442 26.1263 10.2842 26.3952 9.27099C23.8898 9.66372 21.5848 11.8155 20.2915 13.1359C19.4883 13.9559 18.5985 14.7684 17.8771 15.7057C17.2397 16.534 16.2924 17.5433 15.837 18.5997Z" fill="url(#paint6_linear_14_2553)"/>
<path fill-rule="evenodd" clip-rule="evenodd" d="M16.9472 27.871C17.9777 28.068 19.5579 27.8607 20.845 28.0845C22.0891 28.3007 22.8491 28.7987 23.9029 29.2491C25.4694 29.9186 29.1093 30.6857 31.0276 30.513C29.6263 29.0446 27.8346 27.6477 25.1434 27.2345C22.285 26.7955 19.5593 27.3394 16.9472 27.871Z" fill="url(#paint7_linear_14_2553)"/>
<path fill-rule="evenodd" clip-rule="evenodd" d="M9.66286 29.6465C10.056 29.4621 10.7452 28.6432 12.2516 28.0637C14.7605 27.0986 15.6552 27.503 18.0769 25.3336C18.5245 24.9325 19.8879 23.5415 20.1343 23.0005C17.4945 22.8776 15.3439 24.088 13.7775 25.2516C12.536 26.174 10.2769 28.3048 9.66286 29.6465Z" fill="url(#paint8_linear_14_2553)"/>
<path fill-rule="evenodd" clip-rule="evenodd" d="M18.7249 7.45434C20.6261 6.87074 22.4516 5.78733 23.4383 4.69372C24.3702 3.66081 25.7387 1.71736 26.2666 0C24.0992 0.0563391 21.1509 2.87691 19.9438 4.88015C19.5248 5.57552 18.9693 6.65032 18.7249 7.45434Z" fill="url(#paint9_linear_14_2553)"/>
<path fill-rule="evenodd" clip-rule="evenodd" d="M10.5956 26.3163C10.8571 26.1222 10.8902 26.0003 11.1446 25.7585L12.9472 24.0987C14.899 22.4169 16.6362 22.8085 19.1605 21.2175L21.6044 19.18C19.8142 18.3518 16.2827 19.6195 14.6633 21.155C13.3397 22.4101 11.1288 24.6151 10.5956 26.3163Z" fill="url(#paint10_linear_14_2553)"/>
<path fill-rule="evenodd" clip-rule="evenodd" d="M26.1068 13.9223C26.9734 13.8012 27.2276 13.4518 29.2197 13.3198C30.78 13.2163 31.2879 13.5062 32.5981 13.8237C34.55 14.2967 37.6289 14.0648 39.2496 13.1559C35.8694 10.5625 28.5963 11.9975 26.1068 13.9223Z" fill="url(#paint11_linear_14_2553)"/>
<path fill-rule="evenodd" clip-rule="evenodd" d="M25.5887 19.5418C26.5734 19.3682 27.5212 19.0248 28.5707 18.9082C29.7052 18.7821 30.917 19.2053 32.1488 19.1842C33.2444 19.1655 34.297 18.871 35.1966 18.5231C35.7497 18.3092 37.3159 17.5296 37.6348 17.2368C34.7297 16.2081 30.7129 16.6331 27.9059 18.0499C27.2987 18.3564 25.8543 19.1548 25.5887 19.5418Z" fill="url(#paint12_linear_14_2553)"/>
<path fill-rule="evenodd" clip-rule="evenodd" d="M28.5849 24.6789C28.824 24.8002 30.5993 25.1323 31.0485 25.2339C33.4151 25.7691 37.4732 25.2297 38.9572 24.2593C37.2894 23.425 35.7939 22.9185 33.5519 23.0294C31.997 23.1064 29.3486 23.8002 28.5849 24.6789Z" fill="url(#paint13_linear_14_2553)"/>
<path fill-rule="evenodd" clip-rule="evenodd" d="M43 30.0798C42.6607 29.2577 40.4958 27.7762 39.3138 27.2574C37.7021 26.5499 35.6735 26.1929 33.6972 26.4483C36.6366 29.6034 38.041 29.9249 43 30.0798Z" fill="url(#paint14_linear_14_2553)"/>
<path fill-rule="evenodd" clip-rule="evenodd" d="M32.1947 10.6302C34.5799 10.3731 35.6817 10.8046 37.9033 9.85779C39.8075 9.04613 40.3449 8.26091 41.638 7.16558C39.4915 6.57312 35.8283 7.71156 33.957 9.04226C33.3869 9.44764 32.8714 9.80613 32.416 10.3267C32.1568 10.6232 32.3536 10.3474 32.1947 10.6302Z" fill="url(#paint15_linear_14_2553)"/>
<path fill-rule="evenodd" clip-rule="evenodd" d="M22.4829 21.892C25.1073 21.9501 24.3417 21.6841 27.9132 21.9915C29.9462 22.1665 31.3279 21.9253 33.2861 21.8095C33.0991 21.3729 31.9071 20.6331 31.2269 20.3958C29.1201 19.661 27.199 20.2212 25.1481 20.8152C24.5434 20.9902 22.9709 21.3997 22.4829 21.892Z" fill="url(#paint16_linear_14_2553)"/>
<path fill-rule="evenodd" clip-rule="evenodd" d="M19.0681 26.366C21.5804 25.8537 23.0708 26.6413 25.8224 24.4179C26.4271 23.9293 26.8334 23.4329 27.372 22.9725C25.3915 22.7275 24.0273 22.844 22.3862 23.6791C21.4861 24.1371 19.3329 25.6378 19.0681 26.366Z" fill="url(#paint17_linear_14_2553)"/>
<path fill-rule="evenodd" clip-rule="evenodd" d="M18.226 18.232C18.9958 18.2502 20.0177 17.8119 21.0957 17.8803C22.2245 17.9519 22.8874 18.2632 24.1332 18.0678C25.6105 17.8361 27.969 16.3008 28.4816 15.4881C26.1785 15.4666 24.8094 15.5819 22.7552 16.2483C21.5439 16.6412 19.2015 17.6361 18.226 18.232Z" fill="url(#paint18_linear_14_2553)"/>
<path fill-rule="evenodd" clip-rule="evenodd" d="M25.5486 13.158C26.5208 12.2463 28.1087 11.4829 29.2264 10.4892C29.951 9.845 31.5352 8.01307 31.8129 6.60369C30.1664 6.9331 28.8868 7.74986 27.8182 8.96525C27.2335 9.63015 25.7562 12.0056 25.5486 13.158Z" fill="url(#paint19_linear_14_2553)"/>
<path fill-rule="evenodd" clip-rule="evenodd" d="M34.6753 29.4854C34.5523 29.4156 33.4244 27.5263 31.4429 26.678C30.187 26.1404 27.4705 25.8203 25.9881 25.9851C26.391 26.2343 27.6302 26.5122 28.2091 26.7805C29.7046 27.4735 32.8191 29.5556 34.6753 29.4854Z" fill="url(#paint20_linear_14_2553)"/>
<defs>
<linearGradient id="paint0_linear_14_2553" x1="0" y1="0" x2="49.4367" y2="42.5155" gradientUnits="userSpaceOnUse">
<stop stop-color="#8FC666"/>
<stop offset="1" stop-color="#3A6C14"/>
</linearGradient>
<linearGradient id="paint1_linear_14_2553" x1="0" y1="0" x2="49.4367" y2="42.5155" gradientUnits="userSpaceOnUse">
<stop stop-color="#8FC666"/>
<stop offset="1" stop-color="#3A6C14"/>
</linearGradient>
<linearGradient id="paint2_linear_14_2553" x1="0" y1="0" x2="49.4367" y2="42.5155" gradientUnits="userSpaceOnUse">
<stop stop-color="#8FC666"/>
<stop offset="1" stop-color="#3A6C14"/>
</linearGradient>
<linearGradient id="paint3_linear_14_2553" x1="0" y1="0" x2="49.4367" y2="42.5155" gradientUnits="userSpaceOnUse">
<stop stop-color="#8FC666"/>
<stop offset="1" stop-color="#3A6C14"/>
</linearGradient>
<linearGradient id="paint4_linear_14_2553" x1="0" y1="0" x2="49.4367" y2="42.5155" gradientUnits="userSpaceOnUse">
<stop stop-color="#8FC666"/>
<stop offset="1" stop-color="#3A6C14"/>
</linearGradient>
<linearGradient id="paint5_linear_14_2553" x1="0" y1="0" x2="49.4367" y2="42.5155" gradientUnits="userSpaceOnUse">
<stop stop-color="#8FC666"/>
<stop offset="1" stop-color="#3A6C14"/>
</linearGradient>
<linearGradient id="paint6_linear_14_2553" x1="0" y1="0" x2="49.4367" y2="42.5155" gradientUnits="userSpaceOnUse">
<stop stop-color="#8FC666"/>
<stop offset="1" stop-color="#3A6C14"/>
</linearGradient>
<linearGradient id="paint7_linear_14_2553" x1="0" y1="0" x2="49.4367" y2="42.5155" gradientUnits="userSpaceOnUse">
<stop stop-color="#8FC666"/>
<stop offset="1" stop-color="#3A6C14"/>
</linearGradient>
<linearGradient id="paint8_linear_14_2553" x1="0" y1="0" x2="49.4367" y2="42.5155" gradientUnits="userSpaceOnUse">
<stop stop-color="#8FC666"/>
<stop offset="1" stop-color="#3A6C14"/>
</linearGradient>
<linearGradient id="paint9_linear_14_2553" x1="0" y1="0" x2="49.4367" y2="42.5155" gradientUnits="userSpaceOnUse">
<stop stop-color="#8FC666"/>
<stop offset="1" stop-color="#3A6C14"/>
</linearGradient>
<linearGradient id="paint10_linear_14_2553" x1="0" y1="0" x2="49.4367" y2="42.5155" gradientUnits="userSpaceOnUse">
<stop stop-color="#8FC666"/>
<stop offset="1" stop-color="#3A6C14"/>
</linearGradient>
<linearGradient id="paint11_linear_14_2553" x1="0" y1="0" x2="49.4367" y2="42.5155" gradientUnits="userSpaceOnUse">
<stop stop-color="#8FC666"/>
<stop offset="1" stop-color="#3A6C14"/>
</linearGradient>
<linearGradient id="paint12_linear_14_2553" x1="0" y1="0" x2="49.4367" y2="42.5155" gradientUnits="userSpaceOnUse">
<stop stop-color="#8FC666"/>
<stop offset="1" stop-color="#3A6C14"/>
</linearGradient>
<linearGradient id="paint13_linear_14_2553" x1="0" y1="0" x2="49.4367" y2="42.5155" gradientUnits="userSpaceOnUse">
<stop stop-color="#8FC666"/>
<stop offset="1" stop-color="#3A6C14"/>
</linearGradient>
<linearGradient id="paint14_linear_14_2553" x1="0" y1="0" x2="49.4367" y2="42.5155" gradientUnits="userSpaceOnUse">
<stop stop-color="#8FC666"/>
<stop offset="1" stop-color="#3A6C14"/>
</linearGradient>
<linearGradient id="paint15_linear_14_2553" x1="0" y1="0" x2="49.4367" y2="42.5155" gradientUnits="userSpaceOnUse">
<stop stop-color="#8FC666"/>
<stop offset="1" stop-color="#3A6C14"/>
</linearGradient>
<linearGradient id="paint16_linear_14_2553" x1="0" y1="0" x2="49.4367" y2="42.5155" gradientUnits="userSpaceOnUse">
<stop stop-color="#8FC666"/>
<stop offset="1" stop-color="#3A6C14"/>
</linearGradient>
<linearGradient id="paint17_linear_14_2553" x1="0" y1="0" x2="49.4367" y2="42.5155" gradientUnits="userSpaceOnUse">
<stop stop-color="#8FC666"/>
<stop offset="1" stop-color="#3A6C14"/>
</linearGradient>
<linearGradient id="paint18_linear_14_2553" x1="0" y1="0" x2="49.4367" y2="42.5155" gradientUnits="userSpaceOnUse">
<stop stop-color="#8FC666"/>
<stop offset="1" stop-color="#3A6C14"/>
</linearGradient>
<linearGradient id="paint19_linear_14_2553" x1="0" y1="0" x2="49.4367" y2="42.5155" gradientUnits="userSpaceOnUse">
<stop stop-color="#8FC666"/>
<stop offset="1" stop-color="#3A6C14"/>
</linearGradient>
<linearGradient id="paint20_linear_14_2553" x1="0" y1="0" x2="49.4367" y2="42.5155" gradientUnits="userSpaceOnUse">
<stop stop-color="#8FC666"/>
<stop offset="1" stop-color="#3A6C14"/>
</linearGradient>
</defs>
</svg>
