<svg width="27" height="24" viewBox="0 0 27 24" fill="none" xmlns="http://www.w3.org/2000/svg">
<path d="M4.90909 9.6V24H0V9.6H4.90909ZM9.81818 24C9.1672 24 8.54287 23.7471 8.08256 23.2971C7.62224 22.847 7.36364 22.2365 7.36364 21.6V9.6C7.36364 8.94 7.63364 8.34 8.08773 7.908L16.1632 0L17.4641 1.272C17.7955 1.596 18.0041 2.04 18.0041 2.532L17.9673 2.916L16.8014 8.4H24.5455C25.1964 8.4 25.8208 8.65286 26.2811 9.10294C26.7414 9.55303 27 10.1635 27 10.8V13.2C27 13.512 26.9386 13.8 26.8282 14.076L23.1218 22.536C22.7536 23.4 21.8823 24 20.8636 24H9.81818ZM9.81818 21.6H20.9005L24.5455 13.2V10.8H13.7577L15.1445 4.416L9.81818 9.636V21.6Z" fill="#B9CC93"/>
</svg>
