<svg width="314" height="326" viewBox="0 0 314 326" fill="none" xmlns="http://www.w3.org/2000/svg">
<path d="M48.5691 47.3144C47.4803 45.1752 47.419 41.0732 49.1365 39.4093C50.854 37.7455 52.6328 37.1781 55.1093 36.8408C59.8171 36.1891 59.7941 32.7694 59.9781 31.6653C60.6758 27.3716 62.2783 25.0254 64.8085 23.6453C71.6324 19.9343 88.3395 21.6365 86.392 32.7004C86.1007 34.3489 85.3033 36.0894 86.001 37.6075C86.3491 38.2397 86.8211 38.7951 87.3888 39.2407C90.0187 41.5409 92.8479 43.7414 94.7954 46.6473C96.7429 49.5532 97.6707 53.4559 96.0912 56.6148C94.6114 59.5591 91.2071 61.3379 90.2334 64.4892C88.8916 68.8212 92.7789 73.69 91.0001 77.8303C89.551 81.158 86.6757 81.5337 83.5858 81.572C80.0052 81.6103 78.2187 85.7737 74.27 84.9609C72.5372 84.6082 70.743 84.8689 68.9795 84.9609C66.8045 85.1263 64.6196 84.8149 62.5773 84.0485C61.5572 83.6647 60.6245 83.0801 59.8343 82.3294C59.0442 81.5788 58.4126 80.6772 57.9769 79.6782C57.2102 77.8227 57.3559 75.6298 56.2211 73.9813C55.255 72.5859 53.7139 71.6811 52.6635 70.3624C51.13 68.4532 50.7083 67.0041 50.716 65.6009C50.716 65.0412 50.9076 62.948 52.1267 62.1353C51.5005 62.2472 50.923 62.547 50.4711 62.9948C50.0192 63.4426 49.7142 64.0173 49.5965 64.6425C49.3913 65.8981 49.4488 67.1826 49.7652 68.4148C48.8069 67.8049 47.9912 66.9957 47.3735 66.0423C46.7558 65.089 46.3506 64.0138 46.1855 62.8899C46.0203 61.766 46.0991 60.6198 46.4165 59.529C46.7339 58.4383 47.2824 57.4287 48.0247 56.5688C48.9601 55.4724 50.2636 54.4986 50.4629 53.0649C50.7696 50.7647 49.6579 49.4075 48.5691 47.3144Z" fill="#263238"/>
<path d="M75.1901 21.5291C68.5348 24.1054 67.4307 36.2197 74.4233 42.3766C81.4159 48.5335 85.2879 16.9287 75.1901 21.5291Z" fill="#619937"/>
<path d="M120.374 82.3617C134.497 84.4319 137.679 88.1659 149.111 99.9966C162.529 113.905 174.773 126.372 174.773 126.372C174.773 126.372 188.475 126.855 196.326 127.016C203.741 127.17 208.402 126.802 211.017 126.656C213.041 126.541 222.027 123.896 223.354 123.75C227.095 123.336 232.654 152.51 232.654 152.51C229.898 153.299 226.997 153.443 224.176 152.933C221.355 152.422 218.689 151.27 216.384 149.566C215.68 149.103 214.891 148.786 214.063 148.633C213.234 148.48 212.384 148.495 211.561 148.676C203.994 149.934 195.713 151.13 189.525 151.835C175.985 153.369 166.523 155.079 161.463 150.724C156.402 146.369 127.366 120.208 127.366 120.208L120.374 82.3617Z" fill="#FDDFE0"/>
<path d="M229.073 107.879C229.564 106.498 230.967 105.456 233.16 105.057C237.546 104.29 243.442 106.368 246.325 109.772C247.766 111.475 248.188 113.169 247.69 114.549L234.954 150.034C234.463 151.406 233.06 152.456 230.867 152.855C226.482 153.622 220.586 151.536 217.703 148.14C216.261 146.438 215.84 144.735 216.338 143.363L229.073 107.879Z" fill="#263238"/>
<path d="M233.137 105.057C237.523 104.29 243.419 106.368 246.302 109.772C247.743 111.475 248.165 113.169 247.667 114.549L245.175 121.565C244.377 122.013 243.508 122.319 242.606 122.47C237.73 123.351 231.174 121.005 227.977 117.225C227.375 116.546 226.896 115.767 226.558 114.925L229.073 107.909C229.541 106.498 230.944 105.456 233.137 105.057Z" fill="black"/>
<path d="M246.302 109.772C247.743 111.475 248.165 113.177 247.667 114.549C247.168 115.922 245.773 116.972 243.58 117.371C239.194 118.137 233.298 116.06 230.415 112.655C228.974 110.953 228.56 109.251 229.05 107.879C229.541 106.506 230.944 105.456 233.137 105.057C237.507 104.26 243.419 106.406 246.302 109.772Z" fill="#455A64"/>
<path d="M218.339 137.842L217.572 139.959C217.074 141.331 217.496 143.026 218.937 144.735C221.82 148.132 227.716 150.248 232.102 149.451C234.295 149.052 235.698 148.002 236.189 146.629L236.955 144.513C236.465 145.893 235.062 146.944 232.869 147.342C228.475 148.109 222.579 146.024 219.696 142.619C218.247 140.909 217.833 139.184 218.339 137.842Z" fill="#455A64"/>
<path d="M240.26 113.767C238.657 114.058 236.871 113.292 235.269 111.398C232.064 107.626 230.821 100.779 232.493 96.1092C233.329 93.809 234.732 92.4366 236.327 92.1452L256.338 88.5339C257.941 88.2502 259.727 89.017 261.33 90.9031C264.535 94.6831 265.777 101.53 264.105 106.192C263.27 108.492 261.867 109.872 260.272 110.163L240.26 113.767Z" fill="#455A64"/>
<path opacity="0.05" d="M264.857 101.423L232.907 107.219C232.45 105.979 232.126 104.694 231.941 103.386L264.397 97.497C264.688 98.7857 264.842 100.102 264.857 101.423Z" fill="white"/>
<path d="M264.673 103.953C264.557 104.715 264.37 105.465 264.113 106.192C263.277 108.492 261.874 109.872 260.279 110.163L240.268 113.767C238.665 114.058 236.879 113.292 235.276 111.398C234.776 110.806 234.334 110.166 233.957 109.489L264.673 103.953Z" fill="#37474F"/>
<path d="M248.709 89.914C250.312 89.6227 252.098 90.3894 253.701 92.2756C256.906 96.0556 258.148 102.902 256.476 107.61C255.641 109.91 254.238 111.283 252.643 111.574L255.84 110.999C257.442 110.708 258.846 109.366 259.674 107.027C261.345 102.366 260.103 95.5265 256.898 91.7388C255.296 89.8527 253.509 89.0859 251.907 89.3773L248.709 89.914Z" fill="#619937"/>
<path opacity="0.1" d="M260.233 104.75C260.119 105.513 259.931 106.262 259.674 106.989C258.838 109.328 257.435 110.669 255.84 110.961L252.643 111.536C254.245 111.245 255.648 109.903 256.476 107.572C256.734 106.842 256.921 106.09 257.036 105.325L260.233 104.75Z" fill="black"/>
<path opacity="0.05" d="M259.957 98.2714C260.251 99.5701 260.405 100.896 260.417 102.228L257.22 102.803C257.21 101.474 257.058 100.151 256.768 98.8541L259.957 98.2714Z" fill="white"/>
<path d="M232.493 96.1092C233.329 93.809 234.739 92.4366 236.327 92.1452C237.914 91.8539 239.716 92.6206 241.31 94.5068C244.515 98.2867 245.757 105.134 244.086 109.841C243.25 112.142 241.847 113.514 240.252 113.805C238.657 114.097 236.863 113.33 235.261 111.436C232.064 107.626 230.821 100.779 232.493 96.1092Z" fill="#37474F"/>
<path d="M237.615 80.7209C238.159 79.1874 239.716 78.0297 242.154 77.585C247.03 76.7032 253.578 79.0494 256.783 82.8294C258.386 84.7156 258.846 86.6094 258.317 88.1352C257.979 89.063 248.349 115.968 248.012 116.895C247.46 118.429 245.903 119.587 243.465 120.031C238.588 120.921 232.041 118.575 228.836 114.795C227.233 112.901 226.773 111.015 227.302 109.481C227.64 108.553 237.277 81.6487 237.615 80.7209Z" fill="#37474F"/>
<path d="M258.301 88.1352C257.488 90.5479 256.658 92.9554 255.809 95.3578L253.271 102.573L250.657 109.749C249.793 112.147 248.906 114.534 247.996 116.911C248.799 114.493 249.629 112.085 250.488 109.688L253.018 102.481L255.641 95.3118C256.499 92.9043 257.386 90.5121 258.301 88.1352Z" fill="#263238"/>
<path d="M256.783 82.8294C258.386 84.7156 258.846 86.6094 258.317 88.1352C257.788 89.661 256.208 90.8264 253.77 91.2711C248.893 92.1529 242.346 89.8067 239.141 86.0344C237.538 84.1405 237.078 82.2544 237.607 80.7209C238.136 79.1874 239.716 78.0297 242.154 77.585C247.03 76.7032 253.609 79.0494 256.783 82.8294Z" fill="#455A64"/>
<path d="M217.649 117.846C216.047 118.137 214.26 117.371 212.658 115.485C209.453 111.705 208.211 104.858 209.882 100.196C210.718 97.8574 212.121 96.5156 213.716 96.2242L233.727 92.6206C235.33 92.3292 237.116 93.096 238.719 94.9821C241.924 98.7621 243.166 105.609 241.494 110.271C240.659 112.571 239.256 113.951 237.661 114.242L217.649 117.846Z" fill="#455A64"/>
<path opacity="0.05" d="M242.246 105.525L216.905 110.125L216.2 106.215L241.793 101.568C242.084 102.867 242.236 104.194 242.246 105.525Z" fill="white"/>
<path d="M242.062 108.024C241.947 108.789 241.76 109.541 241.502 110.271C240.666 112.571 239.263 113.951 237.668 114.242L217.657 117.846C216.054 118.137 214.268 117.371 212.665 115.485C212.164 114.887 211.723 114.243 211.346 113.56L242.062 108.024Z" fill="#37474F"/>
<path d="M238.727 94.9821C240.402 97.0125 241.522 99.4431 241.977 102.036C242.537 104.616 242.468 107.293 241.778 109.841C241.425 111.126 240.743 112.297 239.8 113.238C239.316 113.706 238.727 114.051 238.082 114.242C237.431 114.403 236.794 114.48 236.15 114.603C233.582 115.063 231.006 115.492 228.429 115.906C230.99 115.393 233.551 114.894 236.097 114.426C236.725 114.296 237.392 114.212 237.998 114.043C238.609 113.856 239.167 113.525 239.624 113.077C240.527 112.156 241.172 111.014 241.494 109.765C242.202 107.269 242.299 104.639 241.778 102.097C241.543 100.819 241.171 99.5693 240.666 98.3711C240.186 97.1538 239.533 96.0124 238.727 94.9821Z" fill="#263238"/>
<path d="M209.905 100.188C210.741 97.888 212.144 96.5156 213.739 96.2242C215.334 95.9329 217.12 96.6996 218.722 98.5934C221.927 102.373 223.17 109.213 221.498 113.882C220.662 116.182 219.259 117.555 217.664 117.846C216.07 118.137 214.275 117.371 212.673 115.485C209.453 111.705 208.211 104.873 209.905 100.188Z" fill="#263238"/>
<path d="M213.302 115.538C212.152 115.745 210.871 115.201 209.729 113.844C208.557 112.305 207.765 110.511 207.419 108.608C207.072 106.706 207.181 104.748 207.735 102.895C208.333 101.223 209.345 100.257 210.488 100.05L213.555 99.5135C214.697 99.3065 215.978 99.8509 217.128 101.208C218.297 102.748 219.086 104.543 219.429 106.445C219.773 108.348 219.662 110.305 219.106 112.157C218.508 113.828 217.503 114.795 216.361 115.002L213.302 115.538Z" fill="#455A64"/>
<path opacity="0.05" d="M219.643 108.469L207.942 110.593C207.594 109.565 207.367 108.499 207.267 107.419L219.16 105.256C219.453 106.303 219.615 107.382 219.643 108.469Z" fill="white"/>
<path d="M219.528 110.547C219.443 111.095 219.307 111.634 219.121 112.157C218.523 113.828 217.519 114.795 216.376 115.002L213.309 115.538C212.159 115.745 210.879 115.201 209.736 113.844C209.377 113.417 209.059 112.958 208.786 112.471C215.955 111.176 212.075 111.889 219.528 110.547Z" fill="#37474F"/>
<path d="M207.735 102.895C208.333 101.223 209.345 100.257 210.488 100.05C211.63 99.8432 212.911 100.395 214.061 101.745C215.227 103.286 216.014 105.081 216.358 106.983C216.702 108.885 216.592 110.842 216.039 112.694C215.441 114.365 214.436 115.331 213.294 115.538C212.152 115.745 210.863 115.201 209.721 113.844C208.55 112.304 207.76 110.51 207.415 108.607C207.07 106.705 207.18 104.747 207.735 102.895Z" fill="#263238"/>
<path d="M246.655 93.901C246.635 93.9548 246.626 94.0122 246.631 94.0694C246.635 94.1265 246.651 94.1821 246.679 94.2323C246.707 94.2825 246.745 94.3262 246.791 94.3603C246.837 94.3945 246.89 94.4183 246.946 94.4301C248.849 94.8889 250.824 94.967 252.758 94.6601C253.457 94.5374 254.139 94.3315 254.79 94.0467C254.84 94.0262 254.885 93.995 254.922 93.9553C254.959 93.9156 254.987 93.8683 255.004 93.8167C255.034 93.742 255.04 93.6601 255.023 93.5817C255.005 93.5034 254.964 93.4321 254.905 93.3774C254.846 93.3227 254.772 93.2871 254.693 93.2752C254.613 93.2632 254.532 93.2756 254.46 93.3107C253.868 93.5653 253.248 93.748 252.612 93.855C250.787 94.1509 248.92 94.0805 247.122 93.648C247.027 93.6253 246.926 93.6385 246.84 93.6852C246.754 93.7318 246.688 93.8087 246.655 93.901ZM245.98 95.7872C245.96 95.8409 245.952 95.8983 245.956 95.9555C245.96 96.0127 245.977 96.0683 246.004 96.1185C246.032 96.1687 246.07 96.2124 246.116 96.2465C246.162 96.2806 246.215 96.3044 246.271 96.3162C248.175 96.7713 250.149 96.8494 252.083 96.5463C252.782 96.4236 253.464 96.2176 254.115 95.9329C254.165 95.9123 254.21 95.8811 254.247 95.8414C254.284 95.8017 254.313 95.7544 254.33 95.7029C254.359 95.6282 254.366 95.5463 254.348 95.4679C254.33 95.3895 254.289 95.3183 254.23 95.2636C254.172 95.2089 254.098 95.1732 254.018 95.1613C253.939 95.1494 253.857 95.1618 253.785 95.1968C253.193 95.4514 252.573 95.6342 251.937 95.7412C250.112 96.0371 248.246 95.9667 246.448 95.5342C246.352 95.5114 246.252 95.5247 246.165 95.5713C246.079 95.618 246.013 95.6949 245.98 95.7872ZM245.305 97.6734C245.285 97.7271 245.277 97.7845 245.281 97.8417C245.285 97.8988 245.302 97.9544 245.33 98.0046C245.357 98.0549 245.395 98.0985 245.441 98.1327C245.487 98.1668 245.54 98.1906 245.596 98.2024C247.5 98.6574 249.475 98.7356 251.408 98.4324C252.107 98.3087 252.789 98.1028 253.44 97.8191C253.49 97.7973 253.534 97.7657 253.571 97.7261C253.608 97.6866 253.637 97.6399 253.655 97.589C253.681 97.5146 253.684 97.4343 253.665 97.358C253.646 97.2816 253.605 97.2124 253.547 97.1588C253.49 97.1052 253.418 97.0695 253.34 97.056C253.263 97.0426 253.183 97.0519 253.11 97.083C252.518 97.3366 251.898 97.5193 251.263 97.6274C249.437 97.9232 247.571 97.8528 245.773 97.4203C245.677 97.3976 245.577 97.4108 245.491 97.4575C245.404 97.5042 245.338 97.581 245.305 97.6734Z" fill="#263238"/>
<path d="M211.945 113.821C212.453 113.678 212.915 113.402 213.283 113.022C213.651 112.642 213.911 112.172 214.038 111.659C214.454 110.248 214.532 108.759 214.266 107.312C214 105.865 213.396 104.502 212.504 103.332C212.207 102.896 211.799 102.546 211.322 102.32C210.845 102.094 210.316 101.998 209.79 102.044C208.271 102.372 206.94 103.278 206.077 104.57C205.214 105.861 204.886 107.438 205.164 108.967C205.442 110.495 206.303 111.856 207.565 112.762C208.827 113.668 210.392 114.047 211.929 113.821H211.945Z" fill="#455A64"/>
<path opacity="0.05" d="M214.421 108.553C211.587 109.331 208.612 109.446 205.726 108.891C207.26 109.128 212.627 107.618 214.237 107.15C214.328 107.613 214.39 108.082 214.421 108.553Z" fill="white"/>
<path d="M204.99 108.998C204.843 108.2 204.861 107.381 205.044 106.59C204.903 107.222 204.962 107.882 205.214 108.479C205.465 109.075 205.896 109.578 206.447 109.918C208.747 111.452 211.277 111.153 214.314 110.6C214.247 110.959 214.155 111.313 214.038 111.659C213.911 112.172 213.651 112.642 213.283 113.022C212.915 113.402 212.453 113.678 211.945 113.821C210.383 114.102 208.773 113.753 207.47 112.848C206.166 111.944 205.274 110.559 204.99 108.998Z" fill="#37474F"/>
<path d="M201.18 113.008C200.883 113.037 200.584 112.985 200.314 112.859C200.044 112.732 199.813 112.534 199.646 112.287C199.15 111.632 198.816 110.869 198.669 110.061C198.523 109.252 198.568 108.421 198.803 107.633C198.872 107.347 199.017 107.085 199.222 106.873C199.427 106.661 199.684 106.508 199.968 106.429L206.071 105.333C206.368 105.304 206.667 105.356 206.937 105.482C207.207 105.609 207.438 105.807 207.605 106.054C208.101 106.708 208.435 107.469 208.582 108.276C208.728 109.083 208.683 109.914 208.448 110.7C208.378 110.988 208.233 111.253 208.027 111.466C207.82 111.678 207.561 111.833 207.275 111.912L201.18 113.008Z" fill="#455A64"/>
<path d="M208.609 110.018C208.574 110.25 208.518 110.478 208.441 110.7C208.371 110.988 208.225 111.253 208.019 111.466C207.813 111.678 207.553 111.833 207.267 111.912L201.18 113.008C200.883 113.037 200.584 112.985 200.314 112.859C200.044 112.732 199.813 112.534 199.646 112.287C199.494 112.107 199.361 111.912 199.247 111.705L208.609 110.018Z" fill="#37474F"/>
<path d="M207.605 106.054C208.116 106.671 208.457 107.411 208.594 108.201C208.762 108.984 208.741 109.796 208.533 110.57C208.426 110.962 208.217 111.32 207.927 111.605C207.781 111.749 207.602 111.854 207.405 111.912C207.206 111.965 207.014 111.981 206.815 112.019L204.469 112.418L206.807 111.965C206.999 111.927 207.206 111.904 207.39 111.85C207.574 111.793 207.742 111.693 207.881 111.559C208.155 111.277 208.351 110.928 208.448 110.547C208.654 109.783 208.685 108.982 208.539 108.204C208.393 107.426 208.074 106.691 207.605 106.054Z" fill="#263238"/>
<path d="M198.818 107.633C198.874 107.347 199.016 107.084 199.225 106.88C199.433 106.676 199.699 106.54 199.986 106.491C200.274 106.441 200.57 106.479 200.835 106.601C201.1 106.723 201.322 106.923 201.471 107.173C201.97 107.827 202.307 108.589 202.454 109.399C202.6 110.208 202.553 111.04 202.314 111.827C202.269 112.124 202.131 112.399 201.922 112.614C201.712 112.829 201.441 112.974 201.145 113.027C200.849 113.08 200.545 113.04 200.273 112.911C200.002 112.783 199.777 112.573 199.631 112.31C199.137 111.65 198.805 110.882 198.664 110.069C198.523 109.256 198.576 108.422 198.818 107.633Z" fill="#263238"/>
<path d="M200.961 118.172C205.298 115.996 207.051 110.715 204.875 106.378C202.699 102.04 197.419 100.288 193.081 102.464C188.744 104.64 186.991 109.92 189.167 114.257C191.343 118.595 196.623 120.347 200.961 118.172Z" fill="#263238"/>
<path d="M196.94 103.669C197.28 103.848 197.564 104.117 197.76 104.447C197.956 104.778 198.057 105.156 198.051 105.54C197.962 106.124 197.652 106.651 197.185 107.012C196.716 107.359 196.221 107.669 195.705 107.94C194.513 108.635 193.446 109.524 192.546 110.57C192.055 111.137 191.48 111.82 190.737 111.766C190.501 111.734 190.277 111.644 190.086 111.503C189.894 111.363 189.741 111.176 189.64 110.961C189.443 110.529 189.361 110.054 189.403 109.581C189.579 107.734 190.411 106.012 191.749 104.727C192.378 104.006 193.227 103.511 194.165 103.32C195.103 103.129 196.078 103.252 196.94 103.669Z" fill="#37474F"/>
<path d="M197.101 116.182C203.066 115.255 205.665 108.699 203.142 103.991C204.154 104.975 204.913 106.189 205.356 107.528C205.799 108.868 205.913 110.295 205.689 111.688C205.464 113.081 204.907 114.4 204.065 115.532C203.223 116.664 202.12 117.577 200.85 118.193C199.581 118.809 198.182 119.111 196.771 119.072C195.36 119.033 193.98 118.654 192.747 117.969C191.513 117.284 190.463 116.311 189.684 115.134C188.906 113.957 188.423 112.61 188.275 111.206C188.275 111.206 190.53 117.202 197.101 116.182Z" fill="black"/>
<path d="M238.381 111.13C238.466 111.253 238.516 111.397 238.528 111.546C238.54 111.695 238.513 111.845 238.45 111.981C238.285 112.362 238.032 112.699 237.712 112.965C237.393 113.232 237.015 113.42 236.61 113.514C236.466 113.556 236.314 113.559 236.168 113.523C236.023 113.487 235.889 113.412 235.782 113.307L235.207 112.632C235.121 112.509 235.069 112.366 235.057 112.216C235.045 112.067 235.073 111.916 235.138 111.781C235.302 111.398 235.554 111.059 235.874 110.793C236.193 110.526 236.572 110.339 236.978 110.248C237.122 110.206 237.275 110.202 237.421 110.239C237.566 110.275 237.699 110.35 237.806 110.455L238.381 111.13Z" fill="#619937"/>
<path opacity="0.2" d="M236.61 113.537C236.47 113.575 236.322 113.572 236.183 113.529C236.044 113.485 235.92 113.403 235.826 113.293C235.732 113.182 235.672 113.046 235.652 112.902C235.632 112.758 235.653 112.611 235.713 112.479C235.877 112.098 236.129 111.761 236.447 111.494C236.765 111.228 237.142 111.04 237.546 110.946C237.687 110.906 237.836 110.907 237.976 110.95C238.116 110.992 238.241 111.074 238.337 111.185C238.432 111.296 238.493 111.433 238.513 111.578C238.533 111.723 238.512 111.871 238.45 112.004C238.284 112.385 238.032 112.722 237.712 112.988C237.393 113.255 237.015 113.443 236.61 113.537Z" fill="black"/>
<path d="M232.508 112.203C232.595 112.326 232.646 112.47 232.658 112.619C232.671 112.769 232.643 112.919 232.577 113.054C232.411 113.435 232.158 113.773 231.839 114.039C231.519 114.305 231.142 114.493 230.737 114.587C230.593 114.63 230.441 114.633 230.295 114.596C230.149 114.56 230.016 114.486 229.909 114.38L229.334 113.698C229.25 113.574 229.2 113.431 229.187 113.282C229.175 113.132 229.202 112.983 229.265 112.847C229.431 112.466 229.684 112.128 230.003 111.862C230.323 111.596 230.7 111.408 231.105 111.314C231.249 111.271 231.402 111.268 231.547 111.305C231.693 111.341 231.826 111.416 231.933 111.521L232.508 112.203Z" fill="#619937"/>
<path opacity="0.2" d="M230.737 114.61C230.593 114.653 230.441 114.656 230.295 114.619C230.149 114.583 230.016 114.509 229.909 114.403C229.823 114.279 229.771 114.134 229.759 113.983C229.747 113.833 229.775 113.681 229.84 113.545C230.004 113.162 230.256 112.824 230.576 112.557C230.896 112.291 231.274 112.104 231.68 112.011C231.821 111.973 231.969 111.976 232.108 112.02C232.247 112.063 232.37 112.145 232.464 112.256C232.558 112.367 232.619 112.502 232.639 112.646C232.659 112.79 232.638 112.937 232.577 113.069C232.412 113.452 232.16 113.791 231.84 114.059C231.521 114.326 231.143 114.515 230.737 114.61Z" fill="black"/>
<path d="M242.23 129.753L240.958 133.296C240.055 133.82 239.099 134.246 238.105 134.569C236.158 135.259 234.088 135.228 231.067 134.293C228.046 133.357 225.462 133.794 224.511 135.059C223.561 136.324 226.045 138.295 226.045 138.295C224.676 137.823 223.259 137.504 221.82 137.344C220.44 137.344 218.799 139.154 219.834 140.879C220.869 142.604 221.989 144.16 221.989 144.16C221.46 144.494 221.008 144.935 220.662 145.456C220.095 146.315 221.904 148.906 221.904 148.906C223.582 150.925 225.588 152.647 227.839 153.998C231.228 155.899 237.523 153.077 239.509 151.897C240.51 151.311 241.264 150.382 241.632 149.282C243.365 147.963 243.166 145.111 242.752 144.421C244.239 143.447 244.454 140.587 243.841 138.694C245.75 136.209 245.366 134.431 242.23 129.753Z" fill="#FDDFE0"/>
<path d="M216.33 129.362C221.82 128.22 227.003 129.677 228.307 131.134C229.61 132.59 230.492 138.034 230.913 140.587C231.335 143.141 231.68 145.027 231.351 145.41C230.584 146.315 227.172 146.583 225.309 143.194C223.446 139.805 222.51 136.608 221.475 136.7C217.013 139.046 213.041 140.649 213.041 140.649L216.33 129.362Z" fill="#FDDFE0"/>
<path d="M228.307 131.134C228.73 131.598 229.065 132.136 229.296 132.721C229.549 133.297 229.771 133.885 229.963 134.484C230.346 135.673 230.645 136.892 230.906 138.103C231.167 139.315 231.389 140.549 231.619 141.768C231.726 142.382 231.826 142.995 231.903 143.624C231.941 143.938 231.979 144.26 231.995 144.597C232.005 144.779 232.005 144.961 231.995 145.142C231.984 145.262 231.958 145.381 231.918 145.494C231.882 145.579 231.836 145.659 231.78 145.732C231.743 145.779 231.702 145.823 231.657 145.863C231.358 146.131 230.993 146.316 230.599 146.399C230.253 146.486 229.897 146.525 229.541 146.514C228.847 146.492 228.165 146.325 227.54 146.024C226.341 145.398 225.389 144.385 224.841 143.148C224.274 142.029 223.806 140.848 223.308 139.729C223.078 139.146 222.855 138.571 222.587 138.019C222.462 137.752 222.316 137.495 222.15 137.252C222.079 137.118 221.979 137.001 221.857 136.91C221.735 136.82 221.594 136.759 221.444 136.731C221.605 136.735 221.763 136.774 221.906 136.847C222.05 136.92 222.175 137.025 222.272 137.152C222.477 137.394 222.664 137.651 222.832 137.919C223.177 138.448 223.476 139 223.775 139.545C224.358 140.641 224.925 141.738 225.539 142.796C226.061 143.821 226.903 144.648 227.939 145.149C228.436 145.381 228.977 145.507 229.526 145.517C230.01 145.554 230.493 145.421 230.891 145.142C230.891 145.241 230.952 144.942 230.937 144.666C230.932 144.371 230.909 144.077 230.868 143.785C230.806 143.187 230.706 142.573 230.622 141.968L230.093 138.295C229.901 137.076 229.717 135.857 229.457 134.653C229.285 133.421 228.896 132.229 228.307 131.134Z" fill="#9A4A4D"/>
<path d="M218.124 138.364C218.124 138.364 216.859 141.078 211.339 140.664C212.219 141.244 213.249 141.557 214.303 141.565C215.357 141.573 216.392 141.276 217.281 140.71L218.124 138.364Z" fill="#9A4A4D"/>
<path d="M243.726 138.663C242.867 139.488 241.849 140.129 240.735 140.549C239.65 141.014 238.523 141.376 237.369 141.63C236.787 141.745 236.212 141.845 235.606 141.906C234.684 141.978 233.758 141.817 232.915 141.436C232.072 141.055 231.339 140.468 230.783 139.729C231.727 140.341 232.791 140.744 233.904 140.909C234.43 140.99 234.965 140.99 235.491 140.909C236.035 140.833 236.603 140.725 237.147 140.595C238.259 140.357 239.363 140.074 240.467 139.775C241.58 139.49 242.67 139.118 243.726 138.663Z" fill="#9A4A4D"/>
<path d="M242.767 144.406C242.019 145.163 241.135 145.772 240.16 146.2C239.198 146.648 238.187 146.983 237.147 147.197C236.614 147.302 236.073 147.364 235.529 147.381C234.967 147.369 234.41 147.265 233.881 147.074C232.879 146.736 231.932 146.255 231.067 145.648C232.094 145.847 233.099 146.1 234.088 146.277C234.552 146.368 235.026 146.404 235.499 146.384C235.983 146.338 236.464 146.264 236.94 146.162C237.921 145.97 238.895 145.709 239.869 145.395C240.853 145.12 241.82 144.79 242.767 144.406Z" fill="#9A4A4D"/>
<path d="M241.648 149.267C240.094 150.398 238.316 151.182 236.434 151.567C235.492 151.786 234.532 151.917 233.566 151.958C232.563 152.02 231.555 151.919 230.584 151.659L230.193 151.498L229.871 151.322C229.656 151.207 229.441 151.092 229.234 150.969C228.828 150.716 228.406 150.471 228.015 150.202C227.233 149.651 226.485 149.052 225.776 148.408C224.356 147.135 223.09 145.699 222.004 144.13C223.392 145.426 224.826 146.629 226.305 147.772C227.072 148.331 227.793 148.883 228.606 149.367C228.989 149.627 229.372 149.857 229.786 150.087L230.392 150.417L230.691 150.57L230.952 150.678C231.807 150.905 232.69 151.006 233.574 150.977C234.492 150.971 235.409 150.905 236.319 150.777C238.158 150.528 239.952 150.019 241.648 149.267Z" fill="#9A4A4D"/>
<path d="M206.485 116.964C205.004 119.046 202.877 120.581 200.434 121.331C197.992 122.081 195.37 122.004 192.976 121.112C192.724 121.004 192.441 120.996 192.184 121.088C191.926 121.181 191.713 121.367 191.588 121.611C191.533 121.735 191.504 121.869 191.502 122.004C191.5 122.14 191.526 122.274 191.577 122.4C191.629 122.525 191.705 122.639 191.802 122.734C191.899 122.829 192.014 122.903 192.14 122.953C194.983 124.052 198.113 124.163 201.027 123.267C203.941 122.371 206.468 120.521 208.203 118.015C208.28 117.904 208.335 117.779 208.362 117.647C208.389 117.515 208.389 117.379 208.362 117.246C208.335 117.114 208.281 116.989 208.203 116.879C208.126 116.768 208.026 116.675 207.912 116.604C207.673 116.471 207.392 116.435 207.127 116.502C206.862 116.568 206.633 116.734 206.485 116.964ZM186.19 101.967C186.108 102.073 186.049 102.194 186.016 102.324C185.984 102.454 185.98 102.59 186.004 102.721C186.028 102.853 186.079 102.978 186.155 103.089C186.231 103.199 186.329 103.293 186.443 103.363C186.686 103.497 186.969 103.538 187.24 103.479C187.511 103.419 187.751 103.264 187.915 103.041C189.387 101.164 191.403 99.7878 193.687 99.1015C195.971 98.4152 198.411 98.452 200.674 99.2068C200.933 99.3077 201.222 99.3086 201.482 99.2095C201.743 99.1104 201.957 98.9182 202.084 98.6701C202.14 98.5481 202.169 98.4158 202.17 98.2819C202.171 98.148 202.143 98.0153 202.09 97.8925C202.036 97.7697 201.958 97.6594 201.859 97.5689C201.76 97.4783 201.644 97.4094 201.517 97.3667C198.803 96.4086 195.855 96.3379 193.099 97.1648C190.343 97.9917 187.92 99.6735 186.182 101.967H186.19ZM206.485 116.964C205.004 119.046 202.877 120.581 200.434 121.331C197.992 122.081 195.37 122.004 192.976 121.112C192.724 121.004 192.441 120.996 192.184 121.088C191.926 121.181 191.713 121.367 191.588 121.611C191.533 121.735 191.504 121.869 191.502 122.004C191.5 122.14 191.526 122.274 191.577 122.4C191.629 122.525 191.705 122.639 191.802 122.734C191.899 122.829 192.014 122.903 192.14 122.953C194.983 124.052 198.113 124.163 201.027 123.267C203.941 122.371 206.468 120.521 208.203 118.015C208.28 117.904 208.335 117.779 208.362 117.647C208.389 117.515 208.389 117.379 208.362 117.246C208.335 117.114 208.281 116.989 208.203 116.879C208.126 116.768 208.026 116.675 207.912 116.604C207.673 116.471 207.392 116.435 207.127 116.502C206.862 116.568 206.633 116.734 206.485 116.964ZM186.19 101.967C186.108 102.073 186.049 102.194 186.016 102.324C185.984 102.454 185.98 102.59 186.004 102.721C186.028 102.853 186.079 102.978 186.155 103.089C186.231 103.199 186.329 103.293 186.443 103.363C186.686 103.497 186.969 103.538 187.24 103.479C187.511 103.419 187.751 103.264 187.915 103.041C189.387 101.164 191.403 99.7878 193.687 99.1015C195.971 98.4152 198.411 98.452 200.674 99.2068C200.933 99.3077 201.222 99.3086 201.482 99.2095C201.743 99.1104 201.957 98.9182 202.084 98.6701C202.14 98.5481 202.169 98.4158 202.17 98.2819C202.171 98.148 202.143 98.0153 202.09 97.8925C202.036 97.7697 201.958 97.6594 201.859 97.5689C201.76 97.4783 201.644 97.4094 201.517 97.3667C198.803 96.4086 195.855 96.3379 193.099 97.1648C190.343 97.9917 187.92 99.6735 186.182 101.967H186.19ZM206.485 116.964C205.004 119.046 202.877 120.581 200.434 121.331C197.992 122.081 195.37 122.004 192.976 121.112C192.724 121.004 192.441 120.996 192.184 121.088C191.926 121.181 191.713 121.367 191.588 121.611C191.533 121.735 191.504 121.869 191.502 122.004C191.5 122.14 191.526 122.274 191.577 122.4C191.629 122.525 191.705 122.639 191.802 122.734C191.899 122.829 192.014 122.903 192.14 122.953C194.983 124.052 198.113 124.163 201.027 123.267C203.941 122.371 206.468 120.521 208.203 118.015C208.28 117.904 208.335 117.779 208.362 117.647C208.389 117.515 208.389 117.379 208.362 117.246C208.335 117.114 208.281 116.989 208.203 116.879C208.126 116.768 208.026 116.675 207.912 116.604C207.673 116.471 207.392 116.435 207.127 116.502C206.862 116.568 206.633 116.734 206.485 116.964ZM186.19 101.967C186.108 102.073 186.049 102.194 186.016 102.324C185.984 102.454 185.98 102.59 186.004 102.721C186.028 102.853 186.079 102.978 186.155 103.089C186.231 103.199 186.329 103.293 186.443 103.363C186.686 103.497 186.969 103.538 187.24 103.479C187.511 103.419 187.751 103.264 187.915 103.041C189.387 101.164 191.403 99.7878 193.687 99.1015C195.971 98.4152 198.411 98.452 200.674 99.2068C200.933 99.3077 201.222 99.3086 201.482 99.2095C201.743 99.1104 201.957 98.9182 202.084 98.6701C202.14 98.5481 202.169 98.4158 202.17 98.2819C202.171 98.148 202.143 98.0153 202.09 97.8925C202.036 97.7697 201.958 97.6594 201.859 97.5689C201.76 97.4783 201.644 97.4094 201.517 97.3667C198.803 96.4086 195.855 96.3379 193.099 97.1648C190.343 97.9917 187.92 99.6735 186.182 101.967H186.19ZM180.992 98.7391C180.912 98.8478 180.855 98.9716 180.826 99.103C180.796 99.2344 180.794 99.3706 180.819 99.5029C180.844 99.6353 180.896 99.761 180.972 99.8723C181.048 99.9836 181.146 100.078 181.26 100.15C181.5 100.285 181.783 100.325 182.052 100.261C182.321 100.197 182.555 100.034 182.709 99.8049C184.982 96.6744 188.221 94.3781 191.927 93.2697C195.633 92.1613 199.601 92.3023 203.219 93.671C203.476 93.7762 203.763 93.781 204.023 93.6844C204.282 93.5878 204.497 93.3969 204.622 93.1497C204.678 93.027 204.708 92.8941 204.71 92.7593C204.712 92.6245 204.687 92.4907 204.635 92.3663C204.583 92.2418 204.506 92.1294 204.409 92.0359C204.312 91.9425 204.197 91.8701 204.07 91.8232C199.997 90.265 195.522 90.1017 191.346 91.3587C187.169 92.6157 183.528 95.2221 180.992 98.7698V98.7391ZM211.661 120.139C209.401 123.494 206.057 125.97 202.189 127.152C198.321 128.334 194.164 128.151 190.415 126.633C190.165 126.519 189.88 126.506 189.621 126.597C189.362 126.689 189.149 126.878 189.027 127.124C188.972 127.247 188.942 127.38 188.94 127.516C188.938 127.651 188.963 127.785 189.013 127.91C189.064 128.036 189.14 128.149 189.236 128.245C189.332 128.34 189.446 128.415 189.571 128.465C193.764 130.17 198.416 130.379 202.745 129.057C207.074 127.734 210.816 124.961 213.34 121.204C213.418 121.093 213.472 120.966 213.5 120.833C213.527 120.7 213.527 120.562 213.5 120.429C213.473 120.295 213.419 120.169 213.341 120.057C213.264 119.945 213.164 119.85 213.049 119.778C212.814 119.658 212.542 119.631 212.287 119.702C212.033 119.773 211.815 119.937 211.676 120.162L211.661 120.139ZM206.47 116.941C204.989 119.023 202.862 120.558 200.419 121.308C197.977 122.058 195.355 121.981 192.96 121.089C192.709 120.981 192.426 120.973 192.168 121.065C191.911 121.158 191.698 121.344 191.572 121.588C191.518 121.712 191.488 121.846 191.487 121.981C191.485 122.117 191.51 122.251 191.562 122.377C191.614 122.502 191.69 122.616 191.787 122.711C191.883 122.806 191.998 122.88 192.124 122.93C194.968 124.029 198.098 124.14 201.012 123.244C203.925 122.348 206.453 120.498 208.188 117.992C208.265 117.881 208.319 117.756 208.347 117.624C208.374 117.492 208.374 117.356 208.347 117.223C208.319 117.091 208.265 116.966 208.188 116.856C208.11 116.745 208.011 116.652 207.896 116.581C207.656 116.455 207.377 116.424 207.115 116.495C206.854 116.567 206.629 116.734 206.485 116.964L206.47 116.941ZM186.175 101.944C186.092 102.05 186.033 102.171 186.001 102.301C185.969 102.431 185.965 102.567 185.989 102.698C186.013 102.83 186.064 102.955 186.14 103.066C186.215 103.176 186.313 103.27 186.428 103.34C186.67 103.474 186.953 103.515 187.224 103.456C187.495 103.396 187.735 103.241 187.9 103.018C189.371 101.141 191.387 99.7648 193.671 99.0785C195.955 98.3922 198.396 98.429 200.658 99.1838C200.918 99.2847 201.206 99.2856 201.467 99.1865C201.727 99.0874 201.942 98.8952 202.069 98.6471C202.124 98.5251 202.153 98.3928 202.154 98.2589C202.155 98.125 202.128 97.9923 202.075 97.8695C202.021 97.7467 201.943 97.6364 201.844 97.5459C201.745 97.4553 201.629 97.3864 201.502 97.3437C198.788 96.3856 195.84 96.3149 193.084 97.1418C190.327 97.9687 187.905 99.6505 186.167 101.944H186.175ZM206.47 116.941C204.989 119.023 202.862 120.558 200.419 121.308C197.977 122.058 195.355 121.981 192.96 121.089C192.709 120.981 192.426 120.973 192.168 121.065C191.911 121.158 191.698 121.344 191.572 121.588C191.518 121.712 191.488 121.846 191.487 121.981C191.485 122.117 191.51 122.251 191.562 122.377C191.614 122.502 191.69 122.616 191.787 122.711C191.883 122.806 191.998 122.88 192.124 122.93C194.968 124.029 198.098 124.14 201.012 123.244C203.925 122.348 206.453 120.498 208.188 117.992C208.265 117.881 208.319 117.756 208.347 117.624C208.374 117.492 208.374 117.356 208.347 117.223C208.319 117.091 208.265 116.966 208.188 116.856C208.11 116.745 208.011 116.652 207.896 116.581C207.656 116.455 207.377 116.424 207.115 116.495C206.854 116.567 206.629 116.734 206.485 116.964L206.47 116.941ZM186.175 101.944C186.092 102.05 186.033 102.171 186.001 102.301C185.969 102.431 185.965 102.567 185.989 102.698C186.013 102.83 186.064 102.955 186.14 103.066C186.215 103.176 186.313 103.27 186.428 103.34C186.67 103.474 186.953 103.515 187.224 103.456C187.495 103.396 187.735 103.241 187.9 103.018C189.371 101.141 191.387 99.7648 193.671 99.0785C195.955 98.3922 198.396 98.429 200.658 99.1838C200.918 99.2847 201.206 99.2856 201.467 99.1865C201.727 99.0874 201.942 98.8952 202.069 98.6471C202.124 98.5251 202.153 98.3928 202.154 98.2589C202.155 98.125 202.128 97.9923 202.075 97.8695C202.021 97.7467 201.943 97.6364 201.844 97.5459C201.745 97.4553 201.629 97.3864 201.502 97.3437C198.788 96.3856 195.84 96.3149 193.084 97.1418C190.327 97.9687 187.905 99.6505 186.167 101.944H186.175ZM206.47 116.941C204.989 119.023 202.862 120.558 200.419 121.308C197.977 122.058 195.355 121.981 192.96 121.089C192.709 120.981 192.426 120.973 192.168 121.065C191.911 121.158 191.698 121.344 191.572 121.588C191.518 121.712 191.488 121.846 191.487 121.981C191.485 122.117 191.51 122.251 191.562 122.377C191.614 122.502 191.69 122.616 191.787 122.711C191.883 122.806 191.998 122.88 192.124 122.93C194.968 124.029 198.098 124.14 201.012 123.244C203.925 122.348 206.453 120.498 208.188 117.992C208.265 117.881 208.319 117.756 208.347 117.624C208.374 117.492 208.374 117.356 208.347 117.223C208.319 117.091 208.265 116.966 208.188 116.856C208.11 116.745 208.011 116.652 207.896 116.581C207.656 116.455 207.377 116.424 207.115 116.495C206.854 116.567 206.629 116.734 206.485 116.964L206.47 116.941ZM186.175 101.944C186.092 102.05 186.033 102.171 186.001 102.301C185.969 102.431 185.965 102.567 185.989 102.698C186.013 102.83 186.064 102.955 186.14 103.066C186.215 103.176 186.313 103.27 186.428 103.34C186.67 103.474 186.953 103.515 187.224 103.456C187.495 103.396 187.735 103.241 187.9 103.018C189.371 101.141 191.387 99.7648 193.671 99.0785C195.955 98.3922 198.396 98.429 200.658 99.1838C200.918 99.2847 201.206 99.2856 201.467 99.1865C201.727 99.0874 201.942 98.8952 202.069 98.6471C202.124 98.5251 202.153 98.3928 202.154 98.2589C202.155 98.125 202.128 97.9923 202.075 97.8695C202.021 97.7467 201.943 97.6364 201.844 97.5459C201.745 97.4553 201.629 97.3864 201.502 97.3437C198.788 96.3856 195.84 96.3149 193.084 97.1418C190.327 97.9687 187.905 99.6505 186.167 101.944H186.175ZM206.47 116.941C204.989 119.023 202.862 120.558 200.419 121.308C197.977 122.058 195.355 121.981 192.96 121.089C192.709 120.981 192.426 120.973 192.168 121.065C191.911 121.158 191.698 121.344 191.572 121.588C191.518 121.712 191.488 121.846 191.487 121.981C191.485 122.117 191.51 122.251 191.562 122.377C191.614 122.502 191.69 122.616 191.787 122.711C191.883 122.806 191.998 122.88 192.124 122.93C194.968 124.029 198.098 124.14 201.012 123.244C203.925 122.348 206.453 120.498 208.188 117.992C208.265 117.881 208.319 117.756 208.347 117.624C208.374 117.492 208.374 117.356 208.347 117.223C208.319 117.091 208.265 116.966 208.188 116.856C208.11 116.745 208.011 116.652 207.896 116.581C207.656 116.455 207.377 116.424 207.115 116.495C206.854 116.567 206.629 116.734 206.485 116.964L206.47 116.941ZM186.175 101.944C186.092 102.05 186.033 102.171 186.001 102.301C185.969 102.431 185.965 102.567 185.989 102.698C186.013 102.83 186.064 102.955 186.14 103.066C186.215 103.176 186.313 103.27 186.428 103.34C186.67 103.474 186.953 103.515 187.224 103.456C187.495 103.396 187.735 103.241 187.9 103.018C189.371 101.141 191.387 99.7648 193.671 99.0785C195.955 98.3922 198.396 98.429 200.658 99.1838C200.918 99.2847 201.206 99.2856 201.467 99.1865C201.727 99.0874 201.942 98.8952 202.069 98.6471C202.124 98.5251 202.153 98.3928 202.154 98.2589C202.155 98.125 202.128 97.9923 202.075 97.8695C202.021 97.7467 201.943 97.6364 201.844 97.5459C201.745 97.4553 201.629 97.3864 201.502 97.3437C198.788 96.3856 195.84 96.3149 193.084 97.1418C190.327 97.9687 187.905 99.6505 186.167 101.944H186.175ZM180.992 98.7391C180.912 98.8478 180.855 98.9716 180.826 99.103C180.796 99.2344 180.794 99.3706 180.819 99.5029C180.844 99.6353 180.896 99.761 180.972 99.8723C181.048 99.9836 181.146 100.078 181.26 100.15C181.5 100.285 181.783 100.325 182.052 100.261C182.321 100.197 182.555 100.034 182.709 99.8049C184.982 96.6744 188.221 94.3781 191.927 93.2697C195.633 92.1613 199.601 92.3023 203.219 93.671C203.476 93.7762 203.763 93.781 204.023 93.6844C204.282 93.5878 204.497 93.3969 204.622 93.1497C204.678 93.027 204.708 92.8941 204.71 92.7593C204.712 92.6245 204.687 92.4907 204.635 92.3663C204.583 92.2418 204.506 92.1294 204.409 92.0359C204.312 91.9425 204.197 91.8701 204.07 91.8232C199.997 90.265 195.522 90.1017 191.346 91.3587C187.169 92.6157 183.528 95.2221 180.992 98.7698V98.7391ZM211.661 120.139C209.401 123.494 206.057 125.97 202.189 127.152C198.321 128.334 194.164 128.151 190.415 126.633C190.165 126.519 189.88 126.506 189.621 126.597C189.362 126.689 189.149 126.878 189.027 127.124C188.972 127.247 188.942 127.38 188.94 127.516C188.938 127.651 188.963 127.785 189.013 127.91C189.064 128.036 189.14 128.149 189.236 128.245C189.332 128.34 189.446 128.415 189.571 128.465C193.764 130.17 198.416 130.379 202.745 129.057C207.074 127.734 210.816 124.961 213.34 121.204C213.418 121.093 213.472 120.966 213.5 120.833C213.527 120.7 213.527 120.562 213.5 120.429C213.473 120.295 213.419 120.169 213.341 120.057C213.264 119.945 213.164 119.85 213.049 119.778C212.814 119.658 212.542 119.631 212.287 119.702C212.033 119.773 211.815 119.937 211.676 120.162L211.661 120.139ZM206.47 116.941C204.989 119.023 202.862 120.558 200.419 121.308C197.977 122.058 195.355 121.981 192.96 121.089C192.709 120.981 192.426 120.973 192.168 121.065C191.911 121.158 191.698 121.344 191.572 121.588C191.518 121.712 191.488 121.846 191.487 121.981C191.485 122.117 191.51 122.251 191.562 122.377C191.614 122.502 191.69 122.616 191.787 122.711C191.883 122.806 191.998 122.88 192.124 122.93C194.968 124.029 198.098 124.14 201.012 123.244C203.925 122.348 206.453 120.498 208.188 117.992C208.265 117.881 208.319 117.756 208.347 117.624C208.374 117.492 208.374 117.356 208.347 117.223C208.319 117.091 208.265 116.966 208.188 116.856C208.11 116.745 208.011 116.652 207.896 116.581C207.656 116.455 207.377 116.424 207.115 116.495C206.854 116.567 206.629 116.734 206.485 116.964L206.47 116.941ZM186.175 101.944C186.092 102.05 186.033 102.171 186.001 102.301C185.969 102.431 185.965 102.567 185.989 102.698C186.013 102.83 186.064 102.955 186.14 103.066C186.215 103.176 186.313 103.27 186.428 103.34C186.67 103.474 186.953 103.515 187.224 103.456C187.495 103.396 187.735 103.241 187.9 103.018C189.371 101.141 191.387 99.7648 193.671 99.0785C195.955 98.3922 198.396 98.429 200.658 99.1838C200.918 99.2847 201.206 99.2856 201.467 99.1865C201.727 99.0874 201.942 98.8952 202.069 98.6471C202.124 98.5251 202.153 98.3928 202.154 98.2589C202.155 98.125 202.128 97.9923 202.075 97.8695C202.021 97.7467 201.943 97.6364 201.844 97.5459C201.745 97.4553 201.629 97.3864 201.502 97.3437C198.788 96.3856 195.84 96.3149 193.084 97.1418C190.327 97.9687 187.905 99.6505 186.167 101.944H186.175ZM216.53 123.144C213.531 127.679 209.046 131.027 203.845 132.611C198.645 134.195 193.055 133.917 188.038 131.824C187.788 131.709 187.504 131.697 187.245 131.788C186.986 131.88 186.772 132.068 186.65 132.314C186.596 132.439 186.567 132.572 186.565 132.708C186.563 132.843 186.588 132.978 186.639 133.103C186.69 133.229 186.765 133.343 186.86 133.439C186.956 133.536 187.069 133.612 187.194 133.664C192.661 135.956 198.757 136.263 204.426 134.534C210.096 132.805 214.982 129.147 218.239 124.195C218.316 124.083 218.369 123.958 218.396 123.825C218.423 123.692 218.423 123.556 218.396 123.423C218.368 123.291 218.315 123.165 218.238 123.054C218.161 122.943 218.062 122.848 217.948 122.776C217.709 122.647 217.429 122.616 217.168 122.689C216.906 122.762 216.683 122.933 216.545 123.167L216.53 123.144ZM205.588 88.4266C205.842 88.5363 206.127 88.545 206.387 88.4509C206.646 88.3568 206.86 88.1671 206.984 87.9205C207.037 87.797 207.066 87.6639 207.067 87.5292C207.068 87.3945 207.042 87.2609 206.991 87.1364C206.939 87.012 206.863 86.8991 206.767 86.8047C206.671 86.7102 206.557 86.6359 206.432 86.5864C201.088 84.4448 195.175 84.1837 189.663 85.8458C184.151 87.508 179.369 90.9947 176.1 95.7335C176.022 95.8435 175.967 95.9682 175.939 96.1001C175.911 96.2319 175.911 96.368 175.937 96.5001C175.964 96.6322 176.017 96.7575 176.094 96.8683C176.171 96.9791 176.269 97.073 176.383 97.1443C176.624 97.2787 176.906 97.317 177.174 97.2516C177.441 97.1862 177.674 97.0218 177.825 96.7916C180.833 92.473 185.212 89.297 190.251 87.7786C195.291 86.2603 200.695 86.4886 205.588 88.4266ZM206.47 116.941C204.989 119.023 202.862 120.558 200.419 121.308C197.977 122.058 195.355 121.981 192.96 121.089C192.709 120.981 192.426 120.973 192.168 121.065C191.911 121.158 191.698 121.344 191.572 121.588C191.518 121.712 191.488 121.846 191.487 121.981C191.485 122.117 191.51 122.251 191.562 122.377C191.614 122.502 191.69 122.616 191.787 122.711C191.883 122.806 191.998 122.88 192.124 122.93C194.968 124.029 198.098 124.14 201.012 123.244C203.925 122.348 206.453 120.498 208.188 117.992C208.265 117.881 208.319 117.756 208.347 117.624C208.374 117.492 208.374 117.356 208.347 117.223C208.319 117.091 208.265 116.966 208.188 116.856C208.11 116.745 208.011 116.652 207.896 116.581C207.656 116.455 207.377 116.424 207.115 116.495C206.854 116.567 206.629 116.734 206.485 116.964L206.47 116.941ZM186.175 101.944C186.092 102.05 186.033 102.171 186.001 102.301C185.969 102.431 185.965 102.567 185.989 102.698C186.013 102.83 186.064 102.955 186.14 103.066C186.215 103.176 186.313 103.27 186.428 103.34C186.67 103.474 186.953 103.515 187.224 103.456C187.495 103.396 187.735 103.241 187.9 103.018C189.371 101.141 191.387 99.7648 193.671 99.0785C195.955 98.3922 198.396 98.429 200.658 99.1838C200.918 99.2847 201.206 99.2856 201.467 99.1865C201.727 99.0874 201.942 98.8952 202.069 98.6471C202.124 98.5251 202.153 98.3928 202.154 98.2589C202.155 98.125 202.128 97.9923 202.075 97.8695C202.021 97.7467 201.943 97.6364 201.844 97.5459C201.745 97.4553 201.629 97.3864 201.502 97.3437C198.788 96.3856 195.84 96.3149 193.084 97.1418C190.327 97.9687 187.905 99.6505 186.167 101.944H186.175ZM206.47 116.941C204.989 119.023 202.862 120.558 200.419 121.308C197.977 122.058 195.355 121.981 192.96 121.089C192.709 120.981 192.426 120.973 192.168 121.065C191.911 121.158 191.698 121.344 191.572 121.588C191.518 121.712 191.488 121.846 191.487 121.981C191.485 122.117 191.51 122.251 191.562 122.377C191.614 122.502 191.69 122.616 191.787 122.711C191.883 122.806 191.998 122.88 192.124 122.93C194.968 124.029 198.098 124.14 201.012 123.244C203.925 122.348 206.453 120.498 208.188 117.992C208.265 117.881 208.319 117.756 208.347 117.624C208.374 117.492 208.374 117.356 208.347 117.223C208.319 117.091 208.265 116.966 208.188 116.856C208.11 116.745 208.011 116.652 207.896 116.581C207.656 116.455 207.377 116.424 207.115 116.495C206.854 116.567 206.629 116.734 206.485 116.964L206.47 116.941ZM186.175 101.944C186.092 102.05 186.033 102.171 186.001 102.301C185.969 102.431 185.965 102.567 185.989 102.698C186.013 102.83 186.064 102.955 186.14 103.066C186.215 103.176 186.313 103.27 186.428 103.34C186.67 103.474 186.953 103.515 187.224 103.456C187.495 103.396 187.735 103.241 187.9 103.018C189.371 101.141 191.387 99.7648 193.671 99.0785C195.955 98.3922 198.396 98.429 200.658 99.1838C200.918 99.2847 201.206 99.2856 201.467 99.1865C201.727 99.0874 201.942 98.8952 202.069 98.6471C202.124 98.5251 202.153 98.3928 202.154 98.2589C202.155 98.125 202.128 97.9923 202.075 97.8695C202.021 97.7467 201.943 97.6364 201.844 97.5459C201.745 97.4553 201.629 97.3864 201.502 97.3437C198.788 96.3856 195.84 96.3149 193.084 97.1418C190.327 97.9687 187.905 99.6505 186.167 101.944H186.175ZM180.992 98.7391C180.912 98.8478 180.855 98.9716 180.826 99.103C180.796 99.2344 180.794 99.3706 180.819 99.5029C180.844 99.6353 180.896 99.761 180.972 99.8723C181.048 99.9836 181.146 100.078 181.26 100.15C181.5 100.285 181.783 100.325 182.052 100.261C182.321 100.197 182.555 100.034 182.709 99.8049C184.982 96.6744 188.221 94.3781 191.927 93.2697C195.633 92.1613 199.601 92.3023 203.219 93.671C203.476 93.7762 203.763 93.781 204.023 93.6844C204.282 93.5878 204.497 93.3969 204.622 93.1497C204.678 93.027 204.708 92.8941 204.71 92.7593C204.712 92.6245 204.687 92.4907 204.635 92.3663C204.583 92.2418 204.506 92.1294 204.409 92.0359C204.312 91.9425 204.197 91.8701 204.07 91.8232C199.997 90.265 195.522 90.1017 191.346 91.3587C187.169 92.6157 183.528 95.2221 180.992 98.7698V98.7391ZM211.661 120.139C209.401 123.494 206.057 125.97 202.189 127.152C198.321 128.334 194.164 128.151 190.415 126.633C190.165 126.519 189.88 126.506 189.621 126.597C189.362 126.689 189.149 126.878 189.027 127.124C188.972 127.247 188.942 127.38 188.94 127.516C188.938 127.651 188.963 127.785 189.013 127.91C189.064 128.036 189.14 128.149 189.236 128.245C189.332 128.34 189.446 128.415 189.571 128.465C193.764 130.17 198.416 130.379 202.745 129.057C207.074 127.734 210.816 124.961 213.34 121.204C213.418 121.093 213.472 120.966 213.5 120.833C213.527 120.7 213.527 120.562 213.5 120.429C213.473 120.295 213.419 120.169 213.341 120.057C213.264 119.945 213.164 119.85 213.049 119.778C212.814 119.658 212.542 119.631 212.287 119.702C212.033 119.773 211.815 119.937 211.676 120.162L211.661 120.139ZM206.47 116.941C204.989 119.023 202.862 120.558 200.419 121.308C197.977 122.058 195.355 121.981 192.96 121.089C192.709 120.981 192.426 120.973 192.168 121.065C191.911 121.158 191.698 121.344 191.572 121.588C191.518 121.712 191.488 121.846 191.487 121.981C191.485 122.117 191.51 122.251 191.562 122.377C191.614 122.502 191.69 122.616 191.787 122.711C191.883 122.806 191.998 122.88 192.124 122.93C194.968 124.029 198.098 124.14 201.012 123.244C203.925 122.348 206.453 120.498 208.188 117.992C208.265 117.881 208.319 117.756 208.347 117.624C208.374 117.492 208.374 117.356 208.347 117.223C208.319 117.091 208.265 116.966 208.188 116.856C208.11 116.745 208.011 116.652 207.896 116.581C207.656 116.455 207.377 116.424 207.115 116.495C206.854 116.567 206.629 116.734 206.485 116.964L206.47 116.941ZM186.175 101.944C186.092 102.05 186.033 102.171 186.001 102.301C185.969 102.431 185.965 102.567 185.989 102.698C186.013 102.83 186.064 102.955 186.14 103.066C186.215 103.176 186.313 103.27 186.428 103.34C186.67 103.474 186.953 103.515 187.224 103.456C187.495 103.396 187.735 103.241 187.9 103.018C189.371 101.141 191.387 99.7648 193.671 99.0785C195.955 98.3922 198.396 98.429 200.658 99.1838C200.918 99.2847 201.206 99.2856 201.467 99.1865C201.727 99.0874 201.942 98.8952 202.069 98.6471C202.124 98.5251 202.153 98.3928 202.154 98.2589C202.155 98.125 202.128 97.9923 202.075 97.8695C202.021 97.7467 201.943 97.6364 201.844 97.5459C201.745 97.4553 201.629 97.3864 201.502 97.3437C198.788 96.3856 195.84 96.3149 193.084 97.1418C190.327 97.9687 187.905 99.6505 186.167 101.944H186.175Z" fill="#E0E0E0"/>
<path d="M137.832 137.344L60.5761 123.152C62.815 146.637 67.2007 155.684 69.2862 168.888C70.168 174.554 97.387 173.273 105.744 170.482C132.956 161.381 137.947 150.647 137.947 150.647L137.832 137.344Z" fill="#FDDFE0"/>
<path d="M66.1809 81.4033C70.5973 86.157 71.5481 93.0883 71.8394 99.9199C72.1308 106.751 70.6587 129.516 59.242 132.59L61.1588 141.73C76.5472 146.89 111.395 154.711 137.832 137.344C153.328 122.776 143.966 106.192 137.571 99.9429C131.177 93.694 128.486 87.9435 120.358 82.3617L113.787 81.0123C113.787 81.0123 88.7612 81.3803 76.1025 79.9695L66.1809 81.4033Z" fill="#37474F"/>
<path d="M66.181 81.4033C49.2362 84.8459 44.9655 99.4369 44.0607 125.03C43.156 150.624 41.4538 169.815 41.4538 169.815C41.1165 173.649 40.6871 177.483 40.4417 181.316C39.8974 189.045 39.537 196.804 38.5939 204.495C38.2719 207.109 38.0572 210.544 36.2937 212.699C35.0718 214.234 33.5411 215.496 31.8007 216.402C29.9682 217.33 29.4314 217.337 25.6668 218.081C23.5455 218.329 21.4594 218.818 19.4486 219.538C18.2601 220.013 17.1484 220.803 15.8449 220.949C14.5415 221.094 13.3761 220.88 12.1416 221.34C10.8919 221.828 9.7678 222.59 8.85233 223.571C7.49511 224.837 5.97039 225.91 4.32095 226.761C0.487282 226.692 -0.402129 228.654 1.12367 230.403C2.89482 232.442 6.39879 233.117 8.92134 233.324C16.167 233.922 20.3533 234.175 27.5376 233.025C29.9452 232.641 33.4338 231.614 35.4426 233.607C37.4515 235.601 33.3111 236.207 32.0843 236.521C29.5158 237.18 28.6494 237.479 26.8782 238.699C22.9296 241.413 23.6273 246.811 28.5957 244.763C31.908 243.391 33.1348 243.82 36.6234 243.169C40.112 242.517 44.0837 241.735 46.8286 239.389C48 238.284 49.0939 237.101 50.1026 235.846C51.4597 234.313 53.6142 232.948 54.4423 231.031C55.52 228.235 56.0006 225.245 55.8531 222.252C55.7675 220.612 55.8964 218.967 56.2364 217.36C56.8652 214.715 56.8268 212.139 57.4095 209.478C57.9922 206.818 58.667 204.111 59.3417 201.412C60.7985 195.654 62.3626 189.911 63.7657 184.153C64.8775 179.599 66.0659 174.952 66.3573 170.245C67.0474 159.886 70.4056 128.933 70.4056 128.933C70.4056 128.933 77.981 93.1267 66.181 81.4033Z" fill="#FDDFE0"/>
<path d="M59.3264 201.389C59.9704 198.399 60.6835 195.416 61.3582 192.426L63.459 183.494C64.1261 180.504 64.8545 177.536 65.3222 174.538C65.7899 171.54 65.8743 168.497 66.1579 165.43C66.733 159.296 67.331 153.223 68.0364 147.143C68.7418 141.063 69.4856 134.975 70.3366 128.91L69.6236 138.111L68.8568 147.258C68.3201 153.392 67.7067 159.457 67.216 165.552L66.8327 170.153C66.7253 171.686 66.5336 173.22 66.2806 174.753C65.7592 177.82 65.0462 180.787 64.2564 183.747C62.6923 189.605 61.0592 195.508 59.3264 201.389Z" fill="#9A4A4D"/>
<path d="M140.293 20.149C140.163 11.9603 131.093 10.4422 128.67 10.4192C125.327 10.3808 121.708 8.11898 119.845 5.2974C118.638 3.62389 117.008 2.30201 115.121 1.46783C113.235 0.63365 111.16 0.317292 109.11 0.551321C102.432 1.40239 103.582 4.30065 97.8777 5.44308C92.7866 6.46283 89.3746 4.40032 84.3909 8.05764C81.4006 10.2582 79.6371 14.4752 79.7291 18.2245C76.1331 19.85 70.1066 31.5273 75.2131 45.8269C77.8353 53.1875 81.6383 56.9522 86.162 63.3544L91.2531 64.0138C93.469 59.9118 97.6937 61.2766 101.796 60.8012C104.472 59.9885 106.281 57.3356 108.957 56.5152C111.633 55.6948 114.585 56.9369 117.391 56.8065C119.592 56.7068 121.938 55.7024 124.108 56.5612C128.953 59.2907 137.219 55.7944 137.403 49.8599C137.403 48.0504 136.636 46.1873 137.242 44.4928C138.008 42.2386 140.623 41.2802 142.187 39.5014C143.074 38.4906 143.61 37.2194 143.714 35.8785C143.817 34.5376 143.484 33.1992 142.762 32.064C139.642 27.6323 140.362 24.8031 140.293 20.149Z" fill="#263238"/>
<path d="M113.803 81.0123C113.803 81.0123 112.959 80.8129 111.188 80.3529C108.957 79.7855 109.655 78.4514 109.701 76.1972L109.931 72.7086C115.237 73.5673 118.165 72.9232 120.849 71.4128C125.357 68.8749 129.513 64.8879 131.1 50.4733C131.744 44.6538 130.387 41.7249 130.633 40.4291C132.112 32.7158 131.683 31.2283 130.38 27.0113C127.934 20.195 120.021 16.8214 115.62 23.2466C106.48 14.0458 93.9597 23.0319 92.8709 35.085C92.9936 45.1522 89.8807 45.2595 87.9408 45.0525C85.8707 38.5199 79.4685 37.8069 76.2712 41.4489C73.3806 44.7535 72.7442 50.32 76.8079 56.0168C80.7566 61.5296 86.254 58.9994 86.4381 58.0026C86.4381 58.0026 85.5026 71.4434 85.265 74.104C85.0273 76.7646 84.5519 78.3057 81.1016 78.9804L76.1485 79.9542C76.1485 79.9542 76.3708 80.3299 76.8156 80.9586C77.8353 82.4921 80.0665 85.904 83.8312 91.6929C94.5654 97.336 107.263 104.927 114.623 110.677C118.119 104.398 121.945 93.9164 121.945 93.9164C119.532 89.4324 116.811 85.1207 113.803 81.0123Z" fill="#FDDFE0"/>
<path d="M105.79 55.1044L113.097 58.0793C112.923 58.5702 112.651 59.0208 112.299 59.4043C111.946 59.7877 111.52 60.0961 111.045 60.3108C110.57 60.5256 110.057 60.6424 109.536 60.6542C109.016 60.666 108.498 60.5725 108.014 60.3795C107.034 59.9573 106.255 59.1725 105.841 58.1893C105.426 57.206 105.408 56.1006 105.79 55.1044Z" fill="#9A4A4D"/>
<path d="M106.128 56.8755C107.13 56.929 108.082 57.3279 108.823 58.0045C109.564 58.6811 110.047 59.5935 110.191 60.5865C109.462 60.7417 108.703 60.6722 108.014 60.3872C107.319 60.0944 106.72 59.6134 106.284 58.9984C105.847 58.3834 105.592 57.6588 105.545 56.9062C105.738 56.8843 105.933 56.8741 106.128 56.8755Z" fill="#FFA8A7"/>
<path d="M129.636 34.1189L124.031 31.8187C124.163 31.4488 124.368 31.1094 124.634 30.821C124.9 30.5326 125.222 30.3011 125.581 30.1406C125.939 29.9801 126.326 29.8939 126.719 29.8871C127.111 29.8803 127.501 29.9532 127.865 30.1012C128.618 30.4167 129.222 31.0093 129.552 31.7568C129.881 32.5043 129.911 33.3498 129.636 34.1189Z" fill="#263238"/>
<path d="M101.313 32.2864L107.201 30.5383C107.107 30.1494 106.934 29.7839 106.694 29.464C106.453 29.1442 106.15 28.8767 105.803 28.678C105.455 28.4792 105.071 28.3533 104.674 28.308C104.276 28.2627 103.873 28.2989 103.49 28.4144C102.701 28.6583 102.035 29.1959 101.629 29.9163C101.224 30.6366 101.111 31.4849 101.313 32.2864Z" fill="#263238"/>
<path d="M122.566 42.4839C122.47 43.1362 122.632 43.8002 123.017 44.3354C123.402 44.8707 123.98 45.2351 124.629 45.3515C124.944 45.4131 125.268 45.4107 125.581 45.3442C125.895 45.2777 126.192 45.1486 126.455 44.9647C126.718 44.7807 126.941 44.5456 127.11 44.2735C127.28 44.0014 127.393 43.6979 127.443 43.381C127.537 42.7282 127.375 42.0642 126.99 41.5282C126.606 40.9922 126.029 40.6258 125.38 40.5058C125.065 40.4442 124.741 40.447 124.426 40.5139C124.112 40.5809 123.815 40.7106 123.552 40.8954C123.289 41.0801 123.066 41.3161 122.897 41.589C122.728 41.862 122.615 42.1664 122.566 42.4839Z" fill="#263238"/>
<path d="M104.533 40.9121C104.437 41.5772 104.601 42.2538 104.993 42.7999C105.385 43.346 105.973 43.7191 106.634 43.8411C106.956 43.9038 107.288 43.901 107.609 43.8329C107.93 43.7648 108.234 43.6327 108.503 43.4445C108.772 43.2563 109 43.0159 109.175 42.7376C109.349 42.4593 109.465 42.1488 109.517 41.8245C109.6 41.1647 109.429 40.4978 109.037 39.9604C108.645 39.4231 108.062 39.0558 107.408 38.934C107.089 38.8699 106.76 38.8705 106.441 38.9359C106.123 39.0013 105.82 39.13 105.552 39.3145C105.284 39.499 105.055 39.7355 104.88 40.0099C104.705 40.2844 104.587 40.5912 104.533 40.9121Z" fill="#263238"/>
<path d="M109.931 72.7086C100.423 70.9911 91.4371 67.6328 89.5586 61.5909C89.5349 63.3214 89.9675 65.0277 90.8128 66.5379C91.6581 68.0481 92.8863 69.309 94.3737 70.1937C98.9917 73.1582 104.247 74.9845 109.708 75.5225L109.931 72.7086Z" fill="#9A4A4D"/>
<path d="M123.648 50.8873L115.382 54.0616L114.961 38.5889L123.648 50.8873Z" fill="#9A4A4D"/>
<path d="M250.166 293.604L231.91 271.254L252.413 255.812C260.509 270.457 268.422 284.465 273.812 290.024C273.812 290.024 269.12 302.606 261.821 302.859C254.521 303.112 251.439 297.768 250.166 293.604Z" fill="#FDDFE0"/>
<path d="M253.961 306.57C254.5 307.982 255.319 309.27 256.369 310.357C257.396 311.554 263.592 312.941 266.206 314.528C268.821 316.116 269.419 316.944 272.608 319.259C276.143 321.835 278.995 325.592 289.983 325.194C301.123 324.795 307.173 321.069 310.799 317.526C312.048 316.164 312.951 314.52 313.429 312.734C313.429 312.734 312.831 306.6 309.312 306.562C305.793 306.524 253.961 306.57 253.961 306.57Z" fill="#263238"/>
<path d="M271.704 285.155C272.708 285.592 273.92 287.493 274.61 288.314C276.91 291.089 280.567 293.052 283.772 294.67C298.923 302.299 308.806 298.128 312.486 308.395C313.383 311.324 311.551 316.392 299.298 321.544C293.042 324.174 281.794 323.599 277.408 320.724C273.022 317.848 270.508 314.85 267.05 312.834C263.592 310.817 256.584 309.476 253.962 306.57C252.428 304.868 251.661 302.567 251.01 300.398C250.488 298.611 249.1 292.5 249.1 292.5C252.229 296.372 255.533 295.138 257.626 295.636C259.72 296.135 261.897 297.492 263.944 298.473C261.966 295.782 259.98 294.371 260.962 292.286C261.874 290.338 261.905 289.916 265.693 287.578C269.48 285.239 270.814 284.772 271.704 285.155Z" fill="#619937"/>
<path opacity="0.4" d="M271.704 285.155C272.708 285.592 273.92 287.493 274.61 288.314C276.91 291.089 280.567 293.052 283.772 294.67C298.923 302.299 308.806 298.128 312.486 308.395C313.383 311.324 311.551 316.392 299.298 321.544C293.042 324.174 281.794 323.599 277.408 320.724C273.022 317.848 270.508 314.85 267.05 312.834C263.592 310.817 256.584 309.476 253.962 306.57C252.428 304.868 251.661 302.567 251.01 300.398C250.488 298.611 249.1 292.5 249.1 292.5C252.229 296.372 255.533 295.138 257.626 295.636C259.72 296.135 261.897 297.492 263.944 298.473C261.966 295.782 259.98 294.371 260.962 292.286C261.874 290.338 261.905 289.916 265.693 287.578C269.48 285.239 270.814 284.772 271.704 285.155Z" fill="black"/>
<path opacity="0.3" d="M299.298 321.544C293.042 324.174 281.794 323.599 277.408 320.724C275.967 319.762 274.58 318.723 273.252 317.611C273.559 317.764 273.866 317.948 274.127 318.071C274.725 318.339 275.33 318.592 275.936 318.837C278.282 319.727 280.912 320.425 283.435 320.018C285.681 319.65 291.263 318.914 292.106 316.238C292.582 314.705 291.439 313.033 289.891 311.983C289.231 311.538 287.399 310.603 287.399 310.603C288.643 308.28 290.253 306.172 292.168 304.362C295.817 301.141 296.354 301.44 296.354 301.44C297.418 301.983 298.567 302.34 299.751 302.498C301.052 302.612 302.363 302.431 303.584 301.969C303.974 301.761 304.334 301.503 304.658 301.203C308.315 302.368 310.96 304.124 312.502 308.433C313.414 311.324 311.551 316.392 299.298 321.544Z" fill="black"/>
<path d="M283.772 294.67C287.763 296.653 291.977 298.154 296.323 299.14C300.034 301.732 299.559 302.974 297.389 302.59C295.219 302.207 287.138 296.963 280.414 292.868C281.533 293.489 282.676 294.118 283.772 294.67Z" fill="#37474F"/>
<path d="M255.395 297.461C253.333 297.162 251.707 297.177 249.99 296.089C248.893 295.445 248.456 292.807 248.571 291.649L250.281 293.727C253.31 295.329 255.533 295.138 257.626 295.636C259.72 296.135 261.897 297.492 263.944 298.473C270.469 301.992 272.378 304.116 278.765 306.669C285.152 309.223 289.914 309.1 290.036 310.135C290.159 311.17 288.902 312.842 283.534 311.753C278.167 310.664 269.94 305.933 266.183 303.158C262.426 300.382 258.301 297.89 255.395 297.461Z" fill="#37474F"/>
<path d="M287.728 311.17C287.847 311.106 287.944 311.007 288.004 310.886C290.205 306.524 292.037 304.377 297.014 302.031C297.094 301.993 297.166 301.94 297.226 301.874C297.286 301.808 297.333 301.731 297.363 301.648C297.393 301.564 297.407 301.475 297.403 301.386C297.399 301.298 297.377 301.21 297.339 301.13C297.302 301.049 297.248 300.977 297.183 300.917C297.117 300.857 297.04 300.811 296.956 300.78C296.873 300.75 296.784 300.737 296.695 300.741C296.606 300.745 296.519 300.766 296.438 300.804C291.179 303.28 289.132 305.634 286.793 310.273C286.752 310.353 286.727 310.439 286.72 310.528C286.713 310.617 286.724 310.707 286.752 310.792C286.78 310.877 286.824 310.955 286.882 311.023C286.941 311.09 287.012 311.146 287.092 311.185C287.191 311.236 287.301 311.261 287.412 311.259C287.523 311.256 287.632 311.226 287.728 311.17Z" fill="#EBEBEB"/>
<path d="M282.469 308.824C282.584 308.755 282.679 308.657 282.745 308.54C285.145 304.063 287.215 301.778 292.467 299.286C292.552 299.248 292.628 299.193 292.691 299.125C292.754 299.057 292.803 298.977 292.834 298.89C292.866 298.803 292.88 298.71 292.874 298.617C292.869 298.524 292.845 298.434 292.804 298.35C292.722 298.185 292.578 298.058 292.403 297.996C292.229 297.935 292.037 297.943 291.869 298.021C286.333 300.658 284.056 303.135 281.51 307.881C281.467 307.962 281.441 308.051 281.432 308.142C281.424 308.233 281.433 308.325 281.46 308.413C281.488 308.5 281.532 308.582 281.59 308.652C281.649 308.723 281.72 308.781 281.802 308.824C281.904 308.88 282.018 308.91 282.135 308.91C282.252 308.91 282.367 308.88 282.469 308.824Z" fill="#EBEBEB"/>
<path d="M276.396 307.329C276.525 307.259 276.629 307.152 276.695 307.022C279.348 302.084 281.817 299.431 287.606 296.687C287.79 296.599 287.932 296.442 288 296.25C288.068 296.058 288.057 295.847 287.97 295.663C287.883 295.479 287.726 295.337 287.534 295.269C287.342 295.201 287.13 295.211 286.946 295.299C280.859 298.189 278.144 301.065 275.338 306.294C275.256 306.441 275.224 306.611 275.248 306.777C275.272 306.944 275.351 307.098 275.471 307.216C275.591 307.334 275.747 307.409 275.914 307.429C276.082 307.45 276.251 307.414 276.396 307.329Z" fill="#EBEBEB"/>
<path d="M271.474 305.059C271.598 304.986 271.699 304.88 271.765 304.753C274.357 299.915 276.741 297.346 282.43 294.639C282.608 294.55 282.744 294.396 282.809 294.208C282.875 294.021 282.866 293.816 282.783 293.635C282.694 293.458 282.539 293.322 282.352 293.256C282.165 293.19 281.959 293.2 281.779 293.282C275.806 296.112 273.183 298.91 270.431 304.017C270.359 304.162 270.335 304.326 270.362 304.485C270.389 304.645 270.466 304.792 270.582 304.905C270.698 305.019 270.846 305.092 271.006 305.116C271.167 305.139 271.33 305.111 271.474 305.036V305.059Z" fill="#EBEBEB"/>
<path d="M266.958 301.801C267.081 301.73 267.181 301.626 267.249 301.502C269.848 296.656 272.217 294.095 277.914 291.388C278.021 291.358 278.12 291.304 278.205 291.231C278.289 291.158 278.356 291.068 278.402 290.966C278.448 290.865 278.471 290.754 278.469 290.643C278.468 290.531 278.443 290.422 278.395 290.321C278.347 290.221 278.277 290.132 278.191 290.061C278.106 289.99 278.005 289.938 277.897 289.91C277.79 289.882 277.677 289.877 277.567 289.897C277.458 289.916 277.354 289.96 277.263 290.024C271.29 292.868 268.675 295.652 265.923 300.758C265.832 300.935 265.813 301.14 265.87 301.33C265.927 301.52 266.056 301.681 266.229 301.778C266.339 301.842 266.463 301.877 266.591 301.881C266.718 301.885 266.844 301.858 266.958 301.801Z" fill="#EBEBEB"/>
<path d="M262.81 272.933C257.511 281.091 244.278 287.263 244.278 287.263C244.278 287.263 239.233 281.988 226.919 270.487C218.232 262.383 211.17 254.47 206.37 245.062C191.036 240.884 162.766 238.124 134.658 227.366C120.243 221.853 110.889 211.48 108.88 197.303C107.822 189.904 109.087 176.601 112.338 167.308L140.999 159.004C140.999 159.004 207.705 198.154 218.316 205.315C226.581 210.912 230.637 215.965 236.434 225.304C249.683 246.65 262.81 272.933 262.81 272.933Z" fill="#619937"/>
<path opacity="0.3" d="M262.81 272.933C257.511 281.091 244.278 287.263 244.278 287.263C244.278 287.263 239.233 281.988 226.919 270.487C218.232 262.383 211.17 254.47 206.37 245.062C191.036 240.884 162.766 238.124 134.658 227.366C120.243 221.853 110.889 211.48 108.88 197.303C107.822 189.904 109.087 176.601 112.338 167.308L140.999 159.004C140.999 159.004 207.705 198.154 218.316 205.315C226.581 210.912 230.637 215.965 236.434 225.304C249.683 246.65 262.81 272.933 262.81 272.933Z" fill="white"/>
<path d="M227.617 291.243C227.617 288.375 220.931 283.637 215.939 279.443C207.95 272.719 202.843 268.455 201.026 262.345C199.209 256.234 198.358 252.852 198.404 248.773C198.45 244.694 198.404 239.465 198.757 225.994C198.803 224.284 198.879 222.49 198.971 220.627H170.533C171.246 223.326 171.898 225.794 172.381 227.911C173.991 234.988 176.813 251.396 176.882 252.929C176.974 255.183 176.437 256.525 175.939 258.373C175.095 261.517 174.52 264.837 175.517 268.578C176.514 272.32 179.19 272.964 181.996 275.954C184.802 278.944 185.454 279.082 187.317 283.361C189.303 287.961 192.339 295.199 203.855 299.224C209.897 301.333 218.554 301.126 224.665 298.289C227.862 296.786 227.617 292.309 227.617 291.243Z" fill="#FDDFE0"/>
<path d="M175.057 268.563C174.977 270.103 175.204 271.643 175.724 273.094C176.192 274.628 181.383 278.507 183.169 281.068C184.956 283.629 185.155 284.641 187.164 288.13C189.395 291.964 190.484 296.679 200.888 300.873C211.431 305.121 218.615 304.162 223.476 302.337C225.204 301.583 226.726 300.426 227.916 298.964C227.916 298.964 229.909 292.999 226.643 291.503C223.377 290.008 175.057 268.563 175.057 268.563Z" fill="#263238"/>
<path d="M200.482 255.981C201.249 256.801 201.571 259.048 201.877 260.121C202.889 263.671 205.458 267.022 207.774 269.843C218.73 283.238 229.664 283.46 228.836 294.547C228.452 297.653 224.634 301.617 211.086 301.325C204.185 301.18 193.926 295.958 191.036 291.48C188.145 287.003 187.01 283.131 184.657 279.826C182.303 276.521 176.299 272.358 175.057 268.563C174.329 266.339 174.559 263.863 174.873 261.586C175.134 259.707 176.368 253.435 176.368 253.435C177.679 258.342 181.268 258.565 183.008 259.891C184.749 261.218 186.221 263.403 187.723 265.159C186.995 261.831 185.73 259.692 187.509 258.158C189.173 256.724 189.372 256.341 193.865 255.735C198.358 255.13 199.807 255.245 200.482 255.981Z" fill="#619937"/>
<path opacity="0.4" d="M200.482 255.981C201.249 256.801 201.571 259.048 201.877 260.121C202.889 263.671 205.458 267.022 207.774 269.843C218.73 283.238 229.664 283.46 228.836 294.547C228.452 297.653 224.634 301.617 211.086 301.325C204.185 301.18 193.926 295.958 191.036 291.48C188.145 287.003 187.01 283.131 184.657 279.826C182.303 276.521 176.299 272.358 175.057 268.563C174.329 266.339 174.559 263.863 174.873 261.586C175.134 259.707 176.368 253.435 176.368 253.435C177.679 258.342 181.268 258.565 183.008 259.891C184.749 261.218 186.221 263.403 187.723 265.159C186.995 261.831 185.73 259.692 187.509 258.158C189.173 256.724 189.372 256.341 193.865 255.735C198.358 255.13 199.807 255.245 200.482 255.981Z" fill="black"/>
<path opacity="0.3" d="M211.086 301.325C204.185 301.18 193.926 295.958 191.036 291.48C190.085 289.999 189.222 288.463 188.452 286.88C188.674 287.156 188.881 287.455 189.081 287.647C189.518 288.145 189.978 288.628 190.453 289.096C192.27 290.89 194.432 292.638 196.955 293.298C199.194 293.888 204.699 295.521 206.593 293.382C207.666 292.17 207.306 290.116 206.294 288.49C205.872 287.808 204.553 286.19 204.553 286.19C206.674 284.545 209.046 283.251 211.576 282.356C216.315 280.877 216.691 281.375 216.691 281.375C217.457 282.324 218.381 283.136 219.42 283.775C220.584 284.414 221.875 284.786 223.2 284.864C223.649 284.823 224.092 284.73 224.519 284.588C227.44 287.187 229.181 289.955 228.836 294.555C228.452 297.653 224.634 301.617 211.086 301.325Z" fill="black"/>
<path d="M207.774 269.843C210.669 273.349 213.971 276.496 217.611 279.22C219.995 283.169 219.029 284.151 217.174 282.878C215.318 281.605 209.959 273.378 205.389 266.776C206.163 267.85 206.984 268.877 207.774 269.843Z" fill="#37474F"/>
<path d="M180.179 260.673C178.377 259.531 176.859 258.879 175.709 257.146C175.425 254.7 175.801 253.244 176.882 252.914L176.959 255.068C179.121 257.821 181.268 258.565 183.008 259.891C184.749 261.218 186.221 263.403 187.723 265.159C192.324 271.147 193.252 273.922 198.128 278.96C203.004 283.997 207.505 285.86 207.191 286.865C206.876 287.869 205.013 288.92 200.467 285.676C195.92 282.433 190.208 274.597 187.861 270.487C185.515 266.378 182.701 262.276 180.179 260.673Z" fill="#37474F"/>
<path d="M204.615 286.865C204.751 286.848 204.881 286.795 204.99 286.711C208.824 283.56 211.446 282.318 217.059 282.203C217.23 282.185 217.389 282.104 217.504 281.976C217.619 281.848 217.683 281.682 217.683 281.509C217.683 281.337 217.619 281.17 217.504 281.042C217.389 280.914 217.23 280.833 217.059 280.815C211.132 280.938 208.249 282.28 204.139 285.638C204.027 285.734 203.948 285.862 203.913 286.005C203.879 286.148 203.89 286.299 203.947 286.435C204.003 286.571 204.101 286.686 204.226 286.763C204.352 286.841 204.498 286.876 204.645 286.865H204.615Z" fill="#EBEBEB"/>
<path d="M200.704 282.517C200.838 282.502 200.964 282.452 201.072 282.372C205.167 279.197 208.05 277.925 213.976 277.771C214.071 277.772 214.165 277.754 214.252 277.718C214.339 277.681 214.418 277.627 214.483 277.559C214.549 277.49 214.6 277.409 214.632 277.321C214.665 277.232 214.679 277.137 214.674 277.043C214.668 276.855 214.588 276.677 214.452 276.548C214.315 276.419 214.134 276.349 213.946 276.353C207.697 276.506 204.546 277.886 200.206 281.237C200.056 281.354 199.959 281.524 199.935 281.712C199.91 281.9 199.961 282.09 200.076 282.241C200.148 282.337 200.244 282.413 200.354 282.461C200.464 282.509 200.585 282.529 200.704 282.517Z" fill="#EBEBEB"/>
<path d="M195.644 278.576C195.793 278.568 195.935 278.511 196.05 278.415C200.574 274.919 203.978 273.478 210.511 273.317C210.719 273.311 210.917 273.224 211.061 273.073C211.205 272.922 211.283 272.72 211.277 272.511C211.272 272.303 211.185 272.105 211.034 271.961C210.883 271.818 210.681 271.74 210.472 271.745C203.572 271.921 199.876 273.47 195.092 277.181C195.009 277.243 194.94 277.32 194.888 277.409C194.836 277.499 194.802 277.597 194.789 277.7C194.777 277.802 194.784 277.906 194.813 278.005C194.841 278.105 194.889 278.197 194.954 278.277C195.033 278.382 195.139 278.465 195.26 278.517C195.38 278.57 195.513 278.59 195.644 278.576Z" fill="#EBEBEB"/>
<path d="M192.002 274.421C192.147 274.404 192.284 274.348 192.401 274.26C196.825 270.825 200.106 269.422 206.531 269.261C206.735 269.261 206.93 269.18 207.074 269.036C207.217 268.892 207.298 268.697 207.298 268.494C207.298 268.29 207.217 268.095 207.074 267.952C206.93 267.808 206.735 267.727 206.531 267.727C199.792 267.888 196.188 269.406 191.496 273.041C191.415 273.102 191.348 273.179 191.297 273.267C191.247 273.355 191.214 273.452 191.201 273.552C191.188 273.653 191.196 273.755 191.222 273.853C191.249 273.95 191.295 274.042 191.358 274.122C191.433 274.22 191.531 274.298 191.643 274.35C191.755 274.402 191.878 274.426 192.002 274.421Z" fill="#EBEBEB"/>
<path d="M189.142 269.514C189.29 269.498 189.43 269.442 189.548 269.353C193.972 265.918 197.254 264.514 203.679 264.353C203.78 264.351 203.879 264.329 203.971 264.288C204.063 264.247 204.146 264.188 204.216 264.115C204.285 264.042 204.339 263.956 204.376 263.862C204.412 263.768 204.429 263.668 204.427 263.568C204.424 263.467 204.402 263.368 204.361 263.276C204.32 263.184 204.262 263.1 204.189 263.031C204.116 262.962 204.03 262.907 203.936 262.871C203.842 262.835 203.741 262.817 203.641 262.82C196.894 262.989 193.298 264.499 188.598 268.133C188.461 268.234 188.361 268.376 188.314 268.539C188.266 268.702 188.275 268.876 188.337 269.034C188.399 269.191 188.512 269.324 188.658 269.411C188.803 269.498 188.974 269.534 189.142 269.514Z" fill="#EBEBEB"/>
<path d="M67.2927 160.576C69.0409 175.796 68.9029 186.714 69.1559 197.295C69.4089 207.876 69.6773 228.079 90.6244 237.548C111.395 246.926 130.663 242.011 141.612 233.446C152.561 224.882 165.542 200.86 165.542 200.86L172.726 229.597C172.726 229.597 176.161 233.592 186.343 232.825C196.526 232.059 199.838 227.734 199.838 227.734C199.838 227.734 201.647 196.95 202.383 176.67C203.119 156.39 200.712 140.955 189.487 133.51C178.262 126.066 161.371 133.119 139.488 154.757L137.909 149.39C137.909 149.39 134.965 154.711 118.856 158.59C92.4722 164.985 67.2927 160.576 67.2927 160.576Z" fill="#619937"/>
<path opacity="0.5" d="M67.2927 160.576C69.0409 175.796 68.9029 186.714 69.1559 197.295C69.4089 207.876 69.6773 228.079 90.6244 237.548C111.395 246.926 130.663 242.011 141.612 233.446C152.561 224.882 165.542 200.86 165.542 200.86L172.726 229.597C172.726 229.597 176.161 233.592 186.343 232.825C196.526 232.059 199.838 227.734 199.838 227.734C199.838 227.734 201.647 196.95 202.383 176.67C203.119 156.39 200.712 140.955 189.487 133.51C178.262 126.066 161.371 133.119 139.488 154.757L137.909 149.39C137.909 149.39 134.965 154.711 118.856 158.59C92.4722 164.985 67.2927 160.576 67.2927 160.576Z" fill="white"/>
<path opacity="0.4" d="M105.53 186.101C98.7824 195.094 93.17 205.392 96.4056 217.736C96.9039 201.635 103.559 193.722 108.949 186.246C114.339 178.771 139.527 154.757 139.527 154.757C139.527 154.757 112.277 177.107 105.53 186.101ZM162.391 169.233C159.124 183.402 159.883 192.741 162.828 205.698L165.58 200.868C163.38 192.863 162.368 179.898 162.368 169.225L162.391 169.233Z" fill="#619937"/>
<path d="M118.894 158.59C92.4722 164.985 67.308 160.576 67.308 160.576C67.7834 164.701 68.0748 168.504 68.3585 172.077C86.0547 177.444 116.034 176.839 128.578 165.798L139.527 154.757L137.947 149.39C137.947 149.39 135.003 154.711 118.894 158.59Z" fill="#619937"/>
<path opacity="0.2" d="M118.894 158.59C92.4722 164.985 67.308 160.576 67.308 160.576C67.7834 164.701 68.0748 168.504 68.3585 172.077C86.0547 177.444 116.034 176.839 128.578 165.798L139.527 154.757L137.947 149.39C137.947 149.39 135.003 154.711 118.894 158.59Z" fill="black"/>
</svg>
