<svg width="346" height="354" viewBox="0 0 346 354" fill="none" xmlns="http://www.w3.org/2000/svg">
<path d="M224.543 61.0682C223.632 56.1917 221.672 48.7082 218.062 46.1743C212.593 42.3186 207.033 50.5859 200.416 51.6433C193.798 52.7006 204.271 31.2439 192.695 27.3791C181.119 23.5143 177.801 37.8614 173.936 44.4789C170.072 51.0964 164.566 41.7444 159.598 43.3759C154.631 45.0075 157.393 53.8491 152.434 54.952C147.475 56.055 139.199 49.4374 135.334 53.3022C131.688 56.9482 131.479 57.6592 126.219 61.0226L224.543 61.0682Z" fill="#619937"/>
<path d="M73.5978 191.003C72.9963 187.813 71.7201 182.909 69.3502 181.25C65.7042 178.725 62.1311 184.139 57.7924 184.896C53.4536 185.652 60.3172 171.524 52.7335 168.999C45.1498 166.474 42.9805 175.863 40.4556 180.192C37.9307 184.522 34.3121 178.369 31.058 179.472C27.804 180.575 29.6178 186.336 26.3638 187.056C23.1097 187.776 17.6954 183.41 15.1614 185.981C12.7642 188.378 12.6366 188.824 9.22754 191.03L73.5978 191.003Z" fill="#619937"/>
<path d="M338.471 162.354C336.648 152.528 332.665 137.416 325.391 132.275C314.262 124.491 303.142 141.171 289.843 143.395C276.544 145.619 297.627 102.25 274.274 94.4657C250.922 86.6814 244.24 115.594 236.456 128.939C228.672 142.283 217.524 123.424 207.498 126.76C197.471 130.096 203.049 147.898 193.041 150.122C183.033 152.346 166.334 138.993 158.55 146.749C151.158 154.142 150.766 155.527 140.265 162.318L338.471 162.354Z" fill="#619937"/>
<path opacity="0.4" d="M224.543 61.0682C223.632 56.1917 221.672 48.7082 218.062 46.1743C212.593 42.3186 207.033 50.5859 200.416 51.6433C193.798 52.7006 204.271 31.2439 192.695 27.3791C181.119 23.5143 177.801 37.8614 173.936 44.4789C170.072 51.0964 164.566 41.7444 159.598 43.3759C154.631 45.0075 157.393 53.8491 152.434 54.952C147.475 56.055 139.199 49.4374 135.334 53.3022C131.688 56.9482 131.479 57.6592 126.219 61.0226L224.543 61.0682Z" fill="white"/>
<path opacity="0.4" d="M73.5978 191.003C72.9963 187.813 71.7201 182.909 69.3502 181.25C65.7042 178.725 62.1311 184.139 57.7924 184.896C53.4536 185.652 60.3172 171.524 52.7335 168.999C45.1498 166.474 42.9805 175.863 40.4556 180.192C37.9307 184.522 34.3121 178.369 31.058 179.472C27.804 180.575 29.6178 186.336 26.3638 187.056C23.1097 187.776 17.6954 183.41 15.1614 185.981C12.7642 188.378 12.6366 188.824 9.22754 191.03L73.5978 191.003Z" fill="white"/>
<path opacity="0.4" d="M338.471 162.354C336.648 152.528 332.665 137.416 325.391 132.275C314.262 124.491 303.142 141.171 289.843 143.395C276.544 145.619 297.627 102.25 274.274 94.4657C250.922 86.6814 244.24 115.594 236.456 128.939C228.672 142.283 217.524 123.424 207.498 126.76C197.471 130.096 203.049 147.898 193.041 150.122C183.033 152.346 166.334 138.993 158.55 146.749C151.158 154.142 150.766 155.527 140.265 162.318L338.471 162.354Z" fill="white"/>
<path d="M278.13 301.295C278.13 301.295 290.526 302.525 296.816 310.209C299.073 307.472 301.909 305.27 305.12 303.762C308.33 302.254 311.836 301.476 315.383 301.486C318.296 297.97 320.15 293.699 320.729 289.171C321.308 284.642 320.59 280.042 318.656 275.906C316.723 271.77 313.654 268.268 309.808 265.808C305.961 263.348 301.495 262.032 296.93 262.012C292.364 261.992 287.887 263.269 284.019 265.695C280.151 268.12 277.052 271.595 275.082 275.714C273.112 279.833 272.353 284.426 272.893 288.96C273.432 293.493 275.248 297.781 278.13 301.322V301.295Z" fill="#619937"/>
<path opacity="0.3" d="M278.13 301.295C278.13 301.295 290.526 302.525 296.816 310.209C299.073 307.472 301.909 305.27 305.12 303.762C308.33 302.254 311.836 301.476 315.383 301.486C318.296 297.97 320.15 293.699 320.729 289.171C321.308 284.642 320.59 280.042 318.656 275.906C316.723 271.77 313.654 268.268 309.808 265.808C305.961 263.348 301.495 262.032 296.93 262.012C292.364 261.992 287.887 263.269 284.019 265.695C280.151 268.12 277.052 271.595 275.082 275.714C273.112 279.833 272.353 284.426 272.893 288.96C273.432 293.493 275.248 297.781 278.13 301.322V301.295Z" fill="white"/>
<path d="M296.406 263.704L295.986 325.869H298.083L296.406 263.704Z" fill="#263238"/>
<path d="M297.035 307.867C297.035 307.867 301.219 300.338 308.757 298.031C308.757 298.031 300.799 299.918 296.825 306.399L297.035 307.867Z" fill="#263238"/>
<path d="M297.035 286.519C297.035 286.519 301.219 278.99 308.757 276.684C308.757 276.684 300.799 278.571 296.825 285.052L297.035 286.519Z" fill="#263238"/>
<path d="M297.035 297.193C297.035 297.193 301.219 289.664 308.757 287.358C308.757 287.358 300.799 289.245 296.825 295.725L297.035 297.193Z" fill="#263238"/>
<path d="M296.415 291.961C296.415 291.961 292.377 284.432 285.103 282.126C285.103 282.126 292.778 284.013 296.615 290.493L296.415 291.961Z" fill="#263238"/>
<path d="M296.415 302.425C296.415 302.425 292.377 294.896 285.103 292.59C285.103 292.59 292.778 294.477 296.615 300.957L296.415 302.425Z" fill="#263238"/>
<path d="M232.053 287.048C232.053 287.048 248.652 288.698 257.074 298.989C257.074 298.989 265.961 287.066 281.931 287.303C285.833 282.595 288.318 276.876 289.095 270.81C289.873 264.745 288.912 258.584 286.323 253.044C283.735 247.504 279.626 242.813 274.475 239.518C269.324 236.222 263.343 234.458 257.228 234.43C251.114 234.402 245.117 236.112 239.936 239.36C234.755 242.608 230.604 247.261 227.965 252.777C225.326 258.293 224.308 264.446 225.031 270.518C225.753 276.59 228.185 282.332 232.044 287.075L232.053 287.048Z" fill="#619937"/>
<path opacity="0.5" d="M232.053 287.048C232.053 287.048 248.652 288.698 257.074 298.989C257.074 298.989 265.961 287.066 281.931 287.303C285.833 282.595 288.318 276.876 289.095 270.81C289.873 264.745 288.912 258.584 286.323 253.044C283.735 247.504 279.626 242.813 274.475 239.518C269.324 236.222 263.343 234.458 257.228 234.43C251.114 234.402 245.117 236.112 239.936 239.36C234.755 242.608 230.604 247.261 227.965 252.777C225.326 258.293 224.308 264.446 225.031 270.518C225.753 276.59 228.185 282.332 232.044 287.075L232.053 287.048Z" fill="white"/>
<path d="M256.518 236.715L255.962 319.953H258.761L256.518 236.715Z" fill="#263238"/>
<path d="M257.366 295.853C257.366 295.853 262.972 285.763 273.062 282.682C273.062 282.682 262.407 285.198 257.083 293.884L257.366 295.853Z" fill="#263238"/>
<path d="M257.366 267.259C257.366 267.259 262.972 257.169 273.062 254.088C273.062 254.088 262.407 256.613 257.083 265.299L257.366 267.259Z" fill="#263238"/>
<path d="M257.366 281.561C257.366 281.561 262.972 271.47 273.062 268.38C273.062 268.38 262.407 270.905 257.083 279.592L257.366 281.561Z" fill="#263238"/>
<path d="M256.536 274.551C256.536 274.551 251.122 264.461 241.387 261.38C241.387 261.38 251.66 263.896 256.801 272.591L256.536 274.551Z" fill="#263238"/>
<path d="M256.536 288.561C256.536 288.561 251.122 278.471 241.387 275.39C241.387 275.39 251.66 277.915 256.801 286.601L256.536 288.561Z" fill="#263238"/>
<path d="M87.0974 286.61C87.0974 286.61 104.097 288.288 112.711 298.824C112.711 298.824 121.826 286.619 138.16 286.875C142.159 282.057 144.707 276.201 145.507 269.991C146.306 263.78 145.325 257.471 142.676 251.797C140.028 246.123 135.822 241.318 130.548 237.942C125.275 234.566 119.15 232.759 112.889 232.73C106.627 232.7 100.486 234.451 95.181 237.778C89.8761 241.104 85.6257 245.87 82.9248 251.519C80.224 257.168 79.184 263.469 79.9259 269.686C80.6679 275.904 83.1613 281.783 87.1156 286.638L87.0974 286.61Z" fill="#619937"/>
<path opacity="0.3" d="M87.0974 286.61C87.0974 286.61 104.097 288.288 112.711 298.824C112.711 298.824 121.826 286.619 138.16 286.875C142.159 282.057 144.707 276.201 145.507 269.991C146.306 263.78 145.325 257.471 142.676 251.797C140.028 246.123 135.822 241.318 130.548 237.942C125.275 234.566 119.15 232.759 112.889 232.73C106.627 232.7 100.486 234.451 95.181 237.778C89.8761 241.104 85.6257 245.87 82.9248 251.519C80.224 257.168 79.184 263.469 79.9259 269.686C80.6679 275.904 83.1613 281.783 87.1156 286.638L87.0974 286.61Z" fill="white"/>
<path d="M112.146 235.083L111.571 320.29H114.443L112.146 235.083Z" fill="#263238"/>
<path d="M113.011 295.616C113.011 295.616 118.745 285.298 129.108 282.135C129.108 282.135 118.17 284.714 112.756 293.611L113.011 295.616Z" fill="#263238"/>
<path d="M113.011 266.357C113.011 266.357 118.745 256.029 129.072 252.876C129.072 252.876 118.134 255.455 112.72 264.342L113.011 266.357Z" fill="#263238"/>
<path d="M113.011 280.986C113.011 280.986 118.745 270.659 129.072 267.505C129.072 267.505 118.134 270.085 112.72 278.981L113.011 280.986Z" fill="#263238"/>
<path d="M112.155 273.813C112.155 273.813 106.622 263.486 96.6592 260.332C96.6592 260.332 107.178 262.911 112.437 271.808L112.155 273.813Z" fill="#263238"/>
<path d="M112.155 288.16C112.155 288.16 106.622 277.833 96.6592 274.67C96.6592 274.67 107.178 277.258 112.437 286.145L112.155 288.16Z" fill="#263238"/>
<path d="M29.4629 303.327C29.4629 303.327 42.6524 304.631 49.3428 312.807C49.3428 312.807 56.4069 303.336 69.0859 303.528C72.1872 299.788 74.1622 295.245 74.781 290.426C75.3998 285.607 74.637 280.712 72.5812 276.31C70.5255 271.908 67.2615 268.181 63.1694 265.563C59.0773 262.944 54.3254 261.542 49.4673 261.52C44.6091 261.497 39.8446 262.856 35.7286 265.436C31.6126 268.017 28.3144 271.714 26.2182 276.097C24.1221 280.48 23.3142 285.368 23.8886 290.192C24.4631 295.016 26.3962 299.578 29.4629 303.346V303.327Z" fill="#619937"/>
<path opacity="0.5" d="M29.4629 303.327C29.4629 303.327 42.6524 304.631 49.3428 312.807C49.3428 312.807 56.4069 303.336 69.0859 303.528C72.1872 299.788 74.1622 295.245 74.781 290.426C75.3998 285.607 74.637 280.712 72.5812 276.31C70.5255 271.908 67.2615 268.181 63.1694 265.563C59.0773 262.944 54.3254 261.542 49.4673 261.52C44.6091 261.497 39.8446 262.856 35.7286 265.436C31.6126 268.017 28.3144 271.714 26.2182 276.097C24.1221 280.48 23.3142 285.368 23.8886 290.192C24.4631 295.016 26.3962 299.578 29.4629 303.346V303.327Z" fill="white"/>
<path d="M48.9054 263.34L48.4587 329.46H50.6828L48.9054 263.34Z" fill="#263238"/>
<path d="M49.5708 310.309C49.5708 310.309 54.0281 302.297 62.0402 299.845C62.0402 299.845 53.5814 301.851 49.3521 308.751L49.5708 310.309Z" fill="#263238"/>
<path d="M49.5708 287.604C49.5708 287.604 54.0281 279.592 62.0402 277.14C62.0402 277.14 53.5814 279.145 49.3521 286.045L49.5708 287.604Z" fill="#263238"/>
<path d="M49.5708 298.97C49.5708 298.97 54.0281 290.949 62.0402 288.506C62.0402 288.506 53.5814 290.512 49.3521 297.412L49.5708 298.97Z" fill="#263238"/>
<path d="M48.8963 293.392C48.8963 293.392 44.594 285.38 36.8645 282.928C36.8645 282.928 45.068 284.933 49.106 291.833L48.8963 293.392Z" fill="#263238"/>
<path d="M48.8963 304.521C48.8963 304.521 44.594 296.509 36.8645 294.057C36.8645 294.057 45.068 296.063 49.106 302.963L48.8963 304.521Z" fill="#263238"/>
<path d="M328.728 322.022L323.55 321.111C323.113 320.874 322.648 320.646 322.156 320.427L326.276 316.307L314.034 317.127L312.804 315.086L309.541 315.897L307.909 311.813L303.415 313.454L302.194 307.739L298.11 309.781L294.027 306.508L292.787 308.997L289.524 308.177L288.403 309.854L287.364 309.589L285.887 306.508L280.874 307.985L278.139 307.374L277.292 306.098H272.032L271.121 305.925L270.729 302.425L264.202 302.835L260.939 299.189L258.077 302.452L256.455 300.793L254.413 301.614L251.551 297.968C251.551 297.968 249.108 301.614 247.476 302.051C245.845 302.489 242.983 299.189 242.983 299.189L241.315 301.413L239.492 301.213L238.106 299.599L235.672 300.793L234.688 300.702L234.004 297.968L229.1 299.599L225.837 296.737L223.923 299.8L222.592 299.709L220.532 299.189L216.039 297.968L214.407 298.779L209.102 294.294V298.934H208.619L203.387 295.944L202.694 298.679H201.254L200.115 295.944L195.265 298.515H192.987L192.768 297.202L184.564 298.022L181.711 293.118L179.26 297.612L176.407 293.529L173.909 298.515H171.174L169.443 297.166L169.042 298.56L166.754 298.624L163.746 296.309L163.336 298.341L160.1 297.147L156.891 298.97H156.271L154.795 296.755L149.891 298.387L148.46 299.344L145.917 299.481L145.406 297.166L139.719 299.9L136.902 300.082C135.945 299.116 134.268 297.612 133.156 297.612C132.642 297.653 132.147 297.824 131.718 298.11C131.289 298.395 130.94 298.786 130.704 299.244L129.109 297.94L127.24 300.739L126.019 300.848L124.624 299.162L120.541 301.204L118.909 297.558L114.415 301.204L113.595 298.341L109.056 301.204L106.193 297.94L103.258 303.072L102.347 303.172L99.6124 300.793L97.2425 303.756L95.62 303.956L93.4871 301.222L92.6668 303.264L89.0208 301.222L86.979 304.868L82.8955 303.236L78.2924 306.262L72.7231 307.055L70.2985 305.314L68.2567 306.536L65.3946 305.314L64.5834 307.766L61.7213 306.946L59.5701 309.097L59.1782 309.161L58.0114 306.508L53.9644 308.997L51.5215 305.734L48.2493 309.817L42.9443 310.218L38.0495 310.628L34.4035 312.26L30.8578 314.274L28.2782 313.892L25.9448 315.377L25.6987 315.441L22.9642 314.657L20.9224 315.879L17.2764 315.478L16.7113 318.276C15.7998 318.604 14.9612 318.941 14.1044 319.297C13.2931 319.215 12.4637 319.151 11.9623 319.151C11.461 319.151 10.7956 320.063 10.1393 321.129C4.18722 324.21 0.541212 328.066 5.24456 332.204C11.4246 337.673 27.1206 335.266 34.358 334.783C65.349 332.723 88.7473 326.224 100.779 327.282C112.811 328.339 65.0391 353.378 116.703 353.387C168.367 353.396 274.393 347.408 289.889 345.949C305.384 344.491 274.512 338.803 278.951 331.985C283.39 325.167 319.43 330.946 325.492 329.323C329.512 328.248 328.226 325.559 326.932 323.854L328.728 322.022Z" fill="#619937"/>
<path opacity="0.4" d="M328.728 322.022L323.55 321.111C323.113 320.874 322.648 320.646 322.156 320.427L326.276 316.307L314.034 317.127L312.804 315.086L309.541 315.897L307.909 311.813L303.415 313.454L302.194 307.739L298.11 309.781L294.027 306.508L292.787 308.997L289.524 308.177L288.403 309.854L287.364 309.589L285.887 306.508L280.874 307.985L278.139 307.374L277.292 306.098H272.032L271.121 305.925L270.729 302.425L264.202 302.835L260.939 299.189L258.077 302.452L256.455 300.793L254.413 301.614L251.551 297.968C251.551 297.968 249.108 301.614 247.476 302.051C245.845 302.489 242.983 299.189 242.983 299.189L241.315 301.413L239.492 301.213L238.106 299.599L235.672 300.793L234.688 300.702L234.004 297.968L229.1 299.599L225.837 296.737L223.923 299.8L222.592 299.709L220.532 299.189L216.039 297.968L214.407 298.779L209.102 294.294V298.934H208.619L203.387 295.944L202.694 298.679H201.254L200.115 295.944L195.265 298.515H192.987L192.768 297.202L184.564 298.022L181.711 293.118L179.26 297.612L176.407 293.529L173.909 298.515H171.174L169.443 297.166L169.042 298.56L166.754 298.624L163.746 296.309L163.336 298.341L160.1 297.147L156.891 298.97H156.271L154.795 296.755L149.891 298.387L148.46 299.344L145.917 299.481L145.406 297.166L139.719 299.9L136.902 300.082C135.945 299.116 134.268 297.612 133.156 297.612C132.642 297.653 132.147 297.824 131.718 298.11C131.289 298.395 130.94 298.786 130.704 299.244L129.109 297.94L127.24 300.739L126.019 300.848L124.624 299.162L120.541 301.204L118.909 297.558L114.415 301.204L113.595 298.341L109.056 301.204L106.193 297.94L103.258 303.072L102.347 303.172L99.6124 300.793L97.2425 303.756L95.62 303.956L93.4871 301.222L92.6668 303.264L89.0208 301.222L86.979 304.868L82.8955 303.236L78.2924 306.262L72.7231 307.055L70.2985 305.314L68.2567 306.536L65.3946 305.314L64.5834 307.766L61.7213 306.946L59.5701 309.097L59.1782 309.161L58.0114 306.508L53.9644 308.997L51.5215 305.734L48.2493 309.817L42.9443 310.218L38.0495 310.628L34.4035 312.26L30.8578 314.274L28.2782 313.892L25.9448 315.377L25.6987 315.441L22.9642 314.657L20.9224 315.879L17.2764 315.478L16.7113 318.276C15.7998 318.604 14.9612 318.941 14.1044 319.297C13.2931 319.215 12.4637 319.151 11.9623 319.151C11.461 319.151 10.7956 320.063 10.1393 321.129C4.18722 324.21 0.541212 328.066 5.24456 332.204C11.4246 337.673 27.1206 335.266 34.358 334.783C65.349 332.723 88.7473 326.224 100.779 327.282C112.811 328.339 65.0391 353.378 116.703 353.387C168.367 353.396 274.393 347.408 289.889 345.949C305.384 344.491 274.512 338.803 278.951 331.985C283.39 325.167 319.43 330.946 325.492 329.323C329.512 328.248 328.226 325.559 326.932 323.854L328.728 322.022Z" fill="white"/>
<path d="M200.707 198.395C200.707 198.395 198.073 205.286 196.05 209.333C194.026 213.38 190.581 230.626 189.76 239.139C188.94 247.653 187.737 258.399 187.737 258.399C187.737 258.399 183.07 266.913 180.846 270.158C178.622 273.403 175.377 275.226 177.2 277.45C179.023 279.674 183.489 276.639 186.734 274.816C189.979 272.993 190.38 269.748 192.203 268.936C194.026 268.125 197.882 268.727 197.271 263.467C196.66 258.208 193.826 255.565 194.436 254.143C195.047 252.721 199.295 238.738 201.118 235.092C202.941 231.446 206.997 227.18 208.619 221.511C209.637 217.469 210.115 213.309 210.041 209.142C210.041 209.142 213.888 201.44 214.498 201.029C215.109 200.619 202.941 200.018 200.707 198.395Z" fill="white"/>
<mask id="mask0_30_2343" style="mask-type:luminance" maskUnits="userSpaceOnUse" x="176" y="198" width="39" height="81">
<path d="M200.707 198.395C200.707 198.395 198.073 205.286 196.05 209.333C194.026 213.38 190.581 230.626 189.76 239.139C188.94 247.653 187.737 258.399 187.737 258.399C187.737 258.399 183.07 266.913 180.846 270.158C178.622 273.403 175.377 275.226 177.2 277.45C179.023 279.674 183.489 276.639 186.734 274.816C189.979 272.993 190.38 269.748 192.203 268.936C194.026 268.125 197.882 268.727 197.271 263.467C196.66 258.208 193.826 255.565 194.436 254.143C195.047 252.721 199.295 238.738 201.118 235.092C202.941 231.446 206.997 227.18 208.619 221.511C209.637 217.469 210.115 213.309 210.041 209.142C210.041 209.142 213.888 201.44 214.498 201.029C215.109 200.619 202.941 200.018 200.707 198.395Z" fill="white"/>
</mask>
<g mask="url(#mask0_30_2343)">
<path d="M200.707 198.395C200.707 198.395 198.073 205.286 196.05 209.333C194.026 213.38 190.581 230.626 189.76 239.139C188.94 247.653 187.737 258.399 187.737 258.399C187.737 258.399 183.07 266.913 180.846 270.158C178.622 273.403 175.377 275.226 177.2 277.45C179.023 279.674 183.489 276.639 186.734 274.816C189.979 272.993 190.38 269.748 192.203 268.936C194.026 268.125 197.882 268.727 197.271 263.467C196.66 258.208 193.826 255.565 194.436 254.143C195.047 252.721 199.295 238.738 201.118 235.092C202.941 231.446 206.997 227.18 208.619 221.511C209.637 217.469 210.115 213.309 210.041 209.142C210.041 209.142 213.888 201.44 214.498 201.029C215.109 200.619 202.941 200.018 200.707 198.395Z" fill="#D9D9D9" stroke="#263238" stroke-width="0.257033" stroke-linecap="round" stroke-linejoin="round"/>
<path opacity="0.25" d="M197.8 205.532C199.568 206.444 202.959 208.121 205.037 208.121H207.945C207.945 208.121 210.205 213.289 206.331 222.012C202.458 230.735 195.667 241.063 194.053 247.844C193.142 251.627 190.754 263.422 188.803 273.129C190.28 271.434 190.863 269.547 192.194 268.955C194.017 268.143 197.873 268.745 197.262 263.486C196.651 258.226 193.816 255.583 194.427 254.161C195.038 252.739 199.295 238.738 201.118 235.092C202.941 231.446 206.997 227.18 208.619 221.511C209.637 217.469 210.115 213.309 210.041 209.142C210.041 209.142 213.888 201.44 214.498 201.029C215.109 200.619 202.941 200.018 200.707 198.395C200.707 198.395 199.295 202.005 197.8 205.532Z" fill="black"/>
</g>
<path d="M200.707 198.395C200.707 198.395 198.073 205.286 196.05 209.333C194.026 213.38 190.581 230.626 189.76 239.139C188.94 247.653 187.737 258.399 187.737 258.399C187.737 258.399 183.07 266.913 180.846 270.158C178.622 273.403 175.377 275.226 177.2 277.45C179.023 279.674 183.489 276.639 186.734 274.816C189.979 272.993 190.38 269.748 192.203 268.936C194.026 268.125 197.882 268.727 197.271 263.467C196.66 258.208 193.826 255.565 194.436 254.143C195.047 252.721 199.295 238.738 201.118 235.092C202.941 231.446 206.997 227.18 208.619 221.511C209.637 217.469 210.115 213.309 210.041 209.142C210.041 209.142 213.888 201.44 214.498 201.029C215.109 200.619 202.941 200.018 200.707 198.395Z" stroke="#263238" stroke-width="0.257033" stroke-linecap="round" stroke-linejoin="round"/>
<path d="M177.19 277.468C179.013 279.701 183.48 276.657 186.725 274.834C189.97 273.011 190.371 269.766 192.194 268.955C194.017 268.143 197.872 268.745 197.262 263.486C196.724 258.8 194.427 256.194 194.345 254.68C193.923 256.171 193.027 257.483 191.793 258.418C189.158 260.651 187.736 258.418 187.736 258.418C187.736 258.418 183.07 266.931 180.846 270.176C178.621 273.421 175.367 275.271 177.19 277.468Z" fill="#263238" stroke="#263238" stroke-width="0.257033" stroke-linecap="round" stroke-linejoin="round"/>
<path d="M197.271 263.531C196.286 264.396 195.192 265.128 194.017 265.71C190.571 267.332 189.76 270.367 184.902 274.223C183.794 275.196 182.482 275.908 181.062 276.306C179.642 276.703 178.15 276.777 176.698 276.52C176.79 276.856 176.955 277.167 177.181 277.432C179.004 279.665 183.471 276.62 186.716 274.797C189.961 272.974 190.362 269.729 192.185 268.918C194.008 268.107 197.836 268.736 197.271 263.531Z" fill="white" stroke="#263238" stroke-width="0.257033" stroke-linecap="round" stroke-linejoin="round"/>
<path d="M253.018 199.407L257.685 206.508C257.685 206.508 259.708 215.832 262.753 221.912C265.797 227.992 273.299 238.319 276.945 242.794C280.591 247.27 281.812 255.975 281.812 255.975C281.812 255.975 279.989 259.83 281.202 262.665C282.414 265.5 285.869 267.533 286.479 270.167C287.09 272.801 290.736 279.09 293.571 278.68C296.406 278.27 298.238 274.633 296.005 269.356C293.771 264.078 289.515 260.031 288.302 254.553C287.09 249.075 283.234 226.369 279.989 219.278C278.148 215.189 275.978 211.257 273.5 207.519L270.455 195.351C270.455 195.351 259.107 201.44 253.018 199.407Z" fill="white"/>
<mask id="mask1_30_2343" style="mask-type:luminance" maskUnits="userSpaceOnUse" x="253" y="195" width="45" height="84">
<path d="M253.018 199.407L257.685 206.508C257.685 206.508 259.708 215.832 262.753 221.912C265.797 227.992 273.299 238.319 276.945 242.794C280.591 247.27 281.812 255.975 281.812 255.975C281.812 255.975 279.989 259.83 281.202 262.665C282.414 265.5 285.869 267.533 286.479 270.167C287.09 272.801 290.736 279.09 293.571 278.68C296.406 278.27 298.238 274.633 296.005 269.356C293.771 264.078 289.515 260.031 288.302 254.553C287.09 249.075 283.234 226.369 279.989 219.278C278.148 215.189 275.978 211.257 273.5 207.519L270.455 195.351C270.455 195.351 259.107 201.44 253.018 199.407Z" fill="white"/>
</mask>
<g mask="url(#mask1_30_2343)">
<path d="M253.018 199.407L257.685 206.508C257.685 206.508 259.708 215.832 262.753 221.912C265.797 227.992 273.299 238.319 276.945 242.794C280.591 247.27 281.812 255.975 281.812 255.975C281.812 255.975 279.989 259.83 281.202 262.665C282.414 265.5 285.869 267.533 286.479 270.167C287.09 272.801 290.736 279.09 293.571 278.68C296.406 278.27 298.238 274.633 296.005 269.356C293.771 264.078 289.515 260.031 288.302 254.553C287.09 249.075 283.234 226.369 279.989 219.278C278.148 215.189 275.978 211.257 273.5 207.519L270.455 195.351C270.455 195.351 259.107 201.44 253.018 199.407Z" fill="#D9D9D9" stroke="#263238" stroke-width="0.257033" stroke-linecap="round" stroke-linejoin="round"/>
<path opacity="0.25" d="M279.989 219.278C278.148 215.189 275.978 211.257 273.5 207.519L270.455 195.351C270.455 195.351 259.107 201.44 253.018 199.407L257.658 206.462C258.451 206.462 259.326 206.508 260.265 206.508C262.82 206.441 265.34 205.894 267.693 204.894C267.693 204.894 275.441 217.163 279.315 227.499C282.004 234.673 285.477 245.565 287.774 252.001C286.197 244.025 282.852 225.549 279.989 219.278Z" fill="black"/>
</g>
<path d="M253.018 199.407L257.685 206.508C257.685 206.508 259.708 215.832 262.753 221.912C265.797 227.992 273.299 238.319 276.945 242.794C280.591 247.27 281.812 255.975 281.812 255.975C281.812 255.975 279.989 259.83 281.202 262.665C282.414 265.5 285.869 267.533 286.479 270.167C287.09 272.801 290.736 279.09 293.571 278.68C296.406 278.27 298.238 274.633 296.005 269.356C293.771 264.078 289.515 260.031 288.302 254.553C287.09 249.075 283.234 226.369 279.989 219.278C278.148 215.189 275.978 211.257 273.5 207.519L270.455 195.351C270.455 195.351 259.107 201.44 253.018 199.407Z" stroke="#263238" stroke-width="0.257033" stroke-linecap="round" stroke-linejoin="round"/>
<path d="M296.004 269.356C294.081 264.798 290.654 261.152 288.968 256.75C288.673 257.618 288.166 258.398 287.491 259.019C285.258 260.842 281.812 255.975 281.812 255.975C281.812 255.975 279.989 259.83 281.202 262.665C282.414 265.5 285.869 267.533 286.479 270.167C287.09 272.801 290.736 279.09 293.571 278.68C296.406 278.27 298.238 274.633 296.004 269.356Z" fill="#263238" stroke="#263238" stroke-width="0.257033" stroke-linecap="round" stroke-linejoin="round"/>
<path d="M286.479 270.167C286.736 271.118 287.103 272.036 287.573 272.901C287.463 272.671 287.369 272.433 287.291 272.19C286.27 268.945 285.668 264.898 283.435 262.857C282.343 261.782 281.479 260.498 280.892 259.083C280.667 260.28 280.774 261.516 281.202 262.656C282.423 265.509 285.887 267.533 286.479 270.167Z" fill="white" stroke="#263238" stroke-width="0.257033" stroke-linecap="round" stroke-linejoin="round"/>
<path d="M296.825 271.963C296.579 273.667 296.078 275.609 295.002 276.657C293.115 278.544 289.633 276.365 287.993 273.676C289.46 276.283 291.702 278.954 293.58 278.68C295.914 278.352 297.563 275.8 296.825 271.963Z" fill="white" stroke="#263238" stroke-width="0.257033" stroke-linecap="round" stroke-linejoin="round"/>
<path d="M260.93 135.748C260.93 135.748 261.331 136.149 259.508 137.361C257.685 138.573 253.228 139.594 254.24 141.217C255.251 142.839 256.263 143.65 255.452 144.261C254.641 144.872 253.428 144.872 252.417 145.674C251.405 146.476 248.36 136.759 248.36 136.759C248.36 136.759 255.862 133.077 260.93 135.748Z" fill="white"/>
<mask id="mask2_30_2343" style="mask-type:luminance" maskUnits="userSpaceOnUse" x="248" y="134" width="13" height="12">
<path d="M260.93 135.748C260.93 135.748 261.331 136.149 259.508 137.361C257.685 138.573 253.228 139.594 254.24 141.217C255.251 142.839 256.263 143.65 255.452 144.261C254.641 144.872 253.428 144.872 252.417 145.674C251.405 146.476 248.36 136.759 248.36 136.759C248.36 136.759 255.862 133.077 260.93 135.748Z" fill="white"/>
</mask>
<g mask="url(#mask2_30_2343)">
<path d="M260.93 135.748C260.93 135.748 261.331 136.149 259.508 137.361C257.685 138.573 253.228 139.594 254.24 141.217C255.251 142.839 256.263 143.65 255.452 144.261C254.641 144.872 253.428 144.872 252.417 145.674C251.405 146.476 248.36 136.759 248.36 136.759C248.36 136.759 255.862 133.077 260.93 135.748Z" fill="#619937"/>
<path opacity="0.25" d="M260.93 135.748C260.93 135.748 261.331 136.149 259.508 137.361C257.685 138.573 253.228 139.594 254.24 141.217C255.251 142.839 256.263 143.65 255.452 144.261C254.641 144.872 253.428 144.872 252.417 145.674C251.405 146.476 248.36 136.759 248.36 136.759C248.36 136.759 255.862 133.077 260.93 135.748Z" fill="black"/>
</g>
<path d="M260.93 135.748C260.93 135.748 261.331 136.149 259.508 137.361C257.685 138.573 253.228 139.594 254.24 141.217C255.251 142.839 256.263 143.65 255.452 144.261C254.641 144.872 253.428 144.872 252.417 145.674C251.405 146.476 248.36 136.759 248.36 136.759C248.36 136.759 255.862 133.077 260.93 135.748Z" stroke="#263238" stroke-width="0.257033" stroke-linecap="round" stroke-linejoin="round"/>
<path d="M214.498 142.438L212.675 152.975C212.675 152.975 205.173 169.2 202.539 177.513C199.905 185.826 196.049 200.419 196.049 200.419C196.049 200.419 198.884 202.652 207.407 204.065C215.929 205.478 226.639 200.018 226.639 200.018C226.639 200.018 229.884 182.581 230.896 180.347C231.908 178.114 234.743 172.235 234.743 172.235H237.386L244.277 199.006C244.277 199.006 250.557 200.628 254.212 201.23C257.867 201.832 263.327 202.242 268.204 198.796C271.365 196.395 273.989 193.358 275.906 189.882C275.906 189.882 268.204 171.652 264.749 164.132C261.295 156.612 253.401 143.851 253.401 143.851L250.967 135.538L214.498 142.438Z" fill="#263238" stroke="#263238" stroke-width="0.257033" stroke-linecap="round" stroke-linejoin="round"/>
<path d="M214.908 157.031L223.422 165.144" stroke="white" stroke-width="0.257033" stroke-linecap="round" stroke-linejoin="round"/>
<path d="M225.254 167.76L226.667 168.79" stroke="white" stroke-width="0.257033" stroke-linecap="round" stroke-linejoin="round"/>
<path d="M215.109 160.276L223.641 166.565" stroke="white" stroke-width="0.257033" stroke-linecap="round" stroke-linejoin="round"/>
<path d="M222.319 199.617C223.531 199.166 224.713 198.637 225.855 198.031" stroke="white" stroke-width="0.257033" stroke-linecap="round" stroke-linejoin="round"/>
<path d="M198.283 198.796C204.363 201.326 211.041 202.057 217.525 200.902" stroke="white" stroke-width="0.257033" stroke-linecap="round" stroke-linejoin="round"/>
<path d="M245.115 196.973C245.115 196.973 259.107 205.897 274.283 188.861" stroke="white" stroke-width="0.257033" stroke-linecap="round" stroke-linejoin="round"/>
<path d="M255.862 151.152L251.806 158.854" stroke="white" stroke-width="0.257033" stroke-linecap="round" stroke-linejoin="round"/>
<path d="M222.811 148.518C230.341 149.279 237.931 147.871 244.687 144.462" stroke="white" stroke-width="0.257033" stroke-linecap="round" stroke-linejoin="round"/>
<path d="M252.307 140.041L250.995 135.538L214.535 142.438L214.207 144.316C220.17 146.058 226.447 146.454 232.582 145.473C239.336 144.389 245.951 142.567 252.307 140.041Z" fill="white"/>
<mask id="mask3_30_2343" style="mask-type:luminance" maskUnits="userSpaceOnUse" x="214" y="135" width="39" height="11">
<path d="M252.307 140.041L250.995 135.538L214.535 142.438L214.207 144.316C220.17 146.058 226.447 146.454 232.582 145.473C239.336 144.389 245.951 142.567 252.307 140.041Z" fill="white"/>
</mask>
<g mask="url(#mask3_30_2343)">
<path d="M252.307 140.041L250.995 135.538L214.535 142.438L214.207 144.316C220.17 146.058 226.447 146.454 232.582 145.473C239.336 144.389 245.951 142.567 252.307 140.041Z" fill="#949494" stroke="#263238" stroke-width="0.257033" stroke-linecap="round" stroke-linejoin="round"/>
</g>
<path d="M252.307 140.041L250.995 135.538L214.535 142.438L214.207 144.316C220.17 146.058 226.447 146.454 232.582 145.473C239.336 144.389 245.951 142.567 252.307 140.041Z" stroke="#263238" stroke-width="0.257033" stroke-linecap="round" stroke-linejoin="round"/>
<path d="M272.342 62.1438C270.345 54.9152 267.704 47.8805 264.448 41.1245C261.978 35.8652 259.526 29.275 255.716 24.836C253.283 22.0012 248.816 19.768 247.804 20.1782C246.793 20.5884 242.335 22.4023 242.335 24.836C242.335 27.2697 243.958 27.2697 243.958 27.2697C243.958 27.2697 243.548 30.3141 244.769 31.5264C245.991 32.7387 252.271 32.3377 252.271 32.3377C253.393 33.987 254.325 35.7573 255.051 37.6152C256.263 41.6623 257.339 42.4736 258.15 49.7747C258.952 55.584 260.103 61.3399 261.595 67.0112C260.814 67.4919 260.125 68.1094 259.563 68.8342C258.35 70.2562 250.648 77.9492 250.648 77.9492C248.42 79.0057 246.113 79.8865 243.748 80.5835C241.673 81.2289 239.665 82.0713 237.751 83.0992C236.502 82.9534 235.244 82.8167 234.569 82.8167C233.147 82.8167 223.221 84.6397 223.221 84.6397C220.927 83.2751 218.479 82.1859 215.929 81.3947C213.564 80.6977 211.257 79.8169 209.029 78.7605C209.029 78.7605 201.327 71.0583 200.115 69.6455C199.552 68.9206 198.863 68.3031 198.082 67.8224C199.575 62.1512 200.725 56.3953 201.527 50.5859C202.184 44.6976 203.879 38.0072 207.416 33.1489C207.416 33.1489 213.696 33.5591 214.917 32.3377C216.139 31.1162 215.72 28.0809 215.72 28.0809C215.72 28.0809 217.342 28.0809 217.342 25.6472C217.342 23.2135 212.885 21.3905 211.873 20.9894C210.861 20.5884 206.404 22.8124 203.961 25.6472C201.518 28.482 201.737 31.3259 199.303 35.3821C196.87 39.4383 188.365 59.0811 187.335 62.955C186.305 66.8289 185.111 69.0347 185.312 70.8669C185.512 72.699 195.247 83.2268 197.681 86.0707C200.115 88.9146 209.439 98.6403 209.439 98.6403C209.439 98.6403 212.885 115.667 213.896 121.756C214.908 127.845 214.307 144.662 214.307 144.662C214.307 144.662 225.454 142.228 236 141.016C246.547 139.804 258.095 135.748 259.517 135.748H260.939C260.939 135.748 253.027 126.013 253.027 124.591C253.027 123.461 253.292 102.806 253.392 94.5112C256.336 91.4121 260.502 87.0005 262.006 85.2413C264.439 82.3974 274.174 71.8604 274.375 70.0374C274.575 68.2144 273.354 65.9994 272.342 62.1438Z" fill="white"/>
<mask id="mask4_30_2343" style="mask-type:luminance" maskUnits="userSpaceOnUse" x="185" y="20" width="90" height="125">
<path d="M272.342 62.1438C270.345 54.9152 267.704 47.8805 264.448 41.1245C261.978 35.8652 259.526 29.275 255.716 24.836C253.283 22.0012 248.816 19.768 247.804 20.1782C246.793 20.5884 242.335 22.4023 242.335 24.836C242.335 27.2697 243.958 27.2697 243.958 27.2697C243.958 27.2697 243.548 30.3141 244.769 31.5264C245.991 32.7387 252.271 32.3377 252.271 32.3377C253.393 33.987 254.325 35.7573 255.051 37.6152C256.263 41.6623 257.339 42.4736 258.15 49.7747C258.952 55.584 260.103 61.3399 261.595 67.0112C260.814 67.4919 260.125 68.1094 259.563 68.8342C258.35 70.2562 250.648 77.9492 250.648 77.9492C248.42 79.0057 246.113 79.8865 243.748 80.5835C241.673 81.2289 239.665 82.0713 237.751 83.0992C236.502 82.9534 235.244 82.8167 234.569 82.8167C233.147 82.8167 223.221 84.6397 223.221 84.6397C220.927 83.2751 218.479 82.1859 215.929 81.3947C213.564 80.6977 211.257 79.8169 209.029 78.7605C209.029 78.7605 201.327 71.0583 200.115 69.6455C199.552 68.9206 198.863 68.3031 198.082 67.8224C199.575 62.1512 200.725 56.3953 201.527 50.5859C202.184 44.6976 203.879 38.0072 207.416 33.1489C207.416 33.1489 213.696 33.5591 214.917 32.3377C216.139 31.1162 215.72 28.0809 215.72 28.0809C215.72 28.0809 217.342 28.0809 217.342 25.6472C217.342 23.2135 212.885 21.3905 211.873 20.9894C210.861 20.5884 206.404 22.8124 203.961 25.6472C201.518 28.482 201.737 31.3259 199.303 35.3821C196.87 39.4383 188.365 59.0811 187.335 62.955C186.305 66.8289 185.111 69.0347 185.312 70.8669C185.512 72.699 195.247 83.2268 197.681 86.0707C200.115 88.9146 209.439 98.6403 209.439 98.6403C209.439 98.6403 212.885 115.667 213.896 121.756C214.908 127.845 214.307 144.662 214.307 144.662C214.307 144.662 225.454 142.228 236 141.016C246.547 139.804 258.095 135.748 259.517 135.748H260.939C260.939 135.748 253.027 126.013 253.027 124.591C253.027 123.461 253.292 102.806 253.392 94.5112C256.336 91.4121 260.502 87.0005 262.006 85.2413C264.439 82.3974 274.174 71.8604 274.375 70.0374C274.575 68.2144 273.354 65.9994 272.342 62.1438Z" fill="white"/>
</mask>
<g mask="url(#mask4_30_2343)">
<path d="M272.342 62.1438C270.345 54.9152 267.704 47.8805 264.448 41.1245C261.978 35.8652 259.526 29.275 255.716 24.836C253.283 22.0012 248.816 19.768 247.804 20.1782C246.793 20.5884 242.335 22.4023 242.335 24.836C242.335 27.2697 243.958 27.2697 243.958 27.2697C243.958 27.2697 243.548 30.3141 244.769 31.5264C245.991 32.7387 252.271 32.3377 252.271 32.3377C253.393 33.987 254.325 35.7573 255.051 37.6152C256.263 41.6623 257.339 42.4736 258.15 49.7747C258.952 55.584 260.103 61.3399 261.595 67.0112C260.814 67.4919 260.125 68.1094 259.563 68.8342C258.35 70.2562 250.648 77.9492 250.648 77.9492C248.42 79.0057 246.113 79.8865 243.748 80.5835C241.673 81.2289 239.665 82.0713 237.751 83.0992C236.502 82.9534 235.244 82.8167 234.569 82.8167C233.147 82.8167 223.221 84.6397 223.221 84.6397C220.927 83.2751 218.479 82.1859 215.929 81.3947C213.564 80.6977 211.257 79.8169 209.029 78.7605C209.029 78.7605 201.327 71.0583 200.115 69.6455C199.552 68.9206 198.863 68.3031 198.082 67.8224C199.575 62.1512 200.725 56.3953 201.527 50.5859C202.184 44.6976 203.879 38.0072 207.416 33.1489C207.416 33.1489 213.696 33.5591 214.917 32.3377C216.139 31.1162 215.72 28.0809 215.72 28.0809C215.72 28.0809 217.342 28.0809 217.342 25.6472C217.342 23.2135 212.885 21.3905 211.873 20.9894C210.861 20.5884 206.404 22.8124 203.961 25.6472C201.518 28.482 201.737 31.3259 199.303 35.3821C196.87 39.4383 188.365 59.0811 187.335 62.955C186.305 66.8289 185.111 69.0347 185.312 70.8669C185.512 72.699 195.247 83.2268 197.681 86.0707C200.115 88.9146 209.439 98.6403 209.439 98.6403C209.439 98.6403 212.885 115.667 213.896 121.756C214.908 127.845 214.307 144.662 214.307 144.662C214.307 144.662 225.454 142.228 236 141.016C246.547 139.804 258.095 135.748 259.517 135.748H260.939C260.939 135.748 253.027 126.013 253.027 124.591C253.027 123.461 253.292 102.806 253.392 94.5112C256.336 91.4121 260.502 87.0005 262.006 85.2413C264.439 82.3974 274.174 71.8604 274.375 70.0374C274.575 68.2144 273.354 65.9994 272.342 62.1438Z" fill="#D9D9D9" stroke="#263238" stroke-width="0.257033" stroke-linecap="round" stroke-linejoin="round"/>
<path opacity="0.25" d="M215.109 125.785C214.498 122.941 213.687 106.516 212.675 101.247C211.664 95.9788 209.23 93.9552 207.808 91.722C206.386 89.4889 202.339 86.253 197.262 80.784C192.185 75.315 187.536 70.6572 188.356 66.601C188.912 63.7845 194.381 47.9243 197.663 38.5267C194.263 45.4997 188.183 59.7374 187.336 62.955C186.324 66.8107 185.111 69.0347 185.312 70.8669C185.513 72.699 195.247 83.2268 197.681 86.0707C200.115 88.9146 209.439 98.6403 209.439 98.6403C209.439 98.6403 212.885 115.667 213.897 121.756C214.304 125.015 214.496 128.298 214.471 131.582C214.981 128.984 215.31 126.696 215.109 125.785Z" fill="black"/>
<path opacity="0.25" d="M271.303 69.0348C271.303 72.0792 256.5 83.0263 253.073 88.705C249.645 94.3837 250.639 108.375 250.639 114.045C250.705 116.347 250.638 118.651 250.438 120.945L253.082 124.153C253.082 120.908 253.337 102.277 253.437 94.5295C256.381 91.4304 260.547 87.0187 262.051 85.2595C264.485 82.4156 274.22 71.8786 274.42 70.0556C274.621 68.2326 273.408 65.9994 272.397 62.1438C270.4 54.9152 267.758 47.8805 264.503 41.1246C262.033 35.8652 259.581 29.275 255.771 24.836C255.771 24.836 262.197 40.45 266.053 50.7865C269.908 61.1229 271.303 65.9995 271.303 69.0348Z" fill="black"/>
</g>
<path d="M272.342 62.1438C270.345 54.9152 267.704 47.8805 264.448 41.1245C261.978 35.8652 259.526 29.275 255.716 24.836C253.283 22.0012 248.816 19.768 247.804 20.1782C246.793 20.5884 242.335 22.4023 242.335 24.836C242.335 27.2697 243.958 27.2697 243.958 27.2697C243.958 27.2697 243.548 30.3141 244.769 31.5264C245.991 32.7387 252.271 32.3377 252.271 32.3377C253.393 33.987 254.325 35.7573 255.051 37.6152C256.263 41.6623 257.339 42.4736 258.15 49.7747C258.952 55.584 260.103 61.3399 261.595 67.0112C260.814 67.4919 260.125 68.1094 259.563 68.8342C258.35 70.2562 250.648 77.9492 250.648 77.9492C248.42 79.0057 246.113 79.8865 243.748 80.5835C241.673 81.2289 239.665 82.0713 237.751 83.0992C236.502 82.9534 235.244 82.8167 234.569 82.8167C233.147 82.8167 223.221 84.6397 223.221 84.6397C220.927 83.2751 218.479 82.1859 215.929 81.3947C213.564 80.6977 211.257 79.8169 209.029 78.7605C209.029 78.7605 201.327 71.0583 200.115 69.6454C199.552 68.9206 198.863 68.3031 198.082 67.8224C199.575 62.1512 200.725 56.3953 201.527 50.5859C202.184 44.6976 203.879 38.0072 207.416 33.1489C207.416 33.1489 213.696 33.5591 214.917 32.3377C216.139 31.1162 215.72 28.0809 215.72 28.0809C215.72 28.0809 217.342 28.0809 217.342 25.6472C217.342 23.2135 212.885 21.3905 211.873 20.9894C210.861 20.5884 206.404 22.8124 203.961 25.6472C201.518 28.482 201.737 31.3259 199.303 35.3821C196.87 39.4383 188.365 59.0811 187.335 62.955C186.305 66.8289 185.111 69.0347 185.312 70.8669C185.512 72.699 195.247 83.2268 197.681 86.0707C200.115 88.9146 209.439 98.6403 209.439 98.6403C209.439 98.6403 212.885 115.667 213.896 121.756C214.908 127.845 214.307 144.662 214.307 144.662C214.307 144.662 225.454 142.228 236 141.016C246.547 139.804 258.095 135.748 259.517 135.748H260.939C260.939 135.748 253.027 126.013 253.027 124.591C253.027 123.461 253.292 102.806 253.392 94.5112C256.336 91.4121 260.502 87.0005 262.006 85.2413C264.439 82.3974 274.174 71.8604 274.375 70.0374C274.575 68.2144 273.354 65.9994 272.342 62.1438Z" stroke="#263238" stroke-width="0.257033" stroke-linecap="round" stroke-linejoin="round"/>
<path d="M215.701 28.0809C215.701 28.0809 210.633 23.8242 210.232 25.6472C209.831 27.4702 213.277 29.9039 213.277 29.9039" stroke="#263238" stroke-width="0.257033" stroke-linecap="round" stroke-linejoin="round"/>
<path d="M208.819 27.6799C208.874 28.2121 208.822 28.7498 208.668 29.2621C208.514 29.7744 208.26 30.2513 207.922 30.6654C207.583 31.0794 207.166 31.4226 206.694 31.6752C206.223 31.9277 205.706 32.0847 205.173 32.1371" stroke="#263238" stroke-width="0.257033" stroke-linecap="round" stroke-linejoin="round"/>
<path d="M211.664 28.6916L207.607 26.659L207.808 25.2462L209.02 24.6355" stroke="#263238" stroke-width="0.257033" stroke-linecap="round" stroke-linejoin="round"/>
<path d="M212.055 22.2929C212.258 23.4162 212.383 24.5522 212.429 25.6928" stroke="#263238" stroke-width="0.257033" stroke-linecap="round" stroke-linejoin="round"/>
<path d="M214.316 22.858C214.54 24.2344 214.54 25.6381 214.316 27.0145" stroke="#263238" stroke-width="0.257033" stroke-linecap="round" stroke-linejoin="round"/>
<path d="M216.394 23.806C216.484 24.4385 216.41 25.0836 216.179 25.6791C215.947 26.2746 215.566 26.8004 215.072 27.2059" stroke="#263238" stroke-width="0.257033" stroke-linecap="round" stroke-linejoin="round"/>
<path d="M243.958 27.2697C243.958 27.2697 250.995 25.4467 249.983 27.4702C248.971 29.4938 245.726 30.1136 245.726 30.1136" stroke="#263238" stroke-width="0.257033" stroke-linecap="round" stroke-linejoin="round"/>
<path d="M254.24 30.3141C253.355 29.6128 252.402 29.0021 251.396 28.4911C250.384 28.0809 250.184 26.6681 250.184 26.6681C250.184 26.6681 252.417 26.267 252.417 25.2553C252.417 24.2435 250.794 23.4323 250.794 23.4323L250.585 24.4532" stroke="#263238" stroke-width="0.257033" stroke-linecap="round" stroke-linejoin="round"/>
<path d="M247.941 21.8736C247.941 21.8736 247.139 25.8933 250.184 26.6225" stroke="#263238" stroke-width="0.257033" stroke-linecap="round" stroke-linejoin="round"/>
<path d="M245.672 22.1015C245.672 22.1015 245.106 25.1277 246.993 26.659" stroke="#263238" stroke-width="0.257033" stroke-linecap="round" stroke-linejoin="round"/>
<path d="M243.958 23.2409C243.958 23.2409 243.384 25.8842 244.706 26.8231" stroke="#263238" stroke-width="0.257033" stroke-linecap="round" stroke-linejoin="round"/>
<path d="M235.991 141.016C246.538 139.795 258.086 135.748 259.508 135.748H260.93C260.93 135.748 253.018 126.013 253.018 124.591C253.018 123.461 253.283 102.806 253.383 94.5112L257.94 89.6712C255.707 89.0058 253.292 87.8482 252.398 85.852C251.286 83.3818 251.824 79.1068 252.398 76.1353L250.575 77.9584C248.348 79.0148 246.041 79.8956 243.675 80.5926C241.601 81.238 239.592 82.0804 237.678 83.1083C236.429 82.9625 235.171 82.8258 234.497 82.8258C233.075 82.8258 223.148 84.6488 223.148 84.6488C220.854 83.2842 218.406 82.195 215.856 81.4038C213.491 80.7068 211.184 79.826 208.956 78.7696L208.665 78.4779C209.092 81.8023 209.19 85.1608 208.956 88.5044C208.573 91.5033 206.167 92.907 204.499 93.5268C207.097 96.2613 209.366 98.6403 209.366 98.6403C209.366 98.6403 212.812 115.667 213.824 121.756C214.835 127.845 214.234 144.662 214.234 144.662C214.234 144.662 225.445 142.192 235.991 141.016Z" fill="#619937" stroke="#263238" stroke-width="0.257033" stroke-linecap="round" stroke-linejoin="round"/>
<path d="M231.58 103.325C230.748 102.431 229.986 101.474 229.301 100.463" stroke="#263238" stroke-width="0.257033" stroke-linecap="round" stroke-linejoin="round"/>
<path d="M253.018 124.591C249.101 119.948 244.835 115.612 240.257 111.62C237.914 109.624 236.028 107.892 234.533 106.415" stroke="#263238" stroke-width="0.257033" stroke-linecap="round" stroke-linejoin="round"/>
<path d="M219.101 75.4061C219.101 75.4061 217.998 73.1912 215.601 68.7704C213.204 64.3496 215.227 56.6201 224.26 53.6668C233.293 50.7135 238.999 56.2464 240.285 59.9288C241.57 63.6113 240.467 67.6675 239.728 69.8824C239.292 71.1893 239.046 72.5524 238.999 73.9295C238.524 73.3587 237.965 72.8638 237.34 72.462C236.046 71.5505 233.84 61.7701 230.887 61.0409C227.934 60.3117 221.681 61.9797 221.17 66.5372C220.66 71.0947 220.578 78.168 219.101 75.4061Z" fill="#263238" stroke="#263238" stroke-width="0.257033" stroke-linecap="round" stroke-linejoin="round"/>
<path d="M238.261 73.1912C238.261 73.1912 239.364 70.0647 240.84 71.5414C242.317 73.018 241.57 76.0989 240.649 77.4297C239.728 78.7605 238.999 77.9857 238.443 76.5182C238.115 75.4401 238.052 74.2987 238.261 73.1912Z" fill="white"/>
<mask id="mask5_30_2343" style="mask-type:luminance" maskUnits="userSpaceOnUse" x="238" y="71" width="4" height="8">
<path d="M238.261 73.1912C238.261 73.1912 239.364 70.0647 240.84 71.5414C242.317 73.018 241.57 76.0989 240.649 77.4297C239.728 78.7605 238.999 77.9857 238.443 76.5182C238.115 75.4401 238.052 74.2987 238.261 73.1912Z" fill="white"/>
</mask>
<g mask="url(#mask5_30_2343)">
<path d="M238.261 73.1912C238.261 73.1912 239.364 70.0647 240.84 71.5414C242.317 73.018 241.57 76.0989 240.649 77.4297C239.728 78.7605 238.999 77.9857 238.443 76.5182C238.115 75.4401 238.052 74.2987 238.261 73.1912Z" fill="#D9D9D9" stroke="#263238" stroke-width="0.257033" stroke-linecap="round" stroke-linejoin="round"/>
</g>
<path d="M238.261 73.1912C238.261 73.1912 239.364 70.0647 240.84 71.5414C242.317 73.018 241.57 76.0989 240.649 77.4297C239.728 78.7605 238.999 77.9857 238.443 76.5182C238.115 75.4401 238.052 74.2987 238.261 73.1912Z" stroke="#263238" stroke-width="0.257033" stroke-linecap="round" stroke-linejoin="round"/>
<path d="M219.94 75.0142C219.94 75.0142 218.035 72.2797 217.014 74.1027C215.993 75.9257 217.542 78.7422 218.782 79.7267C220.022 80.7111 220.523 79.8178 220.66 78.25C220.682 77.1293 220.435 76.0196 219.94 75.0142Z" fill="white"/>
<mask id="mask6_30_2343" style="mask-type:luminance" maskUnits="userSpaceOnUse" x="216" y="73" width="5" height="8">
<path d="M219.94 75.0142C219.94 75.0142 218.035 72.2797 217.014 74.1027C215.993 75.9257 217.542 78.7422 218.782 79.7267C220.022 80.7111 220.523 79.8178 220.66 78.25C220.682 77.1293 220.435 76.0196 219.94 75.0142Z" fill="white"/>
</mask>
<g mask="url(#mask6_30_2343)">
<path d="M219.94 75.0142C219.94 75.0142 218.035 72.2797 217.014 74.1027C215.993 75.9257 217.542 78.7422 218.782 79.7267C220.022 80.7111 220.523 79.8178 220.66 78.25C220.682 77.1293 220.435 76.0196 219.94 75.0142Z" fill="#D9D9D9" stroke="#263238" stroke-width="0.257033" stroke-linecap="round" stroke-linejoin="round"/>
</g>
<path d="M219.94 75.0142C219.94 75.0142 218.035 72.2797 217.014 74.1027C215.993 75.9257 217.542 78.7422 218.782 79.7267C220.022 80.7111 220.523 79.8178 220.66 78.25C220.682 77.1293 220.435 76.0196 219.94 75.0142Z" stroke="#263238" stroke-width="0.257033" stroke-linecap="round" stroke-linejoin="round"/>
<path d="M222.419 83.6917C222.336 86.3437 222.519 88.9973 222.966 91.6127C223.361 93.9808 223.915 96.3195 224.625 98.613L231.261 92.351L239.546 96.7718C239.546 96.7718 240.84 88.3039 238.261 84.6123C235.681 80.9207 227.204 80.5652 224.999 81.8778C224.041 82.3294 223.168 82.9431 222.419 83.6917Z" fill="white" stroke="#263238" stroke-width="0.257033" stroke-linecap="round" stroke-linejoin="round"/>
<path d="M224.816 85.5421C224.816 85.5421 229.611 98.0661 232.19 97.1455C234.77 96.2249 235.508 85.1684 235.508 85.1684C235.508 85.1684 227.551 86.8273 224.816 85.5421Z" fill="white"/>
<mask id="mask7_30_2343" style="mask-type:luminance" maskUnits="userSpaceOnUse" x="224" y="85" width="12" height="13">
<path d="M224.816 85.5421C224.816 85.5421 229.611 98.0661 232.19 97.1455C234.77 96.2249 235.508 85.1684 235.508 85.1684C235.508 85.1684 227.551 86.8273 224.816 85.5421Z" fill="white"/>
</mask>
<g mask="url(#mask7_30_2343)">
<path d="M224.816 85.5421C224.816 85.5421 229.611 98.0661 232.19 97.1455C234.77 96.2249 235.508 85.1684 235.508 85.1684C235.508 85.1684 227.551 86.8273 224.816 85.5421Z" fill="#D9D9D9" stroke="#263238" stroke-width="0.257033" stroke-linecap="round" stroke-linejoin="round"/>
<path opacity="0.25" d="M224.816 85.5421C224.816 85.5421 229.611 98.0661 232.19 97.1455C234.77 96.2249 235.508 85.1684 235.508 85.1684C235.508 85.1684 227.551 86.8273 224.816 85.5421Z" fill="black"/>
</g>
<path d="M224.816 85.5421C224.816 85.5421 229.611 98.0661 232.19 97.1455C234.77 96.2249 235.508 85.1684 235.508 85.1684C235.508 85.1684 227.551 86.8273 224.816 85.5421Z" stroke="#263238" stroke-width="0.257033" stroke-linecap="round" stroke-linejoin="round"/>
<path d="M218.545 70.0647C218.545 70.0647 219.457 78.168 220.578 81.8505C221.699 85.5329 225.956 88.8782 231.662 87.9575C237.368 87.0369 239.401 78.724 239.401 78.168C239.401 77.612 239.036 67.6675 236.821 63.985C234.606 60.3026 230.377 56.8024 224.479 59.5642C218.582 62.3261 217.998 68.0412 218.545 70.0647Z" fill="white"/>
<mask id="mask8_30_2343" style="mask-type:luminance" maskUnits="userSpaceOnUse" x="218" y="58" width="22" height="31">
<path d="M218.545 70.0647C218.545 70.0647 219.457 78.168 220.578 81.8505C221.699 85.5329 225.956 88.8782 231.662 87.9575C237.368 87.0369 239.401 78.724 239.401 78.168C239.401 77.612 239.036 67.6675 236.821 63.985C234.606 60.3026 230.377 56.8024 224.479 59.5642C218.582 62.3261 217.998 68.0412 218.545 70.0647Z" fill="white"/>
</mask>
<g mask="url(#mask8_30_2343)">
<path d="M218.545 70.0647C218.545 70.0647 219.457 78.168 220.578 81.8505C221.699 85.5329 225.956 88.8782 231.662 87.9575C237.368 87.0369 239.401 78.724 239.401 78.168C239.401 77.612 239.036 67.6675 236.821 63.985C234.606 60.3026 230.377 56.8024 224.479 59.5642C218.582 62.3261 217.998 68.0412 218.545 70.0647Z" fill="#D9D9D9" stroke="#263238" stroke-width="0.257033" stroke-linecap="round" stroke-linejoin="round"/>
<path opacity="0.25" d="M239.401 78.168C239.401 77.612 239.036 67.6675 236.821 63.985C236.381 63.248 235.874 62.5524 235.308 61.9068C235.846 64.2038 238.635 76.5729 236.429 80.7931C233.995 85.46 228.727 85.8702 223.86 83.4365C220.214 81.6135 219.211 71.0309 218.91 65.6622C218.409 67.0739 218.295 68.5943 218.582 70.0647C218.582 70.0647 219.493 78.168 220.615 81.8505C221.736 85.5329 225.992 88.8782 231.698 87.9575C237.404 87.0369 239.401 78.724 239.401 78.168Z" fill="black"/>
</g>
<path d="M218.545 70.0647C218.545 70.0647 219.457 78.168 220.578 81.8505C221.699 85.5329 225.956 88.8782 231.662 87.9575C237.368 87.0369 239.401 78.724 239.401 78.168C239.401 77.612 239.036 67.6675 236.821 63.985C234.606 60.3026 230.377 56.8024 224.479 59.5642C218.582 62.3261 217.998 68.0412 218.545 70.0647Z" stroke="#263238" stroke-width="0.257033" stroke-linecap="round" stroke-linejoin="round"/>
<path d="M223.786 74.8046C225.402 75.2774 227.113 75.3183 228.749 74.9232C230.385 74.5282 231.889 73.711 233.111 72.5532C233.931 72.8266 233.621 77.7761 229.091 78.4961C227.902 78.6797 226.688 78.3988 225.7 77.7115C224.713 77.0243 224.027 75.9834 223.786 74.8046Z" fill="white" stroke="#263238" stroke-width="0.257033" stroke-linecap="round" stroke-linejoin="round"/>
<path d="M226.403 70.4202C226.403 70.4202 225.272 71.9971 225.837 72.5531C226.403 73.1092 228.645 73.2277 229.775 71.9971C230.905 70.7666 229.101 69.6363 229.101 69.6363" stroke="#263238" stroke-width="0.257033" stroke-linecap="round" stroke-linejoin="round"/>
<path d="M222.082 71.1677C222.082 71.1677 222.638 69.3447 225.582 69.3447" stroke="#263238" stroke-width="0.257033" stroke-linecap="round" stroke-linejoin="round"/>
<path d="M230.705 68.5881C231.243 67.9939 231.98 67.6162 232.777 67.5256C233.573 67.4351 234.376 67.6378 235.034 68.0959" stroke="#263238" stroke-width="0.257033" stroke-linecap="round" stroke-linejoin="round"/>
<path d="M225.181 65.6257C225.181 65.6257 220.97 64.7871 220.45 68.6063" stroke="#263238" stroke-width="0.514067" stroke-linecap="round" stroke-linejoin="round"/>
<path d="M229.647 65.1517C229.647 65.1517 232.619 62.7454 235.381 65.3249" stroke="#263238" stroke-width="0.514067" stroke-linecap="round" stroke-linejoin="round"/>
<path d="M125.016 69.0348C125.016 69.0348 125.016 64.7416 120.394 61.606C115.773 58.4704 104.698 60.2843 100.569 65.571C96.4402 70.8578 96.1029 74.6861 91.3175 76.1445C86.5322 77.6029 75.6215 79.2983 68.0378 87.2101C60.4541 95.1219 63.7446 111.328 67.2174 112.65C70.6903 113.972 66.388 111.493 66.8802 107.181C66.9703 105.992 67.3886 104.851 68.0887 103.885C68.7887 102.92 69.743 102.168 70.8452 101.712C70.8452 101.712 66.388 108.813 75.8038 118.064C85.2196 127.316 95.629 125.174 104.389 123.351C113.148 121.528 123.876 115.093 124.706 107.491C125.535 99.8891 122.719 95.5959 124.706 92.1322C126.693 88.6685 133.958 89.1516 134.951 82.5523C135.945 75.9531 133.274 67.2209 125.016 69.0348Z" fill="#263238" stroke="#263238" stroke-width="0.257033" stroke-linecap="round" stroke-linejoin="round"/>
<path d="M156.836 187.083C156.836 187.083 161.449 181.25 163.217 181.058C164.985 180.867 167.61 184.878 168.759 187.94C169.907 191.003 172.578 197.292 172.578 200.355C172.578 205.705 170.281 207.419 169.333 206.462C168.385 205.505 165.888 199.589 164.557 198.441C163.709 197.732 162.721 197.211 161.658 196.909C161.658 196.909 158.723 189.481 156.836 187.083Z" fill="white" stroke="#263238" stroke-width="0.257033" stroke-linecap="round" stroke-linejoin="round"/>
<path d="M161.513 182.517C161.513 182.517 167.1 188.104 169.087 193.455C171.074 198.805 171.685 204.028 169.889 206.216" stroke="#263238" stroke-width="0.257033" stroke-linecap="round" stroke-linejoin="round"/>
<path d="M146.555 228.438C146.555 228.438 152.088 228.821 154.002 229.013C155.916 229.204 155.916 233.789 155.15 237.034C154.385 240.279 153.428 242.384 154.239 246.012C155.05 249.64 152.899 253.651 151.75 255.373C150.602 257.096 148.104 256.713 147.931 255.373C147.758 254.033 148.505 246.204 145.835 241.81C143.164 237.417 143.492 231.519 146.555 228.438Z" fill="white" stroke="#263238" stroke-width="0.257033" stroke-linecap="round" stroke-linejoin="round"/>
<path d="M151.741 228.785C152.907 230.914 153.328 233.371 152.935 235.767C152.334 239.951 153.136 246.541 153.136 248.136C153.136 249.731 150.939 255.911 150.146 256.112" stroke="#263238" stroke-width="0.257033" stroke-linecap="round" stroke-linejoin="round"/>
<path d="M171.603 31.9001C170.609 31.9001 166.644 32.8937 166.316 34.0513C165.988 35.2089 165.496 46.4386 165.496 46.4386C165.496 46.4386 158.55 59.6554 156.244 64.614C153.938 69.5725 147.813 81.4676 147.813 81.4676L132.454 97.4919C132.454 97.4919 130.138 98.6495 126.173 100.956C125.8 101.174 125.408 101.42 125.016 101.667L117.724 103.271L111.471 102.086C108.505 99.7736 105.416 97.6223 102.219 95.6415C98.2541 93.3354 95.9389 92.1778 95.9389 92.1778L80.5801 76.1536C80.5801 76.1536 74.4639 64.3041 72.1487 59.2999C69.8335 54.2958 62.897 41.1245 62.897 41.1245C62.897 41.1245 62.4048 29.8948 62.0766 28.7372C61.7485 27.5796 57.7743 26.5861 56.7899 26.5861C55.8055 26.5861 53.9825 31.8728 54.6387 33.0304C55.295 34.188 57.0998 34.1789 57.0998 34.1789C57.0157 35.4992 57.0157 36.8236 57.0998 38.1439C57.2639 38.9734 59.7432 40.6232 59.7432 40.6232C59.7432 40.6232 63.216 54.9976 65.5221 64.9057C67.8282 74.8137 70.8088 81.4312 72.1305 82.5888C73.4522 83.7464 86.5049 96.9541 89.1482 101.42C91.2814 104.726 93.7761 107.783 96.5861 110.535C96.5861 110.535 95.1003 117.827 95.1003 121.765C95.1003 125.703 99.0654 134.152 100.387 137.953C101.709 141.754 103.359 159.428 103.359 159.93C103.359 160.431 104.179 171.324 104.179 171.324C104.179 171.324 95.2644 190.821 92.457 204.694C89.6495 218.567 90.9621 226.506 97.4064 229.477C103.851 232.449 133.092 236.578 133.921 237.572C134.751 238.565 135.407 239.221 136.565 239.221C137.722 239.221 139.208 238.565 140.211 239.221C141.213 239.878 141.195 240.379 142.353 240.379C142.906 240.453 143.433 240.657 143.893 240.974C144.352 241.291 144.73 241.712 144.996 242.202C145.324 242.858 147.311 241.537 147.967 236.578C148.624 231.619 147.639 229.286 146.646 229.149C145.652 229.013 145.825 227.326 144.176 227.326C142.401 227.439 140.636 227.662 138.889 227.992C138.028 227.733 137.142 227.567 136.246 227.499C135.252 227.499 134.094 226.67 133.429 226.506C132.764 226.342 121.871 221.876 121.871 221.876L121.452 221.657C132.481 215.367 148.122 204.238 148.122 204.238C148.122 204.238 152.616 203.955 154.585 202.269C155.919 201.075 157.14 199.76 158.231 198.34L161.604 196.937C161.561 194.729 160.877 192.582 159.635 190.757C157.675 188.232 156.827 187.111 156.827 187.111C156.827 187.111 151.495 189.636 149.809 190.201C148.122 190.766 145.598 191.039 144.194 192.443C142.79 193.847 139.144 196.654 139.144 196.654L126.793 203.108C126.793 203.108 142.517 182.9 144.476 174.477C146.163 167.258 143.565 159.283 139.263 153.458C136.009 149.083 131.442 145.747 127.978 141.508C126.319 139.494 125.052 137.999 125.171 137.133C125.362 135.793 126.93 129.048 128.352 123.306L132.782 114.81C133.876 113.671 138.761 107.518 139.217 106.734C141.86 102.268 154.913 89.0513 156.235 87.8937C157.556 86.7361 160.528 80.1368 162.843 70.2197C165.158 60.3025 168.622 45.9373 168.622 45.9373C168.622 45.9373 171.101 44.2875 171.265 43.458C171.35 42.1376 171.35 40.8133 171.265 39.493C171.265 39.493 173.088 39.493 173.745 38.3353C174.401 37.1777 172.596 31.9001 171.603 31.9001Z" fill="white" stroke="#263238" stroke-width="0.257033" stroke-linecap="round" stroke-linejoin="round"/>
<path d="M156.836 187.083C156.836 187.083 151.504 189.608 149.818 190.173C148.132 190.739 145.607 191.012 144.203 192.416C142.799 193.819 139.153 196.627 139.153 196.627L126.802 203.08C126.802 203.08 142.526 182.872 144.486 174.45C146.172 167.231 143.574 159.255 139.272 153.431C137.632 151.325 135.821 149.359 133.857 147.552C130.408 150.562 126.66 153.213 122.673 155.463C116.844 158.881 110.066 160.326 103.349 159.583C103.349 159.757 103.349 159.866 103.349 159.902C103.349 160.395 104.17 171.296 104.17 171.296C104.17 171.296 95.2553 190.793 92.4479 204.666C89.6404 218.539 90.953 226.479 97.3973 229.45C103.842 232.422 133.083 236.551 133.912 237.544C134.742 238.538 135.398 239.194 136.555 239.194C137.713 239.194 139.199 238.538 140.201 239.194C141.204 239.85 141.186 240.352 142.344 240.352C142.896 240.426 143.424 240.63 143.883 240.947C144.343 241.264 144.721 241.684 144.987 242.175C145.315 242.831 147.302 241.509 147.958 236.551C148.615 231.592 147.63 229.259 146.637 229.122C145.643 228.985 145.816 227.299 144.167 227.299C142.392 227.412 140.627 227.634 138.88 227.964C138.019 227.705 137.133 227.54 136.236 227.472C135.243 227.472 134.085 226.643 133.42 226.479C132.754 226.314 121.862 221.848 121.862 221.848L121.443 221.629C132.472 215.34 148.113 204.211 148.113 204.211C148.113 204.211 152.607 203.928 154.576 202.242C155.91 201.048 157.131 199.733 158.222 198.313L161.594 196.909C161.552 194.702 160.868 192.555 159.626 190.729C157.684 188.205 156.836 187.083 156.836 187.083Z" fill="#263238" stroke="#263238" stroke-width="0.257033" stroke-linecap="round" stroke-linejoin="round"/>
<path d="M114.652 170.166L117.897 171.697C117.897 171.697 104.334 204.366 102.402 213.727C100.469 223.088 102.784 227.673 106.412 227.673C110.04 227.673 120.358 222.322 120.358 222.322" stroke="white" stroke-width="0.257033" stroke-linecap="round" stroke-linejoin="round"/>
<path d="M126.802 203.08C126.802 203.08 118.663 215.112 116.347 217.929" stroke="white" stroke-width="0.257033" stroke-linecap="round" stroke-linejoin="round"/>
<path d="M60.5908 31.0433C60.5908 31.0433 57.2821 26.4129 56.7899 25.4194C56.2976 24.4258 55.3041 27.2424 56.1245 28.8922C56.6496 29.9179 57.3187 30.8633 58.1115 31.6996C58.1115 31.6996 56.7898 35.6647 58.7678 37.3145" fill="white"/>
<path d="M60.5908 31.0433C60.5908 31.0433 57.2821 26.4129 56.7899 25.4194C56.2976 24.4258 55.3041 27.2424 56.1245 28.8922C56.6496 29.9179 57.3187 30.8633 58.1115 31.6996C58.1115 31.6996 56.7898 35.6647 58.7678 37.3145" stroke="#263238" stroke-width="0.257033" stroke-linecap="round" stroke-linejoin="round"/>
<path d="M166.863 37.2324C166.863 37.2324 170.162 32.6111 170.664 31.6176C171.165 30.624 172.15 33.4406 171.32 35.0904C170.796 36.1147 170.13 37.0598 169.342 37.8978C169.342 37.8978 170.664 41.8629 168.677 43.5127" fill="white"/>
<path d="M166.863 37.2324C166.863 37.2324 170.162 32.6111 170.664 31.6176C171.165 30.624 172.15 33.4406 171.32 35.0904C170.796 36.1147 170.13 37.0598 169.342 37.8978C169.342 37.8978 170.664 41.8629 168.677 43.5127" stroke="#263238" stroke-width="0.257033" stroke-linecap="round" stroke-linejoin="round"/>
<path d="M96.6044 110.508C96.6044 110.508 95.1187 117.8 95.1187 121.738C95.1187 125.676 99.0837 134.125 100.405 137.926C101.727 141.727 103.377 159.401 103.377 159.902C103.377 160.039 103.441 161.014 103.541 162.345C109.384 163.977 121.434 164.533 135.799 149.475C133.192 146.822 130.33 144.352 127.987 141.481C126.329 139.467 125.062 137.972 125.18 137.106C125.371 135.766 126.939 129.021 128.361 123.278L132.791 114.783C133.885 113.644 138.771 107.491 139.226 106.707C141.87 102.241 154.922 89.024 156.244 87.8664C157.566 86.7088 160.537 80.1095 162.852 70.1924C163.7 66.5463 164.675 62.2714 165.651 58.3428C163.787 57.9554 161.984 57.3176 160.291 56.4469C158.696 59.5642 157.128 62.6816 156.244 64.5775C153.929 69.5361 147.813 81.4312 147.813 81.4312L132.454 97.4554C132.454 97.4554 130.139 98.613 126.174 100.919C125.8 101.138 125.408 101.384 125.016 101.63L117.724 103.234L111.471 102.086C108.505 99.7736 105.416 97.6223 102.219 95.6415C98.2543 93.3354 95.939 92.1778 95.939 92.1778L80.5802 76.1536C80.5802 76.1536 74.464 64.3041 72.1488 59.2999C71.0824 57.0211 69.0406 52.9832 67.1447 49.2734C65.5479 49.9444 63.9171 50.5316 62.259 51.0326C63.3255 55.4625 64.5378 60.5942 65.5404 64.8874C67.8557 74.8046 70.8271 81.413 72.1488 82.5706C73.4705 83.7282 86.5232 96.9358 89.1666 101.402C91.3003 104.704 93.795 107.758 96.6044 110.508Z" fill="#619937"/>
<mask id="mask9_30_2343" style="mask-type:luminance" maskUnits="userSpaceOnUse" x="62" y="49" width="104" height="115">
<path d="M96.6044 110.508C96.6044 110.508 95.1187 117.8 95.1187 121.738C95.1187 125.676 99.0837 134.125 100.405 137.926C101.727 141.727 103.377 159.401 103.377 159.902C103.377 160.039 103.441 161.014 103.541 162.345C109.384 163.977 121.434 164.533 135.799 149.475C133.192 146.822 130.33 144.352 127.987 141.481C126.329 139.467 125.062 137.972 125.18 137.106C125.371 135.766 126.939 129.021 128.361 123.278L132.791 114.783C133.885 113.644 138.771 107.491 139.226 106.707C141.87 102.241 154.922 89.024 156.244 87.8664C157.566 86.7088 160.537 80.1095 162.852 70.1924C163.7 66.5463 164.675 62.2714 165.651 58.3428C163.787 57.9554 161.984 57.3176 160.291 56.4469C158.696 59.5642 157.128 62.6816 156.244 64.5775C153.929 69.5361 147.813 81.4312 147.813 81.4312L132.454 97.4554C132.454 97.4554 130.139 98.613 126.174 100.919C125.8 101.138 125.408 101.384 125.016 101.63L117.724 103.234L111.471 102.086C108.505 99.7736 105.416 97.6223 102.219 95.6415C98.2543 93.3354 95.939 92.1778 95.939 92.1778L80.5802 76.1536C80.5802 76.1536 74.464 64.3041 72.1488 59.2999C71.0824 57.0211 69.0406 52.9832 67.1447 49.2734C65.5479 49.9444 63.9171 50.5316 62.259 51.0326C63.3255 55.4625 64.5378 60.5942 65.5404 64.8874C67.8557 74.8046 70.8271 81.413 72.1488 82.5706C73.4705 83.7282 86.5232 96.9358 89.1666 101.402C91.3003 104.704 93.795 107.758 96.6044 110.508Z" fill="white"/>
</mask>
<g mask="url(#mask9_30_2343)">
<path d="M97.0602 92.7429C96.331 92.3601 95.939 92.1687 95.939 92.1687L95.0275 91.2116L87.5806 99.1781C88.1135 99.8516 88.6125 100.551 89.0754 101.275L97.0602 92.7429Z" fill="#263238"/>
<path d="M90.087 86.0616L88.3278 84.2386L80.1243 90.7194C80.6985 91.3301 81.2819 91.9499 81.847 92.5424L90.087 86.0616Z" fill="#263238"/>
<path d="M103.359 96.3251L102.219 95.6324L101.153 95.0126L92.0378 105.458C92.603 106.16 93.159 106.817 93.6877 107.409L103.359 96.3251Z" fill="#263238"/>
<path d="M82.7677 78.3868L73.2881 83.637L75.1111 85.46L84.536 80.228L82.7677 78.3868Z" fill="#263238"/>
<path d="M106.029 98.0934L102.082 102.496C101.902 102.552 101.737 102.649 101.599 102.779C101.426 102.948 101.311 103.168 101.271 103.408L95.7109 109.606C96.2578 110.171 96.6224 110.517 96.6224 110.517C96.6224 110.517 96.349 111.848 96.0391 113.689L97.0508 112.158C99.521 113.215 106.394 115.12 123.858 115.12C125.645 115.12 127.544 115.099 129.555 115.057C129.738 115.052 129.919 115.009 130.084 114.929C130.705 115.427 131.431 115.776 132.207 115.95L132.809 114.792C133.028 114.564 133.402 114.127 133.857 113.58C133.554 113.6 133.249 113.6 132.946 113.58C129.801 113.197 127.878 106.497 127.048 100.472L126.137 100.974C125.763 101.193 125.371 101.439 124.979 101.685L124.651 101.758C124.788 102.669 124.943 103.581 125.143 104.492C113.066 107.6 106.786 105.076 104.443 103.663L108.089 99.6157C107.46 99.0961 106.758 98.5948 106.029 98.0934ZM114.524 108.466C118.321 108.414 122.097 107.887 125.763 106.899C126.268 108.877 127.038 110.778 128.051 112.55C109.238 112.851 101.463 111.037 98.6916 110.071L102.766 105.513C104.498 106.643 108.199 108.466 114.524 108.466Z" fill="#263238"/>
<path d="M73.9261 62.9733L65.8958 66.3732C66.1145 67.23 66.3242 68.0503 66.5429 68.8524L75.0564 65.2064L73.9261 62.9733Z" fill="#263238"/>
<path d="M70.2162 55.3257L63.8357 57.6865C64.0271 58.516 64.2276 59.3364 64.4191 60.1567L71.3374 57.6045L70.2162 55.3257Z" fill="#263238"/>
<path d="M78.8757 72.8084C78.5203 72.1247 78.1374 71.3591 77.7273 70.557L68.7581 75.8163C69.0771 76.6822 69.387 77.4753 69.6696 78.1862L78.8757 72.8084Z" fill="#263238"/>
<path d="M151.741 73.7016C151.34 74.5129 150.939 75.3059 150.556 76.0533C153.045 78.3047 155.907 80.7749 158.878 83.0445C159.188 82.2971 159.498 81.4768 159.79 80.5744C156.937 78.3321 154.147 75.8984 151.741 73.7016Z" fill="#263238"/>
<path d="M125.654 134.763C125.818 134.007 126.019 133.104 126.246 132.12C112.948 133.943 103.167 132.348 97.6252 130.844C98.0172 131.856 98.4091 132.849 98.792 133.788C103.92 134.975 109.17 135.556 114.433 135.52C118.186 135.513 121.934 135.261 125.654 134.763Z" fill="#263238"/>
<path d="M154.813 67.5399C157.223 69.2973 159.721 70.931 162.296 72.4347C162.488 71.7055 162.67 70.958 162.852 70.1924C162.852 70.083 162.852 69.9645 162.925 69.8551C160.517 68.4291 158.184 66.8805 155.934 65.2156C155.615 65.9083 155.232 66.6922 154.813 67.5399Z" fill="#263238"/>
<path d="M95.1277 121.328C95.1277 121.464 95.1277 121.61 95.1277 121.738C95.1456 122.453 95.2342 123.164 95.392 123.862C100.779 123.461 111.927 123.205 127.787 125.685C127.978 124.883 128.179 124.08 128.37 123.296V123.214C112.027 120.617 100.661 120.89 95.1277 121.328Z" fill="#263238"/>
<path d="M132.663 146.394C132.034 145.792 131.424 145.182 130.84 144.571C121.333 150.952 110.022 153.558 102.903 154.598C103.003 155.509 103.085 156.421 103.158 157.15C110.596 156.101 122.555 153.376 132.663 146.394Z" fill="#263238"/>
<path d="M101.563 143.805C101.681 144.626 101.8 145.492 101.918 146.376C102.83 146.376 103.887 146.376 104.981 146.376C113.217 146.459 121.418 145.301 129.309 142.939C128.862 142.447 128.398 141.955 127.987 141.435L127.495 140.843C117.815 143.742 107.688 144.015 101.563 143.805Z" fill="#263238"/>
<path d="M145.944 83.3727C148.122 86.1072 150.501 88.7414 152.871 91.2025L154.694 89.3795C152.324 86.8911 149.909 84.2021 147.74 81.5132L145.944 83.3727Z" fill="#263238"/>
<path d="M146.655 97.738L148.387 95.915C145.62 93.7979 143.106 91.3694 140.894 88.6776L139.126 90.5006C141.358 93.1858 143.884 95.6133 146.655 97.738Z" fill="#263238"/>
<path d="M139.226 106.707C139.524 106.209 139.85 105.729 140.201 105.267C138.789 102.605 136.729 98.6495 134.906 94.885L133.083 96.8356C135.097 100.965 137.321 105.185 138.624 107.6C138.907 107.163 139.135 106.844 139.226 106.707Z" fill="#263238"/>
<path opacity="0.25" d="M165.414 58.3337C161.513 66.9383 154.056 83.3818 152.58 86.6541C150.565 91.1387 134.66 107.263 131.971 108.831C129.282 110.399 127.714 114.209 126.593 118.238C125.526 122.075 122.436 125.101 122.145 129.249C120.613 128.082 117.587 127.107 113.376 126.751C105.309 126.077 97.6982 128.1 97.6982 120.708C97.6982 113.316 102.402 106.124 102.629 103.9C102.857 101.676 98.3728 105.723 96.1305 104.128C93.8882 102.532 78.657 85.0863 74.1724 79.517C71.3194 75.9439 66.2514 61.1594 62.9518 50.905L62.259 51.1237C63.3255 55.5536 64.5378 60.6854 65.5404 64.9786C67.8557 74.8957 70.8271 81.5041 72.1488 82.6526C73.4705 83.8011 86.5232 97.027 89.1666 101.493C91.2998 104.798 93.7944 107.856 96.6044 110.608C96.6044 110.608 95.1187 117.9 95.1187 121.838C95.1187 125.776 99.0837 134.225 100.405 138.026C101.727 141.827 103.377 159.501 103.377 160.003C103.377 160.139 103.441 161.115 103.541 162.446C104.348 162.668 105.166 162.844 105.993 162.974C105.838 156.047 104.689 141.609 106.658 138.455C108.8 135.028 119.137 134.873 122.154 132.913C122.282 136.57 123.59 140.087 125.882 142.939C127.514 145.081 131.232 148.007 134.796 150.569L135.763 149.584C133.156 146.932 130.294 144.462 127.951 141.59C126.292 139.576 125.025 138.081 125.144 137.215C125.335 135.875 126.903 129.13 128.325 123.388L132.755 114.892C133.848 113.753 138.734 107.6 139.19 106.817C141.833 102.35 154.886 89.1334 156.208 87.9758C157.529 86.8182 160.501 80.2189 162.816 70.3017C163.664 66.6557 164.639 62.3808 165.614 58.4522L165.414 58.3337Z" fill="black"/>
</g>
<path d="M96.6044 110.508C96.6044 110.508 95.1187 117.8 95.1187 121.738C95.1187 125.676 99.0837 134.125 100.405 137.926C101.727 141.727 103.377 159.401 103.377 159.902C103.377 160.039 103.441 161.014 103.541 162.345C109.384 163.977 121.434 164.533 135.799 149.475C133.192 146.822 130.33 144.352 127.987 141.481C126.329 139.467 125.062 137.972 125.18 137.106C125.371 135.766 126.939 129.021 128.361 123.278L132.791 114.783C133.885 113.644 138.771 107.491 139.226 106.707C141.87 102.241 154.922 89.024 156.244 87.8664C157.566 86.7088 160.537 80.1095 162.852 70.1924C163.7 66.5463 164.675 62.2714 165.651 58.3428C163.787 57.9554 161.984 57.3176 160.291 56.4469C158.696 59.5642 157.128 62.6816 156.244 64.5775C153.929 69.5361 147.813 81.4312 147.813 81.4312L132.454 97.4554C132.454 97.4554 130.139 98.613 126.174 100.919C125.8 101.138 125.408 101.384 125.016 101.63L117.724 103.234L111.471 102.086C108.505 99.7736 105.416 97.6223 102.219 95.6415C98.2543 93.3354 95.939 92.1778 95.939 92.1778L80.5802 76.1536C80.5802 76.1536 74.464 64.3041 72.1488 59.2999C71.0824 57.0211 69.0406 52.9832 67.1447 49.2734C65.5479 49.9444 63.9171 50.5316 62.259 51.0326C63.3255 55.4625 64.5378 60.5942 65.5404 64.8874C67.8557 74.8046 70.8271 81.413 72.1488 82.5706C73.4705 83.7282 86.5232 96.9358 89.1666 101.402C91.3003 104.704 93.795 107.758 96.6044 110.508Z" stroke="#263238" stroke-width="0.257033" stroke-linecap="round" stroke-linejoin="round"/>
<path d="M109.821 89.1881C109.821 89.1881 109.985 99.5974 109.156 102.077C108.326 104.556 103.687 109.369 105.692 113.316C107.697 117.262 114.944 112.814 117.541 108.029C120.139 103.243 118.872 101.749 118.872 101.749V94.4566L109.821 89.1881Z" fill="white"/>
<mask id="mask10_30_2343" style="mask-type:luminance" maskUnits="userSpaceOnUse" x="105" y="89" width="15" height="26">
<path d="M109.821 89.1881C109.821 89.1881 109.985 99.5974 109.156 102.077C108.326 104.556 103.687 109.369 105.692 113.316C107.697 117.262 114.944 112.814 117.541 108.029C120.139 103.243 118.872 101.749 118.872 101.749V94.4566L109.821 89.1881Z" fill="white"/>
</mask>
<g mask="url(#mask10_30_2343)">
<path d="M118.909 94.4748L109.794 89.1881C109.794 89.1881 109.958 99.5974 109.129 102.077C109.008 102.42 108.858 102.752 108.682 103.07C110.413 103.63 112.269 103.671 114.023 103.189C115.867 102.412 117.524 101.25 118.882 99.7797L118.909 94.4748Z" fill="#619937"/>
<path opacity="0.5" d="M118.909 94.4748L109.794 89.1881C109.794 89.1881 109.958 99.5974 109.129 102.077C109.008 102.42 108.858 102.752 108.682 103.07C110.413 103.63 112.269 103.671 114.023 103.189C115.867 102.412 117.524 101.25 118.882 99.7797L118.909 94.4748Z" fill="white"/>
</g>
<path d="M109.821 89.1881C109.821 89.1881 109.985 99.5974 109.156 102.077C108.326 104.556 103.687 109.369 105.692 113.316C107.697 117.262 114.944 112.814 117.541 108.029C120.139 103.243 118.872 101.749 118.872 101.749V94.4566L109.821 89.1881Z" stroke="#263238" stroke-width="0.257033" stroke-linecap="round" stroke-linejoin="round"/>
<path d="M107.998 82.2515C107.998 82.2515 104.863 79.28 104.033 81.4312C103.204 83.5823 105.355 86.7179 106.512 87.046L107.67 87.3742C108.183 89.7289 109.327 91.8997 110.979 93.6544C113.622 96.2978 116.594 97.6195 119.893 95.9696C123.193 94.3198 125.845 90.1816 126.666 85.2321C127.165 82.7865 127.333 80.2848 127.167 77.7943C127.167 76.9648 125.681 71.0218 121.379 69.5361C117.077 68.0503 117.578 69.8642 114.278 73.6652C111.994 76.3826 109.896 79.2512 107.998 82.2515Z" fill="white"/>
<mask id="mask11_30_2343" style="mask-type:luminance" maskUnits="userSpaceOnUse" x="103" y="69" width="25" height="28">
<path d="M107.998 82.2515C107.998 82.2515 104.863 79.28 104.033 81.4312C103.204 83.5823 105.355 86.7179 106.512 87.046L107.67 87.3742C108.183 89.7289 109.327 91.8997 110.979 93.6544C113.622 96.2978 116.594 97.6195 119.893 95.9696C123.193 94.3198 125.845 90.1816 126.666 85.2321C127.165 82.7865 127.333 80.2848 127.167 77.7943C127.167 76.9648 125.681 71.0218 121.379 69.5361C117.077 68.0503 117.578 69.8642 114.278 73.6652C111.994 76.3826 109.896 79.2512 107.998 82.2515Z" fill="white"/>
</mask>
<g mask="url(#mask11_30_2343)">
<path d="M126.265 74.7408C126.538 77.4753 126.994 84.5667 125.025 87.9666C122.564 92.2143 120.094 96.2522 115.172 94.2378C110.25 92.2234 108.673 87.0643 108.673 87.0643C108.673 87.0643 107.333 87.2921 105.309 85.4965C105.102 85.3024 104.861 85.148 104.598 85.0407C104.999 85.9035 105.671 86.6111 106.513 87.0551L107.67 87.3833C108.183 89.738 109.327 91.9088 110.979 93.6635C113.622 96.3069 116.594 97.6286 119.893 95.9788C123.193 94.3289 125.846 90.1907 126.666 85.2413C127.165 82.7956 127.334 80.294 127.167 77.8034C127.021 76.7433 126.717 75.711 126.265 74.7408Z" fill="#619937"/>
<path opacity="0.5" d="M126.265 74.7408C126.538 77.4753 126.994 84.5667 125.025 87.9666C122.564 92.2143 120.094 96.2522 115.172 94.2378C110.25 92.2234 108.673 87.0643 108.673 87.0643C108.673 87.0643 107.333 87.2921 105.309 85.4965C105.102 85.3024 104.861 85.148 104.598 85.0407C104.999 85.9035 105.671 86.6111 106.513 87.0551L107.67 87.3833C108.183 89.738 109.327 91.9088 110.979 93.6635C113.622 96.3069 116.594 97.6286 119.893 95.9788C123.193 94.3289 125.846 90.1907 126.666 85.2413C127.165 82.7956 127.334 80.294 127.167 77.8034C127.021 76.7433 126.717 75.711 126.265 74.7408Z" fill="white"/>
</g>
<path d="M107.998 82.2515C107.998 82.2515 104.863 79.28 104.033 81.4312C103.204 83.5823 105.355 86.7179 106.512 87.046L107.67 87.3742C108.183 89.7289 109.327 91.8997 110.979 93.6544C113.622 96.2978 116.594 97.6195 119.893 95.9696C123.193 94.3198 125.845 90.1816 126.666 85.2321C127.165 82.7865 127.333 80.2848 127.167 77.7943C127.167 76.9648 125.681 71.0218 121.379 69.5361C117.077 68.0503 117.578 69.8642 114.278 73.6652C111.994 76.3826 109.896 79.2512 107.998 82.2515Z" stroke="#263238" stroke-width="0.257033" stroke-linecap="round" stroke-linejoin="round"/>
<path d="M121.716 78.9519C121.716 78.9519 120.559 81.0939 121.051 81.5953C121.543 82.0966 123.202 83.081 122.373 83.5732C121.59 83.9113 120.746 84.082 119.893 84.0746" stroke="#263238" stroke-width="0.257033" stroke-linecap="round" stroke-linejoin="round"/>
<path d="M115.108 84.7673C115.108 84.7673 117.086 87.0825 123.366 86.253C123.366 86.253 119.565 90.054 117.897 90.054C116.229 90.054 115.108 84.7673 115.108 84.7673Z" stroke="#263238" stroke-width="0.257033" stroke-linecap="round" stroke-linejoin="round"/>
<path d="M113.95 79.4441C113.95 79.4441 116.265 78.6238 117.596 79.9454" stroke="#263238" stroke-width="0.257033" stroke-linecap="round" stroke-linejoin="round"/>
<path d="M122.208 80.7658C122.208 80.7658 124.852 79.9454 125.344 81.7593" stroke="#263238" stroke-width="0.257033" stroke-linecap="round" stroke-linejoin="round"/>
<path d="M113.786 76.6367C114.304 76.0379 115 75.6197 115.772 75.4427C116.544 75.2657 117.352 75.3391 118.079 75.6523" stroke="#263238" stroke-width="0.257033" stroke-linecap="round" stroke-linejoin="round"/>
<path d="M122.537 77.4753C122.537 77.4753 124.688 75.4882 126.183 79.1251" stroke="#263238" stroke-width="0.257033" stroke-linecap="round" stroke-linejoin="round"/>
</svg>
