<svg width="553" height="412" viewBox="0 0 553 412" fill="none" xmlns="http://www.w3.org/2000/svg">
<path d="M552.554 361.812H0V362.088H552.554V361.812Z" fill="#EBEBEB"/>
<path d="M497.188 379.593H460.587V379.87H497.188V379.593Z" fill="#EBEBEB"/>
<path d="M366.034 382.599H356.43V382.876H366.034V382.599Z" fill="#EBEBEB"/>
<path d="M459.481 369.338H438.274V369.614H459.481V369.338Z" fill="#EBEBEB"/>
<path d="M105.703 371.195H57.9739V371.471H105.703V371.195Z" fill="#EBEBEB"/>
<path d="M122.545 371.195H115.55V371.471H122.545V371.195Z" fill="#EBEBEB"/>
<path d="M248.815 375.858H145.288V376.134H248.815V375.858Z" fill="#EBEBEB"/>
<path d="M261.91 312.524H48.5252C46.8536 312.521 45.2514 311.855 44.0704 310.672C42.8894 309.489 42.2261 307.886 42.2261 306.214V6.25491C42.2407 4.59285 42.9104 3.00366 44.0898 1.83251C45.2693 0.66136 46.8631 0.00284718 48.5252 0H261.91C263.584 0 265.189 0.664819 266.372 1.8482C267.556 3.03159 268.221 4.6366 268.221 6.31016V306.214C268.221 307.888 267.556 309.493 266.372 310.676C265.189 311.859 263.584 312.524 261.91 312.524ZM48.5252 0.221022C46.9269 0.22395 45.395 0.86095 44.2658 1.99221C43.1366 3.12346 42.5024 4.65653 42.5024 6.25491V306.214C42.5024 307.813 43.1366 309.346 44.2658 310.477C45.395 311.608 46.9269 312.245 48.5252 312.248H261.91C263.51 312.245 265.043 311.608 266.174 310.478C267.305 309.347 267.941 307.814 267.944 306.214V6.25491C267.941 4.65552 267.305 3.12247 266.174 1.99153C265.043 0.860591 263.51 0.223944 261.91 0.221022H48.5252Z" fill="#EBEBEB"/>
<path d="M500.956 312.524H287.56C285.887 312.521 284.284 311.856 283.101 310.673C281.918 309.49 281.253 307.887 281.25 306.214V6.25491C281.267 4.59185 281.939 3.00266 283.121 1.83182C284.302 0.660974 285.897 0.00281613 287.56 0H500.956C502.616 0.00575153 504.207 0.66555 505.384 1.83639C506.561 3.00723 507.23 4.59476 507.244 6.25491V306.214C507.244 307.884 506.582 309.486 505.404 310.668C504.225 311.851 502.626 312.518 500.956 312.524ZM287.56 0.221022C285.961 0.223944 284.428 0.860591 283.297 1.99153C282.166 3.12247 281.529 4.65552 281.526 6.25491V306.214C281.529 307.814 282.166 309.347 283.297 310.478C284.428 311.608 285.961 312.245 287.56 312.248H500.956C502.556 312.245 504.089 311.608 505.22 310.478C506.35 309.347 506.987 307.814 506.99 306.214V6.25491C506.987 4.65552 506.35 3.12247 505.22 1.99153C504.089 0.860591 502.556 0.223944 500.956 0.221022H287.56Z" fill="#EBEBEB"/>
<path d="M94.3762 201.98H100.598L100.598 71.0253H94.3762L94.3762 201.98Z" fill="#E0E0E0"/>
<path d="M216.369 71.0364H97.9677V201.992H216.369V71.0364Z" fill="#E0E0E0"/>
<path d="M220.148 71.0364H97.3378V201.992H220.148V71.0364Z" fill="#F0F0F0"/>
<path d="M214.954 75.2136H102.344V195.969H214.954V75.2136Z" fill="white"/>
<path d="M214.954 75.2136H211.694V195.969H214.954V75.2136Z" fill="#E0E0E0"/>
<path d="M102.046 162.042V165.302H212.037V162.042H102.046Z" fill="#E0E0E0"/>
<path d="M214.954 156.583H100.598V162.053H214.954V156.583Z" fill="#F0F0F0"/>
<path d="M302.479 359.768H465.383V153.477L302.479 153.477V359.768Z" fill="#F0F0F0"/>
<path d="M308.237 205.097L459.625 205.097V160.981L308.237 160.981V205.097Z" fill="#E0E0E0"/>
<path d="M451.016 205.097H459.614V168.131H451.016V205.097Z" fill="#EBEBEB"/>
<path d="M409.431 205.097H418.029V168.131H409.431V205.097Z" fill="#EBEBEB"/>
<path d="M355.954 203.635L364.427 205.095L370.706 168.666L362.233 167.206L355.954 203.635Z" fill="#EBEBEB"/>
<path d="M440.374 205.097H448.972V172.994H440.374V205.097Z" fill="#EBEBEB"/>
<path d="M420.593 205.097H429.19V172.994H420.593V205.097Z" fill="#EBEBEB"/>
<path d="M370.697 205.097H379.295V172.994H370.697V205.097Z" fill="#EBEBEB"/>
<path d="M391.193 203.23L399.586 205.095L406.551 173.757L398.158 171.891L391.193 203.23Z" fill="#EBEBEB"/>
<path d="M432.937 205.097H437.236V166.286H432.937V205.097Z" fill="#EBEBEB"/>
<path d="M381.781 205.097H386.08V166.286H381.781V205.097Z" fill="#EBEBEB"/>
<path d="M459.614 212.092H308.225V256.208H459.614V212.092Z" fill="#E0E0E0"/>
<path d="M316.823 219.231H308.225V256.197H316.823V219.231Z" fill="#EBEBEB"/>
<path d="M358.408 219.231H349.811V256.197H358.408V219.231Z" fill="#EBEBEB"/>
<path d="M405.622 218.296L397.149 219.756L403.428 256.185L411.901 254.725L405.622 218.296Z" fill="#EBEBEB"/>
<path d="M327.487 224.105H318.89V256.208H327.487V224.105Z" fill="#EBEBEB"/>
<path d="M347.247 224.105H338.649V256.208H347.247V224.105Z" fill="#EBEBEB"/>
<path d="M397.142 224.105H388.545V256.208H397.142V224.105Z" fill="#EBEBEB"/>
<path d="M369.718 222.987L361.325 224.852L368.29 256.191L376.683 254.325L369.718 222.987Z" fill="#EBEBEB"/>
<path d="M334.925 217.397H330.626V256.208H334.925V217.397Z" fill="#EBEBEB"/>
<path d="M386.069 217.397H381.77V256.208H386.069V217.397Z" fill="#EBEBEB"/>
<path d="M451.016 256.197H459.614V219.231H451.016V256.197Z" fill="#EBEBEB"/>
<path d="M440.374 256.197H448.972V224.094H440.374V256.197Z" fill="#EBEBEB"/>
<path d="M420.593 256.197H429.19V224.094H420.593V256.197Z" fill="#EBEBEB"/>
<path d="M432.937 256.197H437.236V217.386H432.937V256.197Z" fill="#EBEBEB"/>
<path d="M308.237 307.297H459.625V263.181H308.237V307.297Z" fill="#E0E0E0"/>
<path d="M364.122 307.297H372.719V270.331H364.122V307.297Z" fill="#EBEBEB"/>
<path d="M310.648 305.822L319.121 307.282L325.4 270.854L316.927 269.393L310.648 305.822Z" fill="#EBEBEB"/>
<path d="M395.065 307.297H403.662V275.194H395.065V307.297Z" fill="#EBEBEB"/>
<path d="M375.294 307.297H383.892V275.194H375.294V307.297Z" fill="#EBEBEB"/>
<path d="M325.388 307.297H333.985V275.194H325.388V307.297Z" fill="#EBEBEB"/>
<path d="M345.891 305.417L354.284 307.282L361.249 275.943L352.856 274.078L345.891 305.417Z" fill="#EBEBEB"/>
<path d="M387.627 307.297H391.926V268.486H387.627V307.297Z" fill="#EBEBEB"/>
<path d="M336.472 307.297H340.771V268.486H336.472V307.297Z" fill="#EBEBEB"/>
<path d="M409.59 305.824L418.063 307.285L424.342 270.856L415.869 269.396L409.59 305.824Z" fill="#EBEBEB"/>
<path d="M424.339 307.297H432.937V275.194H424.339V307.297Z" fill="#EBEBEB"/>
<path d="M444.834 305.413L453.227 307.278L460.192 275.939L451.799 274.074L444.834 305.413Z" fill="#EBEBEB"/>
<path d="M435.401 307.297H439.7V268.486H435.401V307.297Z" fill="#EBEBEB"/>
<path d="M194.941 232.935H100.388C97.9466 232.93 95.5282 233.407 93.2713 234.338C91.0143 235.269 88.963 236.636 87.2346 238.36C85.5062 240.084 84.1347 242.132 83.1984 244.387C82.2621 246.642 81.7794 249.059 81.778 251.5V325.344H213.518V251.5C213.518 249.061 213.037 246.646 212.103 244.393C211.17 242.14 209.801 240.093 208.076 238.369C206.351 236.644 204.303 235.277 202.049 234.345C199.795 233.412 197.38 232.933 194.941 232.935Z" fill="#E6E6E6"/>
<path d="M241.477 287.659H224.558C221.627 287.659 218.816 288.824 216.744 290.896C214.671 292.969 213.507 295.78 213.507 298.71V359.768H252.495V298.699C252.492 295.776 251.331 292.973 249.266 290.904C247.201 288.835 244.4 287.668 241.477 287.659Z" fill="#E0E0E0"/>
<path d="M241.477 287.659H241.112C238.181 287.659 235.37 288.824 233.298 290.896C231.226 292.969 230.061 295.78 230.061 298.71V359.768H252.484V298.699C252.481 295.778 251.321 292.977 249.259 290.908C247.196 288.839 244.398 287.671 241.477 287.659Z" fill="#EBEBEB"/>
<path d="M225.364 331.709H95.5918V359.757H225.364V331.709Z" fill="#E6E6E6"/>
<path d="M225.541 306.059H100.388C94.1931 306.059 89.1711 311.081 89.1711 317.276V324.272C89.1711 330.466 94.1931 335.488 100.388 335.488H225.541C231.736 335.488 236.758 330.466 236.758 324.272V317.276C236.758 311.081 231.736 306.059 225.541 306.059Z" fill="#F5F5F5"/>
<path d="M116.125 306.059H100.598C94.403 306.059 89.3811 311.081 89.3811 317.276V324.272C89.3811 330.466 94.403 335.488 100.598 335.488H116.125C122.32 335.488 127.342 330.466 127.342 324.272V317.276C127.342 311.081 122.32 306.059 116.125 306.059Z" fill="#E0E0E0"/>
<path d="M98.9181 287.659H81.9989C79.068 287.659 76.2571 288.824 74.1847 290.896C72.1122 292.969 70.9479 295.78 70.9479 298.71V359.768H109.958V298.699C109.955 295.772 108.791 292.966 106.721 290.896C104.652 288.826 101.845 287.662 98.9181 287.659Z" fill="#E0E0E0"/>
<path d="M98.9181 287.659H98.5645C95.6336 287.659 92.8227 288.824 90.7502 290.896C88.6777 292.969 87.5134 295.78 87.5134 298.71V359.768H109.958V298.699C109.955 295.772 108.791 292.966 106.721 290.896C104.652 288.826 101.845 287.662 98.9181 287.659Z" fill="#F0F0F0"/>
<path d="M379.803 104.466C392.23 104.466 402.303 94.3923 402.303 81.9659C402.303 69.5395 392.23 59.4659 379.803 59.4659C367.377 59.4659 357.303 69.5395 357.303 81.9659C357.303 94.3923 367.377 104.466 379.803 104.466Z" fill="#E0E0E0"/>
<path d="M398.705 85.0381C400.398 74.6097 393.316 64.7836 382.888 63.0908C372.459 61.398 362.633 68.4796 360.94 78.908C359.248 89.3364 366.329 99.1625 376.758 100.855C387.186 102.548 397.012 95.4665 398.705 85.0381Z" fill="#F0F0F0"/>
<path d="M378.908 68.8372V82.209L370.045 77.1918" fill="#F0F0F0"/>
<path d="M378.908 83.1704C378.74 83.171 378.576 83.1251 378.433 83.0378L369.592 78.0316C369.384 77.8989 369.236 77.6914 369.177 77.4521C369.117 77.2128 369.152 76.96 369.274 76.7458C369.396 76.5316 369.596 76.3724 369.832 76.3012C370.068 76.2299 370.322 76.252 370.542 76.3629L377.969 80.5734V68.8372C377.994 68.6013 378.106 68.3832 378.282 68.2248C378.459 68.0663 378.688 67.9786 378.925 67.9786C379.162 67.9786 379.391 68.0663 379.567 68.2248C379.744 68.3832 379.855 68.6013 379.881 68.8372V82.209C379.882 82.3768 379.838 82.5418 379.755 82.6874C379.671 82.833 379.551 82.9539 379.405 83.0378C379.256 83.1291 379.083 83.1752 378.908 83.1704Z" fill="#E0E0E0"/>
<path d="M276.277 411.73C394.614 411.73 490.546 404.917 490.546 396.512C490.546 388.108 394.614 381.295 276.277 381.295C157.939 381.295 62.0076 388.108 62.0076 396.512C62.0076 404.917 157.939 411.73 276.277 411.73Z" fill="#F5F5F5"/>
<path d="M429.511 166.672H399.673C396.956 166.672 394.35 167.752 392.429 169.673C390.508 171.594 389.429 174.2 389.429 176.917V189.272C389.429 191.989 390.508 194.594 392.429 196.516C394.35 198.437 396.956 199.516 399.673 199.516H412.426L415.852 210.335L419.311 199.516H429.456C432.173 199.516 434.778 198.437 436.7 196.516C438.621 194.594 439.7 191.989 439.7 189.272V176.917C439.7 174.209 438.628 171.612 436.719 169.692C434.81 167.773 432.218 166.687 429.511 166.672Z" fill="#619937"/>
<path d="M403.01 182.343C403.01 182.752 402.889 183.151 402.662 183.491C402.435 183.831 402.112 184.096 401.735 184.252C401.357 184.408 400.942 184.449 400.541 184.37C400.14 184.29 399.772 184.093 399.483 183.804C399.194 183.515 398.997 183.147 398.917 182.746C398.837 182.345 398.878 181.93 399.035 181.552C399.191 181.174 399.456 180.852 399.796 180.625C400.136 180.397 400.535 180.276 400.944 180.276C401.215 180.276 401.484 180.33 401.735 180.434C401.985 180.537 402.213 180.69 402.405 180.882C402.597 181.073 402.749 181.301 402.853 181.552C402.957 181.803 403.01 182.071 403.01 182.343ZM410.061 180.276C409.652 180.276 409.253 180.397 408.913 180.625C408.573 180.852 408.308 181.174 408.152 181.552C407.995 181.93 407.954 182.345 408.034 182.746C408.114 183.147 408.311 183.515 408.6 183.804C408.889 184.093 409.257 184.29 409.658 184.37C410.059 184.449 410.474 184.408 410.852 184.252C411.23 184.096 411.552 183.831 411.779 183.491C412.006 183.151 412.128 182.752 412.128 182.343C412.116 181.802 411.893 181.288 411.507 180.91C411.121 180.532 410.602 180.32 410.061 180.32V180.276ZM419.178 180.276C418.769 180.276 418.37 180.397 418.03 180.625C417.69 180.852 417.425 181.174 417.269 181.552C417.113 181.93 417.072 182.345 417.151 182.746C417.231 183.147 417.428 183.515 417.717 183.804C418.006 184.093 418.374 184.29 418.775 184.37C419.176 184.449 419.591 184.408 419.969 184.252C420.347 184.096 420.669 183.831 420.896 183.491C421.124 183.151 421.245 182.752 421.245 182.343C421.233 181.802 421.01 181.288 420.624 180.91C420.238 180.532 419.719 180.32 419.178 180.32V180.276ZM428.295 180.276C427.887 180.276 427.487 180.397 427.147 180.625C426.807 180.852 426.543 181.174 426.386 181.552C426.23 181.93 426.189 182.345 426.268 182.746C426.348 183.147 426.545 183.515 426.834 183.804C427.123 184.093 427.491 184.29 427.892 184.37C428.293 184.449 428.709 184.408 429.086 184.252C429.464 184.096 429.787 183.831 430.014 183.491C430.241 183.151 430.362 182.752 430.362 182.343C430.35 181.802 430.128 181.288 429.741 180.91C429.355 180.532 428.836 180.32 428.295 180.32V180.276Z" fill="white"/>
<path d="M123.219 203.141H93.4369C92.0915 203.141 90.7594 203.406 89.5165 203.921C88.2736 204.435 87.1443 205.19 86.193 206.141C85.2417 207.093 84.4871 208.222 83.9723 209.465C83.4575 210.708 83.1925 212.04 83.1925 213.385V225.74C83.1925 228.457 84.2718 231.063 86.193 232.984C88.1142 234.905 90.7199 235.985 93.4369 235.985H106.19L109.616 246.793L113.075 235.985H123.219C125.936 235.985 128.542 234.905 130.463 232.984C132.385 231.063 133.464 228.457 133.464 225.74V213.385C133.464 212.04 133.199 210.708 132.684 209.465C132.169 208.222 131.415 207.093 130.463 206.141C129.512 205.19 128.383 204.435 127.14 203.921C125.897 203.406 124.565 203.141 123.219 203.141Z" fill="#619937"/>
<path d="M96.719 218.811C96.719 219.22 96.5978 219.62 96.3707 219.959C96.1436 220.299 95.8209 220.564 95.4433 220.721C95.0656 220.877 94.6501 220.918 94.2493 220.838C93.8484 220.758 93.4802 220.562 93.1912 220.273C92.9021 219.984 92.7053 219.615 92.6256 219.214C92.5458 218.814 92.5868 218.398 92.7432 218.02C92.8996 217.643 93.1645 217.32 93.5043 217.093C93.8442 216.866 94.2437 216.745 94.6524 216.745C95.2005 216.745 95.7261 216.962 96.1137 217.35C96.5013 217.738 96.719 218.263 96.719 218.811ZM103.77 216.745C103.361 216.745 102.961 216.866 102.621 217.093C102.282 217.32 102.017 217.643 101.86 218.02C101.704 218.398 101.663 218.814 101.743 219.214C101.822 219.615 102.019 219.984 102.308 220.273C102.597 220.562 102.966 220.758 103.366 220.838C103.767 220.918 104.183 220.877 104.56 220.721C104.938 220.564 105.261 220.299 105.488 219.959C105.715 219.62 105.836 219.22 105.836 218.811C105.827 218.27 105.605 217.754 105.219 217.375C104.832 216.997 104.311 216.786 103.77 216.789V216.745ZM112.887 216.745C112.477 216.74 112.075 216.858 111.733 217.082C111.39 217.307 111.122 217.628 110.962 218.005C110.802 218.382 110.758 218.798 110.835 219.201C110.912 219.603 111.107 219.973 111.395 220.265C111.684 220.556 112.052 220.755 112.453 220.836C112.855 220.918 113.271 220.878 113.65 220.723C114.029 220.567 114.353 220.302 114.581 219.962C114.809 219.621 114.931 219.221 114.931 218.811C114.922 218.274 114.704 217.761 114.321 217.383C113.939 217.005 113.424 216.792 112.887 216.789V216.745ZM122.004 216.745C121.595 216.745 121.196 216.866 120.856 217.093C120.516 217.32 120.251 217.643 120.095 218.02C119.938 218.398 119.897 218.814 119.977 219.214C120.057 219.615 120.254 219.984 120.543 220.273C120.832 220.562 121.2 220.758 121.601 220.838C122.002 220.918 122.417 220.877 122.795 220.721C123.172 220.564 123.495 220.299 123.722 219.959C123.949 219.62 124.07 219.22 124.07 218.811C124.062 218.27 123.84 217.754 123.453 217.375C123.066 216.997 122.545 216.786 122.004 216.789V216.745Z" fill="white"/>
<path d="M456.409 398.06H316.149C289.947 398.06 288.267 367.205 309.806 352.684C313.743 350.066 318.102 348.144 322.691 347.004C365.337 335.787 425.256 260.385 467.46 291.936L467.582 292.025C509.62 323.796 480.235 398.06 456.409 398.06Z" fill="#263238"/>
<path opacity="0.5" d="M456.409 398.06H316.149C289.947 398.06 288.267 367.205 309.806 352.684C313.743 350.066 318.102 348.144 322.691 347.004C365.337 335.787 425.256 260.385 467.46 291.936L467.582 292.025C509.62 323.796 480.235 398.06 456.409 398.06Z" fill="white"/>
<path opacity="0.2" d="M467.35 291.881C463.813 291.649 459.526 292.644 454.906 296.511C442.916 306.568 461.15 354.983 432.473 375.118C416.471 386.357 347.435 391.308 324.393 377.527C307.386 367.349 307.165 360.95 309.806 352.684C313.743 350.066 318.102 348.144 322.691 347.004C365.282 335.732 425.201 260.33 467.35 291.881Z" fill="black"/>
<path d="M358.298 282.753L349.932 276.863L356.187 270.464C356.187 270.464 362.608 273.779 362 279.692L358.298 282.753Z" fill="#E4897B"/>
<path d="M346.65 270.364L352.452 266.718L356.187 270.464L349.932 276.863L346.65 270.364Z" fill="#E4897B"/>
<path d="M399.452 267.535C391.528 269.867 387.627 283.803 381.085 296.964L362.044 278.045L355.988 283.416C355.988 283.416 373.427 311.121 381.66 311.121C391.937 311.121 402.602 282.576 402.602 282.576L399.452 267.535Z" fill="#263238"/>
<path opacity="0.1" d="M402.602 282.576C402.602 282.576 400.911 287.096 398.181 292.522C395.584 297.804 392.048 303.96 388.235 307.684C386.08 309.773 383.815 311.099 381.605 311.099C373.371 311.099 355.933 283.394 355.933 283.394L361.989 278.023L381.03 296.942C387.572 283.78 391.462 269.845 399.408 267.513L402.602 282.576Z" fill="white"/>
<path opacity="0.2" d="M398.225 292.544C395.628 297.826 392.092 303.982 388.279 307.706C388.688 295.075 394.91 282.753 394.91 282.753C396.625 285.777 397.751 289.1 398.225 292.544Z" fill="black"/>
<path d="M391.871 344.517C391.871 344.517 324.625 334.859 321.067 349.612C317.32 365.216 371.316 375.737 403.585 376.842C435.854 377.947 445.115 370.211 439.932 330.427H395.728L391.871 344.517Z" fill="#619937"/>
<path opacity="0.6" d="M391.871 344.517C391.871 344.517 324.625 334.859 321.067 349.612C317.32 365.216 371.316 375.737 403.585 376.842C435.854 377.947 445.115 370.211 439.932 330.427H395.728L391.871 344.517Z" fill="white"/>
<path d="M354.419 375.283L340.329 375.294L333.566 375.306L332.759 368.178L339.014 367.338L354.297 365.304L354.419 375.283Z" fill="#E4897B"/>
<path d="M334.284 367.282L335.997 375.416C336.021 375.523 336.023 375.634 336.003 375.741C335.983 375.849 335.941 375.951 335.88 376.042C335.819 376.133 335.74 376.211 335.648 376.271C335.556 376.33 335.453 376.37 335.345 376.388L331.289 377.118C331.289 377.118 325.907 378.488 324.393 377.527C319.973 374.698 315.729 356.817 317.53 355.491C318.182 355.005 319.321 355.745 319.895 356.331C321.708 358.176 325.565 363.337 327.101 364.862C328.88 366.653 332.052 366.708 333.444 366.63C333.639 366.621 333.83 366.682 333.984 366.801C334.138 366.921 334.245 367.091 334.284 367.282Z" fill="#263238"/>
<path opacity="0.2" d="M354.419 375.283L340.329 375.294L339.014 367.338L354.297 365.304L354.419 375.283Z" fill="black"/>
<path d="M375.018 362.707L388.39 367.161L394.811 369.294L393.319 376.3L387.119 375.118L371.979 372.222L375.018 362.707Z" fill="#E4897B"/>
<path d="M391.595 376.665L392.534 368.41C392.548 368.301 392.583 368.197 392.637 368.102C392.691 368.008 392.763 367.925 392.849 367.858C392.935 367.791 393.034 367.742 393.139 367.713C393.244 367.685 393.354 367.677 393.462 367.691L397.54 368.288C397.54 368.288 403.066 368.686 404.171 370.078C407.486 374.156 405.851 392.468 403.729 393.153C402.944 393.407 402.104 392.346 401.74 391.617C400.634 389.285 398.579 383.163 397.606 381.24C396.501 378.974 393.484 377.925 392.147 377.549C391.965 377.491 391.81 377.37 391.709 377.208C391.608 377.046 391.567 376.854 391.595 376.665Z" fill="#263238"/>
<path opacity="0.2" d="M375.018 362.707L388.39 367.161L387.119 375.118L371.979 372.222L375.018 362.707Z" fill="black"/>
<path d="M384.798 376.355L380.986 376.72L383.262 363.525L387.638 365.835L384.798 376.355Z" fill="#619937"/>
<path opacity="0.6" d="M384.798 376.355L380.986 376.72L383.262 363.525L387.638 365.835L384.798 376.355Z" fill="white"/>
<path d="M397.562 381.141C397.661 381.738 397.573 382.352 397.308 382.898C397.201 383.061 397.053 383.193 396.878 383.28C396.703 383.368 396.508 383.407 396.314 383.395C396.196 383.4 396.079 383.374 395.974 383.32C395.869 383.266 395.78 383.185 395.717 383.085C395.142 382.113 396.49 379.118 396.656 378.787C396.666 378.749 396.69 378.718 396.723 378.697C396.756 378.677 396.795 378.669 396.833 378.676C396.875 378.68 396.915 378.697 396.947 378.725C396.978 378.752 397.001 378.79 397.01 378.831C397.272 379.58 397.457 380.354 397.562 381.141ZM395.971 382.577C395.979 382.675 396.009 382.769 396.059 382.853C396.08 382.896 396.114 382.93 396.155 382.952C396.197 382.974 396.245 382.982 396.291 382.975C396.425 382.991 396.561 382.968 396.682 382.909C396.804 382.85 396.906 382.758 396.977 382.643C397.299 381.592 397.24 380.462 396.811 379.45C396.345 380.433 396.061 381.493 395.971 382.577Z" fill="#619937"/>
<path d="M397.043 378.853V378.941C396.678 379.903 395.021 381.804 394.081 381.671C393.927 381.644 393.787 381.566 393.683 381.45C393.579 381.334 393.517 381.186 393.507 381.03C393.464 380.875 393.456 380.713 393.483 380.554C393.509 380.396 393.57 380.245 393.661 380.113C394.346 379.008 396.722 378.654 396.855 378.665C396.892 378.658 396.93 378.663 396.963 378.679C396.997 378.695 397.025 378.721 397.043 378.754C397.051 378.786 397.051 378.82 397.043 378.853ZM393.86 380.875V380.964C393.927 381.24 394.037 381.251 394.092 381.273C394.645 381.351 395.916 380.113 396.468 379.162C395.526 379.277 394.647 379.701 393.971 380.367C393.876 380.519 393.834 380.697 393.849 380.875H393.86Z" fill="#619937"/>
<path d="M341.611 366.31C341.611 366.31 404.171 341.998 423.333 346.064C442.496 350.131 442.584 360.155 432.87 369.504C423.157 378.853 408.647 375.25 408.647 375.25C408.647 375.25 420.051 368.421 419.256 364.199C418.46 359.978 411.21 369.625 411.21 369.625C411.21 369.625 373.405 378.875 342.185 376.433L341.611 366.31Z" fill="#619937"/>
<path d="M327.532 364.995C327.168 364.513 326.967 363.929 326.957 363.326C326.974 363.132 327.043 362.946 327.155 362.787C327.268 362.628 327.421 362.501 327.598 362.42C327.701 362.363 327.817 362.333 327.935 362.333C328.053 362.333 328.169 362.363 328.272 362.42C329.222 363.028 329.377 366.31 329.377 366.686C329.382 366.723 329.373 366.761 329.353 366.794C329.333 366.826 329.303 366.85 329.267 366.862C329.232 366.885 329.192 366.897 329.151 366.897C329.109 366.897 329.069 366.885 329.035 366.862C328.47 366.294 327.966 365.668 327.532 364.995ZM328.283 362.984C328.227 362.904 328.156 362.836 328.073 362.785C328.036 362.758 327.992 362.744 327.946 362.744C327.901 362.744 327.856 362.758 327.819 362.785C327.692 362.831 327.58 362.913 327.498 363.02C327.415 363.128 327.366 363.257 327.355 363.392C327.553 364.473 328.128 365.449 328.979 366.144C328.936 365.058 328.701 363.987 328.283 362.984Z" fill="#619937"/>
<path d="M329.035 366.785V366.686C328.924 365.669 329.51 363.216 330.416 362.895C330.566 362.848 330.727 362.853 330.873 362.91C331.02 362.966 331.143 363.07 331.223 363.205C331.431 363.45 331.534 363.768 331.51 364.089C331.4 365.382 329.455 366.785 329.3 366.851C329.269 366.872 329.232 366.883 329.195 366.883C329.157 366.883 329.121 366.872 329.09 366.851C329.066 366.834 329.047 366.811 329.035 366.785ZM330.935 363.525V363.448C330.759 363.238 330.648 363.282 330.593 363.293C330.062 363.47 329.488 365.15 329.488 366.255C330.029 365.802 331.079 364.851 331.145 364.044C331.157 363.865 331.11 363.687 331.013 363.536L330.935 363.525Z" fill="#619937"/>
<path opacity="0.7" d="M341.611 366.31C341.611 366.31 404.171 341.998 423.333 346.064C442.496 350.131 442.584 360.155 432.87 369.504C423.157 378.853 408.647 375.25 408.647 375.25C408.647 375.25 420.051 368.421 419.256 364.199C418.46 359.978 411.21 369.625 411.21 369.625C411.21 369.625 373.405 378.875 342.185 376.433L341.611 366.31Z" fill="white"/>
<path d="M340.848 366.122L344.362 364.509L346.385 377.67L341.5 376.875L340.848 366.122Z" fill="#619937"/>
<path opacity="0.6" d="M340.848 366.122L344.362 364.509L346.385 377.67L341.5 376.875L340.848 366.122Z" fill="white"/>
<path d="M444.375 269.646C437.622 307.22 440.076 331.532 440.076 331.532C440.076 331.532 408.658 331.101 395.75 330.372C388.865 284.83 399.452 267.524 399.452 267.524C402.828 266.848 406.241 266.379 409.674 266.121C410.393 266.066 411.133 266.032 411.884 265.999C417.973 265.995 424.058 266.338 430.108 267.027C431.213 267.149 432.417 267.303 433.545 267.469C439.302 268.342 444.375 269.646 444.375 269.646Z" fill="#263238"/>
<path opacity="0.1" d="M444.375 269.646C443.535 274.31 442.839 278.774 442.264 282.996C441.358 289.627 440.75 295.771 440.352 301.23C440.23 302.877 440.12 304.479 440.043 306.004C439.722 311.596 439.634 316.381 439.645 320.249C439.645 327.521 440.076 331.532 440.076 331.532C440.076 331.532 408.658 331.101 395.75 330.372C388.854 284.83 399.463 267.524 399.463 267.524C402.835 266.847 406.245 266.379 409.674 266.121C410.393 266.066 411.133 266.032 411.884 265.999C417.974 265.99 424.058 266.333 430.108 267.027C431.213 267.149 432.417 267.303 433.545 267.469C439.302 268.331 444.375 269.646 444.375 269.646Z" fill="white"/>
<path opacity="0.2" d="M416.316 311.121C424.367 310.164 432.311 308.455 440.043 306.015C439.722 311.607 439.634 316.392 439.645 320.26C424.648 321.641 418.526 318.757 418.526 318.757L416.316 311.121Z" fill="black"/>
<path opacity="0.2" d="M442.264 283.007C441.358 289.638 440.75 295.782 440.352 301.241C436.053 292.489 439.247 281.99 439.247 281.99L442.264 283.007Z" fill="black"/>
<path d="M418.018 326.548H395.164C394.72 326.541 394.295 326.368 393.972 326.064C393.649 325.759 393.451 325.344 393.418 324.902L390.235 294.566C390.214 294.363 390.235 294.157 390.299 293.962C390.362 293.767 390.466 293.588 390.604 293.437C390.742 293.286 390.911 293.165 391.098 293.084C391.286 293.002 391.489 292.961 391.694 292.964H414.548C414.983 292.973 415.4 293.141 415.719 293.436C416.039 293.731 416.24 294.133 416.283 294.566L419.477 324.902C419.505 325.109 419.489 325.319 419.428 325.52C419.368 325.72 419.265 325.904 419.126 326.061C418.988 326.217 418.817 326.342 418.625 326.426C418.434 326.51 418.227 326.552 418.018 326.548Z" fill="#263238"/>
<path opacity="0.6" d="M418.018 326.548H395.164C394.72 326.541 394.295 326.368 393.972 326.064C393.649 325.759 393.451 325.344 393.418 324.902L390.235 294.566C390.214 294.363 390.235 294.157 390.299 293.962C390.362 293.767 390.466 293.588 390.604 293.437C390.742 293.286 390.911 293.165 391.098 293.084C391.286 293.002 391.489 292.961 391.694 292.964H414.548C414.983 292.973 415.4 293.141 415.719 293.436C416.039 293.731 416.24 294.133 416.283 294.566L419.477 324.902C419.505 325.109 419.489 325.319 419.428 325.52C419.368 325.72 419.265 325.904 419.126 326.061C418.988 326.217 418.817 326.342 418.625 326.426C418.434 326.51 418.227 326.552 418.018 326.548Z" fill="white"/>
<path opacity="0.2" d="M417.067 326.548H395.164C394.72 326.541 394.295 326.368 393.972 326.064C393.649 325.759 393.451 325.344 393.418 324.902L390.235 294.566C390.214 294.363 390.235 294.157 390.299 293.962C390.362 293.767 390.466 293.588 390.604 293.437C390.742 293.286 390.911 293.165 391.098 293.084C391.286 293.002 391.489 292.961 391.694 292.964H413.597C414.033 292.973 414.449 293.141 414.769 293.436C415.089 293.731 415.289 294.133 415.332 294.566L418.526 324.902C418.555 325.109 418.538 325.319 418.478 325.52C418.418 325.72 418.314 325.904 418.176 326.061C418.037 326.217 417.866 326.342 417.675 326.426C417.484 326.51 417.276 326.552 417.067 326.548Z" fill="white"/>
<path d="M403.74 307.297C403.425 307.295 403.113 307.36 402.825 307.488C402.537 307.615 402.28 307.803 402.071 308.039C401.861 308.274 401.705 308.552 401.611 308.853C401.518 309.154 401.49 309.471 401.53 309.784C401.595 310.454 401.905 311.077 402.4 311.534C402.895 311.99 403.541 312.249 404.215 312.259C404.529 312.261 404.84 312.197 405.127 312.069C405.414 311.942 405.671 311.755 405.88 311.521C406.089 311.287 406.246 311.011 406.34 310.711C406.434 310.412 406.463 310.095 406.425 309.784C405.751 309.771 405.104 309.51 404.609 309.052C404.114 308.593 403.805 307.969 403.74 307.297Z" fill="#263238"/>
<path opacity="0.3" d="M408.691 295.417H396.612C396.315 295.413 396.025 295.326 395.775 295.166C395.525 295.006 395.325 294.779 395.197 294.511L394.479 293.008H410.415L409.995 294.511C409.913 294.788 409.739 295.028 409.502 295.193C409.265 295.358 408.979 295.437 408.691 295.417Z" fill="black"/>
<path d="M415.785 310.148L410.503 309.717L410.724 316.746L415.145 319.067L425.334 318.138L426.162 313.397C422.814 308.491 415.785 310.148 415.785 310.148Z" fill="#E4897B"/>
<path d="M444.375 269.646C449.801 271.282 457.492 302.799 456.266 309.762C455.039 316.724 441.656 319.708 424.648 319.321V311.099L444.375 305.341L441.059 293.185C441.059 293.185 438.319 284.245 439.545 277.99C440.219 274.763 441.912 271.838 444.375 269.646Z" fill="#263238"/>
<path opacity="0.1" d="M444.375 269.646C449.801 271.282 457.492 302.799 456.266 309.762C455.039 316.724 441.656 319.708 424.648 319.321V311.099L444.375 305.341L441.059 293.185C441.059 293.185 438.319 284.245 439.545 277.99C440.219 274.763 441.912 271.838 444.375 269.646Z" fill="white"/>
<path d="M427.478 266.674C424.726 269.547 420.405 271.956 413.476 271.702C408.16 271.492 407.42 268.154 408.348 266.32C411.575 265.657 413.034 264.253 413.487 262.463C413.94 260.673 413.31 258.264 412.382 256.031L421.344 248.483L422.858 247.202C422.858 247.633 422.803 248.086 422.781 248.561C422.676 250.313 422.676 252.069 422.781 253.821C423.079 258.761 424.251 264.121 427.478 266.674Z" fill="#E4897B"/>
<path opacity="0.2" d="M422.792 253.821C421.123 257.236 418.195 261.358 413.487 262.463C413.973 260.562 413.31 258.264 412.382 256.031L421.344 248.483C421.819 248.483 422.306 248.483 422.781 248.561C422.68 250.313 422.684 252.069 422.792 253.821Z" fill="black"/>
<path d="M402.259 233.476C400.944 236.482 400.778 242.936 405.353 241.333C409.928 239.731 404.469 228.315 402.259 233.476Z" fill="#263238"/>
<path d="M424.173 240.14C423.775 248.185 423.963 252.926 419.941 257.07C413.885 263.303 403.895 259.634 401.861 251.611C400.049 244.372 400.999 232.426 408.845 229.199C410.586 228.486 412.479 228.226 414.347 228.443C416.215 228.66 417.998 229.347 419.529 230.44C421.059 231.532 422.288 232.995 423.101 234.691C423.913 236.388 424.282 238.262 424.173 240.14Z" fill="#E4897B"/>
<path d="M411.973 242.416C411.973 243.068 411.641 243.61 411.21 243.61C410.779 243.61 410.426 243.079 410.415 242.416C410.404 241.753 410.757 241.234 411.177 241.234C411.597 241.234 411.962 241.764 411.973 242.416Z" fill="#263238"/>
<path d="M404.547 242.438C404.547 243.09 404.215 243.621 403.784 243.621C403.353 243.621 402.999 243.09 402.999 242.438C402.999 241.786 403.331 241.256 403.762 241.256C404.193 241.256 404.547 241.775 404.547 242.438Z" fill="#263238"/>
<path d="M406.911 242.759C406.13 244.7 405.081 246.523 403.795 248.174C404.251 248.474 404.765 248.675 405.304 248.765C405.842 248.854 406.394 248.83 406.923 248.693L406.911 242.759Z" fill="#DE5753"/>
<path d="M414.227 240.018C414.161 240.028 414.093 240.02 414.031 239.995C413.969 239.969 413.914 239.928 413.874 239.875C413.588 239.482 413.214 239.162 412.782 238.939C412.351 238.716 411.873 238.598 411.387 238.593C411.285 238.599 411.185 238.566 411.106 238.5C411.028 238.434 410.978 238.341 410.967 238.239C410.963 238.188 410.968 238.137 410.984 238.088C410.999 238.04 411.024 237.995 411.057 237.956C411.089 237.916 411.13 237.884 411.175 237.861C411.22 237.838 411.27 237.823 411.321 237.819C411.935 237.815 412.541 237.956 413.09 238.231C413.64 238.506 414.116 238.906 414.481 239.399C414.544 239.48 414.572 239.582 414.56 239.684C414.548 239.785 414.496 239.878 414.415 239.941C414.36 239.983 414.296 240.009 414.227 240.018Z" fill="#263238"/>
<path d="M401.32 239.897C401.247 239.918 401.171 239.918 401.099 239.897C401.053 239.874 401.012 239.843 400.978 239.805C400.944 239.767 400.919 239.722 400.902 239.674C400.886 239.626 400.879 239.574 400.882 239.524C400.886 239.473 400.899 239.423 400.922 239.377C401.167 238.815 401.544 238.321 402.021 237.936C402.498 237.551 403.061 237.287 403.662 237.167C403.713 237.161 403.765 237.165 403.814 237.179C403.863 237.193 403.909 237.216 403.95 237.248C403.99 237.28 404.023 237.32 404.048 237.365C404.072 237.409 404.088 237.459 404.093 237.51C404.101 237.559 404.099 237.61 404.087 237.658C404.075 237.707 404.054 237.752 404.024 237.793C403.994 237.833 403.956 237.867 403.913 237.892C403.87 237.917 403.823 237.934 403.773 237.941C403.299 238.03 402.854 238.235 402.478 238.538C402.102 238.84 401.806 239.231 401.618 239.676C401.589 239.733 401.547 239.784 401.495 239.822C401.444 239.86 401.383 239.886 401.32 239.897Z" fill="#263238"/>
<path d="M411.531 233.686C411.531 233.686 413.741 232.095 414.758 233.808C415.774 235.521 415.708 240.085 415.708 240.085L416.15 239.278C416.15 239.278 419.012 249.445 423.157 246.881C427.301 244.317 433.39 233.996 423.709 228.735C423.709 228.735 422.681 226.282 416.283 225.066C409.884 223.851 402.148 227.807 400.811 232.039C399.474 236.272 401.342 238.67 401.342 238.67C401.547 237.749 401.967 236.889 402.568 236.162C402.654 236.593 402.845 236.996 403.125 237.336C403.405 237.675 403.764 237.94 404.171 238.106C404.106 237.242 404.286 236.376 404.69 235.609C404.902 236.361 405.279 237.056 405.795 237.642C406.259 233.288 409.221 232.404 410.149 232.437C410.482 232.474 410.794 232.614 411.042 232.839C411.29 233.063 411.461 233.359 411.531 233.686Z" fill="#263238"/>
<path d="M427.367 246.804C427.071 247.761 426.589 248.65 425.948 249.42C425.307 250.19 424.52 250.826 423.632 251.29C421.245 252.517 419.499 250.495 419.698 247.975C419.874 245.687 421.322 242.295 423.941 242.129C424.514 242.103 425.084 242.219 425.602 242.467C426.119 242.715 426.567 243.086 426.906 243.549C427.245 244.011 427.464 244.551 427.545 245.118C427.625 245.686 427.564 246.265 427.367 246.804Z" fill="#E4897B"/>
<path d="M407.177 251.39C407.866 252.112 408.502 252.884 409.078 253.699L409.553 253.467C411.686 252.362 412.327 251.18 412.382 250.152C412.396 249.656 412.294 249.164 412.083 248.715C411.971 248.46 411.822 248.221 411.641 248.008C410.623 249.262 409.345 250.28 407.895 250.992C407.464 251.257 407.177 251.39 407.177 251.39Z" fill="#263238"/>
<path d="M407.895 251.014L408.481 251.677C410.481 250.66 411.796 249.666 412.083 248.738C411.971 248.482 411.822 248.243 411.641 248.03C410.623 249.284 409.345 250.302 407.895 251.014Z" fill="white"/>
<path d="M409.553 253.467C411.686 252.362 412.327 251.18 412.382 250.152C411.578 250.579 410.856 251.144 410.249 251.821C409.848 252.282 409.605 252.859 409.553 253.467Z" fill="#A24E3F"/>
<path d="M214.844 277.581L215.419 283.714C215.419 283.714 251.312 289.173 257.059 294.765C262.806 300.357 283.195 388.799 283.195 388.799L274.973 389.904C274.973 389.904 246.439 324.703 244.914 315.265C244.914 315.265 219.784 316.204 202.632 316.204C185.481 316.204 183.437 277.526 183.437 277.526L214.844 277.581Z" fill="#619937"/>
<path opacity="0.3" d="M283.195 388.81L274.973 389.915C274.973 389.915 263.303 363.249 254.495 341.556C249.511 329.322 245.455 318.669 244.914 315.265C244.914 315.265 227.519 315.906 211.761 316.127C208.578 316.127 205.473 316.193 202.588 316.193C185.437 316.193 183.393 277.515 183.393 277.515H214.8L215.374 283.648C215.374 283.648 251.279 289.096 257.015 294.699C262.75 300.302 283.195 388.81 283.195 388.81Z" fill="white"/>
<path d="M289.538 396.734C284.013 396.734 283.272 396.645 280.156 396.535C277.492 396.446 276.84 396.778 274.719 396.734C272.928 396.734 272.995 394.976 273.547 393.009C273.823 392.015 274.243 389.926 274.652 388.335L282.764 387.738C283.869 389.948 286.477 393.031 289.593 393.451C292.71 393.871 291.748 396.734 289.538 396.734Z" fill="#263238"/>
<path opacity="0.2" d="M254.495 341.6C249.511 329.366 245.455 318.713 244.914 315.309C244.914 315.309 227.519 315.95 211.761 316.171L210.059 286.123C210.059 286.123 232.249 289.306 247.168 302.159C249.058 303.75 252.738 328.361 254.495 341.6Z" fill="black"/>
<path d="M246.759 321.951H182.542V318.006C182.542 316.69 183.064 315.428 183.995 314.497C184.925 313.567 186.188 313.044 187.504 313.044H241.797C243.113 313.044 244.376 313.567 245.306 314.497C246.237 315.428 246.759 316.69 246.759 318.006V321.951Z" fill="#263238"/>
<path opacity="0.2" d="M246.759 321.951H182.542V318.006C182.542 316.69 183.064 315.428 183.995 314.497C184.925 313.567 186.188 313.044 187.504 313.044H241.797C243.113 313.044 244.376 313.567 245.306 314.497C246.237 315.428 246.759 316.69 246.759 318.006V321.951Z" fill="white"/>
<path d="M244.527 379.693L219.773 377.538V345.026H211.075V377.527L186.233 379.737C185.176 379.841 184.197 380.334 183.484 381.121C182.771 381.907 182.376 382.93 182.376 383.992V387.307H248.395V383.992C248.405 382.921 248.014 381.885 247.298 381.089C246.582 380.293 245.593 379.795 244.527 379.693Z" fill="#263238"/>
<path d="M190.377 391.341C190.377 392.466 190.043 393.567 189.418 394.503C188.792 395.438 187.903 396.168 186.863 396.599C185.824 397.029 184.679 397.142 183.575 396.923C182.471 396.703 181.457 396.161 180.661 395.365C179.865 394.569 179.323 393.555 179.104 392.451C178.884 391.347 178.997 390.203 179.427 389.163C179.858 388.123 180.588 387.234 181.524 386.608C182.46 385.983 183.56 385.649 184.686 385.649C186.195 385.649 187.643 386.249 188.71 387.316C189.777 388.384 190.377 389.831 190.377 391.341Z" fill="#263238"/>
<path d="M246.063 397.032C249.206 397.032 251.754 394.484 251.754 391.341C251.754 388.197 249.206 385.649 246.063 385.649C242.92 385.649 240.372 388.197 240.372 391.341C240.372 394.484 242.92 397.032 246.063 397.032Z" fill="#263238"/>
<path d="M209.573 319.829H221.276V347.556C221.276 348.644 220.844 349.686 220.075 350.455C219.306 351.224 218.263 351.656 217.176 351.656H213.684C212.596 351.656 211.553 351.224 210.784 350.455C210.016 349.686 209.584 348.644 209.584 347.556V319.829H209.573Z" fill="#263238"/>
<path opacity="0.2" d="M209.573 319.829H221.276V347.556C221.276 348.644 220.844 349.686 220.075 350.455C219.306 351.224 218.263 351.656 217.176 351.656H213.684C212.596 351.656 211.553 351.224 210.784 350.455C210.016 349.686 209.584 348.644 209.584 347.556V319.829H209.573Z" fill="white"/>
<path d="M182.089 322.979H247.201C248.306 322.979 249.202 322.083 249.202 320.978V320.525C249.202 319.421 248.306 318.525 247.201 318.525H182.089C180.984 318.525 180.088 319.421 180.088 320.525V320.978C180.088 322.083 180.984 322.979 182.089 322.979Z" fill="#263238"/>
<path opacity="0.2" d="M190.377 391.341C190.377 392.466 190.043 393.567 189.418 394.503C188.792 395.438 187.903 396.168 186.863 396.599C185.824 397.029 184.679 397.142 183.575 396.923C182.471 396.703 181.457 396.161 180.661 395.365C179.865 394.569 179.323 393.555 179.104 392.451C178.884 391.347 178.997 390.203 179.427 389.163C179.858 388.123 180.588 387.234 181.524 386.608C182.46 385.983 183.56 385.649 184.686 385.649C186.195 385.649 187.643 386.249 188.71 387.316C189.777 388.384 190.377 389.831 190.377 391.341Z" fill="white"/>
<path opacity="0.2" d="M246.063 397.032C249.206 397.032 251.754 394.484 251.754 391.341C251.754 388.197 249.206 385.649 246.063 385.649C242.92 385.649 240.372 388.197 240.372 391.341C240.372 394.484 242.92 397.032 246.063 397.032Z" fill="white"/>
<path d="M252.219 267.281H232.382C226.569 267.281 222.37 262.054 223.011 255.622L223.851 247.025C224.491 240.582 229.708 235.355 235.52 235.355H255.357C261.17 235.355 265.369 240.582 264.739 247.025L263.889 255.622C263.259 262.054 258.031 267.281 252.219 267.281Z" fill="#263238"/>
<path opacity="0.2" d="M252.219 267.281H232.382C226.569 267.281 222.37 262.054 223.011 255.622L223.851 247.025C224.491 240.582 229.708 235.355 235.52 235.355H255.357C261.17 235.355 265.369 240.582 264.739 247.025L263.889 255.622C263.259 262.054 258.031 267.281 252.219 267.281Z" fill="white"/>
<path d="M250.395 263.093H238.703C235.266 263.093 232.78 260.01 233.178 256.197L233.686 251.125C234.051 247.312 237.145 244.229 240.582 244.229H252.296C255.733 244.229 258.219 247.312 257.822 251.125L257.313 256.197C256.915 260.01 253.832 263.093 250.395 263.093Z" fill="#263238"/>
<path d="M241.09 255.512C241.09 255.512 238.416 309.275 226.834 318.503H239.223C239.223 318.503 250.274 300.191 251.08 255.512H241.09Z" fill="#263238"/>
<path d="M251.058 233.111L253.191 232.006C253.591 231.802 254.035 231.695 254.484 231.695C254.934 231.695 255.377 231.802 255.777 232.006L259.601 233.885C260.354 234.255 261.007 234.801 261.505 235.476C262.003 236.151 262.331 236.935 262.463 237.764L262.64 238.814C259.225 240.958 253.965 240.759 253.965 240.759L252.451 240.88C252.142 240.912 251.83 240.883 251.533 240.793C251.235 240.703 250.959 240.555 250.719 240.358C250.48 240.16 250.282 239.917 250.137 239.643C249.992 239.368 249.903 239.068 249.876 238.758L249.611 235.775C249.56 235.237 249.671 234.697 249.929 234.222C250.187 233.748 250.58 233.361 251.058 233.111Z" fill="#B97964"/>
<path opacity="0.2" d="M251.058 233.111L253.191 232.006C253.591 231.802 254.035 231.695 254.484 231.695C254.934 231.695 255.377 231.802 255.777 232.006L259.601 233.885C260.354 234.255 261.007 234.801 261.505 235.476C262.003 236.151 262.331 236.935 262.463 237.764L262.64 238.814C259.225 240.958 253.965 240.759 253.965 240.759L252.451 240.88C252.142 240.912 251.83 240.883 251.533 240.793C251.235 240.703 250.959 240.555 250.719 240.358C250.48 240.16 250.282 239.917 250.137 239.643C249.992 239.368 249.903 239.068 249.876 238.758L249.611 235.775C249.56 235.237 249.671 234.697 249.929 234.222C250.187 233.748 250.58 233.361 251.058 233.111Z" fill="black"/>
<path d="M235.388 235.742L227.652 245.522H220.292L221.254 231.874C226.823 232.946 235.388 235.742 235.388 235.742Z" fill="#619937"/>
<path opacity="0.2" d="M227 245.522H220.635L224.591 235.742C224.591 235.742 226.856 239.178 227 245.522Z" fill="black"/>
<path d="M215.319 281.272L182.928 278.266C183.945 274.818 184.84 271.436 185.592 268.176C186.542 264.187 187.294 260.363 187.89 256.794C188.487 253.224 188.995 249.909 189.349 246.903L189.449 246.052C189.449 245.577 189.559 245.113 189.603 244.671C189.924 241.764 190.123 239.234 190.255 237.145C190.532 233.067 190.532 230.713 190.532 230.713C201.629 228.588 213.082 229.268 223.85 232.691C228.669 246.262 215.319 281.272 215.319 281.272Z" fill="#619937"/>
<path d="M215.209 234.857C214.717 235.877 213.964 236.748 213.028 237.384C212.091 238.019 211.004 238.397 209.875 238.477C208.746 238.558 207.616 238.339 206.598 237.844C205.581 237.348 204.712 236.592 204.08 235.653L202.677 233.564L200.953 230.967C203.848 229.254 204.986 223.773 205.373 219.065C205.495 217.585 205.539 216.192 205.539 215.01L212.811 224.956C212.302 226.009 211.93 227.123 211.705 228.271C211.613 228.744 211.576 229.226 211.595 229.708C211.606 231.641 212.567 233.432 215.209 234.857Z" fill="#B97964"/>
<path opacity="0.2" d="M212.788 225.011C212.28 226.064 211.908 227.178 211.683 228.326C209.771 230.78 206.799 233.377 202.699 233.542L200.953 230.967C203.848 229.254 204.986 223.773 205.373 219.065C205.495 217.585 205.539 216.192 205.539 215.01L212.788 225.011Z" fill="black"/>
<path d="M195.317 208.401C195.317 208.401 191.725 207.053 192.786 204.566C193.847 202.08 195.129 202.102 195.129 202.102C194.586 201.085 194.291 199.955 194.268 198.803C194.245 197.65 194.494 196.509 194.996 195.471C196.775 192.156 200.71 193.504 200.71 193.504C200.725 192.463 201.095 191.458 201.758 190.654C202.42 189.851 203.337 189.297 204.356 189.084C205.397 188.912 206.465 189.084 207.399 189.575C208.332 190.065 209.08 190.848 209.528 191.802C209.528 191.802 212.004 188.587 215.628 189.471C219.253 190.355 219.983 195.405 219.983 195.405C220.973 195.082 222.049 195.154 222.988 195.604C223.926 196.055 224.655 196.851 225.022 197.825C225.515 198.842 225.721 199.975 225.617 201.1C225.514 202.226 225.106 203.302 224.436 204.213C224.436 204.213 226.746 203.108 227.508 206.832C228.271 210.556 224.381 213.827 224.381 213.827C224.381 213.827 226.481 214.081 225.398 216.833C224.315 219.585 220.9 219.629 220.9 219.629C220.9 219.629 222.226 220.303 219.717 222.569C217.209 224.834 209.13 221.596 209.13 221.596L195.317 208.401Z" fill="#263238"/>
<path d="M205.196 202.5C197.461 202.898 195.25 207.163 195.062 215.153C194.875 225.099 197.45 232.073 206.987 229.442C219.916 225.873 218.016 201.826 205.196 202.5Z" fill="#B97964"/>
<path d="M200.024 214.457C199.467 215.642 198.77 216.755 197.947 217.772C198.191 218.08 198.514 218.315 198.883 218.452C199.251 218.588 199.65 218.621 200.035 218.546L200.024 214.457Z" fill="#A24E3F"/>
<path d="M204.721 213.573C204.721 214.214 205.097 214.678 205.517 214.678C205.937 214.678 206.268 214.148 206.257 213.507C206.246 212.866 205.881 212.402 205.45 212.402C205.019 212.402 204.699 212.943 204.721 213.573Z" fill="#263238"/>
<path d="M205.627 212.435L204.235 211.927C204.235 211.927 204.953 213.076 205.627 212.435Z" fill="#263238"/>
<path d="M196.82 213.673C196.82 214.313 197.195 214.778 197.626 214.778C198.057 214.778 198.378 214.247 198.356 213.606C198.334 212.965 197.98 212.501 197.56 212.501C197.14 212.501 196.809 213.043 196.82 213.673Z" fill="#263238"/>
<path d="M197.737 212.523L196.333 212.026C196.333 212.026 197.063 213.164 197.737 212.523Z" fill="#263238"/>
<path d="M207.926 209.561C207.88 209.562 207.834 209.553 207.792 209.534C207.75 209.515 207.713 209.486 207.683 209.451C207.266 209.079 206.769 208.806 206.232 208.653C205.694 208.499 205.128 208.47 204.577 208.567C204.535 208.575 204.491 208.574 204.448 208.565C204.405 208.556 204.365 208.539 204.329 208.514C204.293 208.49 204.262 208.458 204.239 208.422C204.215 208.385 204.199 208.344 204.191 208.302C204.178 208.217 204.198 208.13 204.248 208.06C204.297 207.99 204.372 207.942 204.456 207.926C205.118 207.805 205.8 207.842 206.445 208.034C207.09 208.226 207.681 208.568 208.169 209.031C208.23 209.093 208.264 209.176 208.264 209.263C208.264 209.35 208.23 209.433 208.169 209.495C208.099 209.547 208.012 209.571 207.926 209.561Z" fill="#263238"/>
<path d="M195.847 209.329C195.797 209.329 195.747 209.318 195.701 209.297C195.656 209.276 195.615 209.246 195.582 209.208C195.529 209.138 195.506 209.049 195.519 208.962C195.531 208.875 195.578 208.797 195.648 208.744C196.102 208.363 196.635 208.089 197.209 207.941C197.783 207.794 198.382 207.777 198.963 207.893C199.006 207.905 199.045 207.926 199.08 207.954C199.114 207.983 199.142 208.017 199.162 208.056C199.183 208.095 199.196 208.138 199.199 208.182C199.203 208.226 199.198 208.271 199.185 208.313C199.157 208.394 199.099 208.461 199.022 208.5C198.946 208.539 198.858 208.547 198.776 208.523C198.29 208.435 197.791 208.457 197.315 208.587C196.839 208.717 196.398 208.952 196.024 209.274C195.971 209.309 195.91 209.328 195.847 209.329Z" fill="#263238"/>
<path d="M214.313 215.065C214.313 215.065 210.368 208.91 210.667 204.014C210.667 204.014 195.04 198.566 195.096 214.126C195.096 214.126 192.885 200.422 206.147 199.417C219.408 198.411 220.358 217.828 213.805 223.972C213.794 223.95 216.756 218.911 214.313 215.065Z" fill="#263238"/>
<path d="M213.142 216.767C213.152 216.32 213.25 215.88 213.431 215.472C213.611 215.063 213.871 214.694 214.194 214.386C214.517 214.078 214.899 213.837 215.315 213.677C215.732 213.516 216.177 213.44 216.623 213.451C219.032 213.595 220.425 218.447 214.534 219.938C213.695 220.171 213.164 219.364 213.142 216.767Z" fill="#B97964"/>
<path d="M201.892 223.044C201.671 223.06 201.45 223.06 201.229 223.044C201.186 223.036 201.145 223.02 201.109 222.996C201.072 222.972 201.041 222.941 201.016 222.905C200.992 222.87 200.974 222.829 200.965 222.787C200.956 222.744 200.956 222.7 200.964 222.657C200.97 222.615 200.985 222.574 201.008 222.538C201.031 222.501 201.06 222.47 201.096 222.445C201.131 222.42 201.17 222.403 201.212 222.394C201.254 222.385 201.297 222.384 201.339 222.392C202.172 222.538 203.029 222.4 203.773 221.999C204.517 221.598 205.104 220.958 205.439 220.182C205.455 220.141 205.479 220.104 205.509 220.073C205.54 220.041 205.576 220.016 205.616 219.999C205.656 219.981 205.699 219.972 205.743 219.971C205.786 219.97 205.83 219.978 205.87 219.994C205.911 220.01 205.948 220.034 205.98 220.064C206.011 220.094 206.036 220.13 206.054 220.17C206.071 220.21 206.08 220.254 206.081 220.297C206.082 220.341 206.074 220.384 206.058 220.425C205.719 221.238 205.137 221.927 204.391 222.396C203.645 222.865 202.772 223.091 201.892 223.044Z" fill="#263238"/>
<path d="M217.154 212.247C215.308 202.666 201.141 194.62 195.825 205.76C196.716 202.968 198.44 200.516 200.765 198.731C200.765 198.731 215.131 194.631 217.662 210.998L217.154 212.247Z" fill="#619937"/>
<path d="M209.606 396.734C204.08 396.734 203.34 396.645 200.223 396.535C197.56 396.446 196.908 396.778 194.786 396.734C192.996 396.734 193.062 394.976 193.615 393.009C193.891 392.015 194.311 389.926 194.72 388.335L202.831 387.738C203.936 389.948 206.545 393.031 209.661 393.451C212.777 393.871 211.805 396.734 209.606 396.734Z" fill="#263238"/>
<path d="M183.448 277.581C183.448 277.581 172.397 294.014 178.386 307.518C184.376 321.023 214.667 314.923 214.667 314.923L194.709 388.368L204.257 389.948C204.257 389.948 238.106 317.155 238.968 304.744C239.83 292.334 203.284 284.366 203.284 284.366L183.448 277.581Z" fill="#619937"/>
<path opacity="0.3" d="M183.448 277.581C183.448 277.581 172.397 294.014 178.386 307.518C184.376 321.023 214.667 314.923 214.667 314.923L194.709 388.368L204.257 389.948C204.257 389.948 238.106 317.155 238.968 304.744C239.83 292.334 203.284 284.366 203.284 284.366L183.448 277.581Z" fill="white"/>
<path opacity="0.2" d="M217.154 239.808C217.154 239.808 201.682 250.705 189.449 246.019C189.449 245.544 189.559 245.08 189.603 244.638C189.924 241.731 190.123 239.201 190.255 237.112C194.22 235.3 198.336 233.84 202.555 232.747C206.899 236.055 211.863 238.457 217.154 239.808Z" fill="black"/>
<path d="M195.604 230.735C202.411 234.051 209.44 238.173 216.855 239.687C221.121 239.41 225.895 237.675 230.183 236.504L243.035 232.614C243.586 232.441 244.181 232.479 244.705 232.721C245.229 232.963 245.644 233.391 245.869 233.923C246.094 234.454 246.113 235.051 245.922 235.595C245.731 236.14 245.344 236.594 244.836 236.869C240.825 239.079 236.78 241.112 232.592 242.969C227.42 245.091 222.646 247.566 216.811 248.097C214.717 248.072 212.636 247.767 210.622 247.19C203.829 245.197 197.287 242.427 191.128 238.935C190.148 238.294 189.445 237.308 189.157 236.173C188.869 235.038 189.017 233.836 189.573 232.805C190.129 231.774 191.051 230.99 192.158 230.606C193.264 230.223 194.474 230.269 195.549 230.735H195.604Z" fill="#B97864"/>
<path d="M191.946 229.509C185.99 230.923 185.791 241.146 191.261 245.942L204.522 234.747C204.522 234.747 199.008 227.829 191.946 229.509Z" fill="#619937"/>
<path d="M243.378 232.669L250.727 232.493L247.411 239.93C247.411 239.93 240.781 239.698 241.101 236.316L243.378 232.669Z" fill="#B97964"/>
<path d="M257.037 236.128L251.998 241.554L247.389 239.93L250.727 232.493L257.037 236.128Z" fill="#B97964"/>
<path d="M355.712 322.15C360.851 332.781 365.802 343.412 369.15 354.795C370.686 362.53 370.973 370.399 371.548 378.079C371.946 384.434 372.178 390.777 372.266 397.154L366.575 397.75C364.774 388.788 363.083 378.787 361.514 369.747C360.762 365.658 360.188 361.635 359.16 357.701C355.248 347.567 349.822 337.135 345.324 327.167L355.712 322.15Z" fill="#DC897C"/>
<path d="M364.199 336.063L355.193 340.373L349.601 343.081L346.208 334.925L342.661 326.382L345.655 310.811C354.85 314.834 364.199 336.063 364.199 336.063Z" fill="#619937"/>
<path opacity="0.2" d="M355.193 340.373L349.601 343.081L346.208 334.925C346.904 330.306 347.49 326.382 347.49 326.382C347.49 326.382 354.032 332.251 355.193 340.373Z" fill="black"/>
<path d="M328.217 282.576C328.316 283.239 328.747 283.681 329.178 283.681C329.609 283.681 329.875 283.029 329.775 282.366C329.676 281.703 329.234 281.261 328.803 281.261C328.372 281.261 328.051 281.924 328.217 282.576Z" fill="#263238"/>
<path d="M328.626 283.725C329.721 285.617 331.071 287.35 332.637 288.875C332.24 289.27 331.761 289.574 331.234 289.765C330.708 289.956 330.145 290.029 329.587 289.98L328.626 283.725Z" fill="#DE5753"/>
<path d="M325.178 279.294C325.079 279.29 324.985 279.251 324.913 279.183C324.841 279.109 324.801 279.01 324.801 278.907C324.801 278.804 324.841 278.705 324.913 278.631C325.345 278.187 325.879 277.855 326.467 277.662C327.056 277.47 327.683 277.423 328.294 277.526C328.345 277.536 328.392 277.556 328.435 277.586C328.477 277.615 328.513 277.652 328.541 277.695C328.568 277.738 328.587 277.787 328.596 277.837C328.605 277.888 328.604 277.94 328.593 277.99C328.582 278.04 328.562 278.088 328.533 278.13C328.504 278.172 328.466 278.208 328.423 278.236C328.38 278.264 328.332 278.283 328.281 278.292C328.23 278.301 328.179 278.299 328.128 278.288C327.643 278.219 327.147 278.267 326.684 278.429C326.221 278.59 325.803 278.86 325.465 279.216C325.425 279.248 325.379 279.271 325.329 279.284C325.28 279.297 325.228 279.3 325.178 279.294Z" fill="#263238"/>
<path d="M330.272 292.566C330.061 295.234 328.923 297.743 327.057 299.661C325.823 300.927 324.309 301.885 322.636 302.457C321.035 303.013 319.321 303.161 317.648 302.889C315.976 302.617 314.397 301.933 313.055 300.899C308.325 297.384 307.706 292.599 305.96 284.587C305.53 282.73 305.582 280.793 306.112 278.962C306.641 277.13 307.629 275.464 308.984 274.122C310.338 272.78 312.012 271.807 313.849 271.294C315.685 270.781 317.622 270.747 319.475 271.193C327.918 273.194 330.88 285.029 330.272 292.566Z" fill="#E4897B"/>
<path d="M308.999 297.661C312.314 299.749 324.846 293.881 322.78 284.013C322.78 284.013 327.72 278.609 327.476 272.387C327.233 266.165 323.056 263.546 318.503 264.717C314.458 265.701 314.469 267.9 314.469 267.9C314.469 267.9 295.506 269.237 299.175 277.095C291.107 285.118 304.921 295.064 308.999 297.661Z" fill="#263238"/>
<path d="M319.376 285.549C319.824 287.539 320.915 289.325 322.481 290.632C324.548 292.334 326.228 290.831 326.195 288.422C326.195 286.212 325.089 282.709 322.691 281.946C320.293 281.184 318.912 283.151 319.376 285.549Z" fill="#E4897B"/>
<path opacity="0.2" d="M329.698 295.351C329.146 296.965 328.244 298.437 327.057 299.661C325.823 300.927 324.309 301.885 322.636 302.457C321.512 301.888 320.433 301.234 319.409 300.501L321.089 296.379C321.089 296.379 326.239 298.898 329.698 295.351Z" fill="black"/>
<path d="M311.695 307.772L310.281 298.081C310.281 298.081 316.591 293.66 323.2 296.633L333.146 308.623L311.695 307.772Z" fill="#E4897B"/>
<path d="M334.295 307.43L331.985 303.971C331.985 303.971 315.232 297.771 307.927 305.717C307.927 305.717 324.272 314.359 334.295 307.43Z" fill="#619937"/>
<path opacity="0.2" d="M334.295 307.43L331.985 303.971C331.985 303.971 315.232 297.771 307.927 305.717C307.927 305.717 324.272 314.359 334.295 307.43Z" fill="black"/>
<path d="M269.967 401.397L263.656 397.33L266.077 393.717L272.652 383.903L278.973 387.97L271.702 398.811L269.967 401.397Z" fill="#E4897B"/>
<path d="M264.121 396.811L272.961 396.722C273.105 396.726 273.243 396.776 273.355 396.866C273.467 396.956 273.546 397.08 273.58 397.22L275.061 403.64C275.115 403.917 275.062 404.203 274.912 404.441C274.762 404.68 274.527 404.852 274.254 404.922H274.022C271.171 404.922 269.105 404.745 265.535 404.779C263.325 404.779 256.694 405.099 253.666 405.121C250.638 405.143 250.196 402.16 251.456 401.872C256.982 400.601 261.203 398.877 262.971 397.253C263.287 396.97 263.696 396.813 264.121 396.811Z" fill="#263238"/>
<path d="M265.823 391.274L277.382 394.391L340.13 346.783L307.938 339.732C305.639 339.24 303.244 339.46 301.073 340.362C298.901 341.264 297.056 342.806 295.782 344.782L265.823 391.274Z" fill="#263238"/>
<path opacity="0.2" d="M265.823 391.274L277.382 394.391L340.13 346.783L307.938 339.732C305.639 339.24 303.244 339.46 301.073 340.362C298.901 341.264 297.056 342.806 295.782 344.782L265.823 391.274Z" fill="black"/>
<path d="M231.52 401.629L225 397.905L227.232 394.17L233.277 384.025L239.797 387.749L233.111 398.955L231.52 401.629Z" fill="#E4897B"/>
<path d="M225.254 396.656H234.095C234.239 396.657 234.378 396.707 234.491 396.797C234.603 396.888 234.681 397.013 234.714 397.153L236.139 403.596C236.189 403.874 236.132 404.16 235.977 404.396C235.823 404.633 235.585 404.801 235.31 404.867H235.078C232.238 404.867 230.161 404.646 226.591 404.646C224.381 404.646 217.75 404.878 214.722 404.878C211.694 404.878 211.285 401.872 212.512 401.563C218.038 400.347 222.292 398.667 224.083 397.065C224.411 396.793 224.827 396.647 225.254 396.656Z" fill="#263238"/>
<path d="M355.27 371.78L311.397 371.891C310.292 368.001 308.9 354.463 304.612 337.721C303.451 333.179 302.07 328.405 300.445 323.509C299.096 319.082 297.457 314.748 295.539 310.535C299.509 308.136 303.871 306.456 308.424 305.573C327.841 302.258 345.655 310.812 345.655 310.812C345.655 310.812 353.358 332.251 355.27 371.78Z" fill="#619937"/>
<path opacity="0.2" d="M304.612 337.721C303.451 333.179 302.07 328.405 300.446 323.509L303.507 322.271C303.507 322.271 308.325 333.135 304.612 337.721Z" fill="black"/>
<path d="M285.416 345.236L290.511 347.645L292.456 339.069C292.456 339.069 288.389 337.644 285.339 339.721L285.416 345.236Z" fill="#E4897B"/>
<path d="M297.815 350.551L298.047 342.738L292.456 339.069L290.511 347.645L297.815 350.551Z" fill="#E4897B"/>
<path d="M301.296 323.962C292.82 328.548 283.14 332.803 275.768 338.804C275.603 338.947 275.658 339.014 275.846 338.373C275.881 337.965 275.828 337.554 275.691 337.168C275.569 336.748 275.298 336.386 274.929 336.151C274.785 336.096 274.873 336.229 275.072 336.361C275.348 336.534 275.641 336.678 275.945 336.792C279.349 338.085 284.068 338.516 287.88 339.003L288.455 344.694C287.251 345.037 286.123 345.269 284.941 345.49C280.52 346.252 275.934 346.794 271.282 345.258C269.282 344.656 267.595 343.3 266.578 341.477C265.561 339.653 265.294 337.505 265.834 335.488C268.11 327.41 288.709 317.332 296.268 313.585L301.296 323.973V323.962Z" fill="#DC897C"/>
<path d="M309.331 362.553L307.363 367.592C307.363 367.592 283.858 338.55 270.895 336.892C257.932 335.234 227.796 390.423 227.796 390.423L239.223 393.882L271.381 364.707C284.642 387.848 300.501 404.823 319.354 404.823H337.765C358.353 404.823 358.585 381.859 354.518 362.387L309.331 362.553Z" fill="#263238"/>
<path d="M295.539 310.535C288.168 313.232 279.504 321.409 279.504 321.409C279.504 321.409 286.797 334.052 287.527 333.566C288.256 333.079 303.219 328.792 303.219 328.792C303.219 328.792 306.269 324.835 303.927 318.138C303.317 316.247 302.222 314.549 300.75 313.215C299.277 311.881 297.481 310.956 295.539 310.535Z" fill="#619937"/>
<path d="M369.559 393.341L377.571 393.739L373.338 401.563C373.338 401.563 366.21 400.778 366.774 397.142L369.559 393.341Z" fill="#E4897B"/>
<path d="M384.135 398.203L378.223 403.696L373.338 401.563L377.571 393.739L384.135 398.203Z" fill="#E4897B"/>
<path d="M121.252 314.094C126.623 319.509 131.917 325.576 138.348 329.676C138.348 329.676 138.746 329.886 138.779 329.919C138.606 329.854 138.422 329.824 138.238 329.83C138.072 329.83 138.337 329.83 138.625 329.83C145.963 327.753 152.781 322.968 159.533 319.288C160.056 318.973 160.676 318.861 161.276 318.974C161.875 319.087 162.413 319.416 162.785 319.899C163.158 320.382 163.34 320.986 163.296 321.594C163.253 322.203 162.987 322.774 162.55 323.2C157.29 328.073 143.111 341.102 135.663 338.373C131.11 336.704 127.308 333.566 123.728 330.549C120.23 327.517 116.934 324.261 113.859 320.802C109.649 315.795 116.677 309.419 121.252 314.105V314.094Z" fill="#E9B376"/>
<path d="M130.491 321.741C129.552 328.769 123.86 335.665 123.86 335.665L122.667 334.848L116.854 330.991C116.854 330.991 116.744 330.659 116.578 330.073C116.412 329.488 116.202 328.803 115.948 327.863C114.611 323.178 112.202 314.414 111.903 310.778C119.119 310.613 122.369 314.049 130.491 321.741Z" fill="#619937"/>
<path opacity="0.7" d="M130.491 321.741C129.552 328.769 123.86 335.665 123.86 335.665L122.667 334.848L116.854 330.991C116.854 330.991 116.744 330.659 116.578 330.073C116.412 329.488 116.202 328.803 115.948 327.863C114.611 323.178 112.202 314.414 111.903 310.778C119.119 310.613 122.369 314.049 130.491 321.741Z" fill="white"/>
<path opacity="0.2" d="M122.667 334.847L116.854 330.991C116.854 330.991 116.743 330.659 116.578 330.073C116.793 328.294 117.118 326.53 117.55 324.791C119.082 325.996 120.333 327.519 121.216 329.256C122.1 330.992 122.595 332.9 122.667 334.847Z" fill="black"/>
<path d="M115.594 356.397L120.556 365.083C133.817 361.989 176.452 355.491 181.68 370.111C188.189 388.268 141.188 402.756 115.185 403.64C89.1821 404.525 66.4943 398.336 82.9383 360.42L115.594 356.397Z" fill="#263238"/>
<path opacity="0.2" d="M115.594 356.397L120.556 365.083C133.817 361.989 176.452 355.491 181.68 370.111C188.189 388.268 141.188 402.756 115.185 403.64C89.1821 404.525 66.4943 398.336 82.9383 360.42L115.594 356.397Z" fill="black"/>
<path d="M174.154 395.783C174.124 395.802 174.09 395.812 174.054 395.812C174.019 395.812 173.985 395.802 173.955 395.783C173.939 395.758 173.931 395.73 173.931 395.7C173.931 395.671 173.939 395.642 173.955 395.617C174.043 395.33 174.905 392.833 175.778 392.567C175.87 392.545 175.966 392.546 176.057 392.572C176.148 392.597 176.231 392.645 176.298 392.711C176.418 392.812 176.509 392.943 176.563 393.09C176.618 393.237 176.633 393.396 176.607 393.551C176.465 394.021 176.179 394.434 175.789 394.733C175.282 395.139 174.734 395.49 174.154 395.783ZM174.375 395.308C175.187 394.955 175.843 394.319 176.22 393.518C176.245 393.413 176.238 393.304 176.201 393.204C176.163 393.104 176.097 393.017 176.01 392.954C175.986 392.924 175.953 392.901 175.915 392.889C175.878 392.877 175.838 392.877 175.8 392.888C175.727 392.915 175.659 392.956 175.602 393.009C175.056 393.695 174.641 394.474 174.375 395.308Z" fill="#263238"/>
<path d="M174.099 395.816C174.077 395.834 174.049 395.844 174.021 395.844C173.993 395.844 173.966 395.834 173.944 395.816C173.855 395.75 172.662 394.236 172.839 393.208C172.86 393.081 172.907 392.959 172.978 392.851C173.048 392.742 173.14 392.649 173.248 392.578C173.341 392.494 173.459 392.442 173.585 392.43C173.71 392.418 173.836 392.447 173.944 392.512C174.574 392.965 174.496 394.987 174.187 395.761V395.838L174.099 395.816ZM173.424 392.854C173.314 392.943 173.239 393.069 173.215 393.208C173.248 393.974 173.531 394.708 174.021 395.297C174.209 394.435 174.154 393.009 173.778 392.755C173.778 392.755 173.668 392.667 173.48 392.755V392.81L173.424 392.854Z" fill="#263238"/>
<path d="M128.436 400.049C128.453 400.021 128.477 399.999 128.507 399.985C128.536 399.971 128.569 399.967 128.601 399.971C128.631 399.973 128.659 399.986 128.681 400.006C128.703 400.026 128.718 400.053 128.723 400.082C128.789 400.38 129.242 402.988 128.612 403.64C128.541 403.704 128.455 403.747 128.362 403.767C128.269 403.786 128.172 403.781 128.082 403.751C127.926 403.725 127.781 403.657 127.662 403.554C127.543 403.45 127.455 403.316 127.408 403.165C127.299 402.691 127.349 402.193 127.551 401.751C127.786 401.154 128.082 400.584 128.436 400.049ZM128.436 400.579C127.898 401.28 127.627 402.15 127.673 403.033C127.703 403.139 127.765 403.233 127.85 403.304C127.934 403.375 128.038 403.419 128.148 403.43C128.179 403.451 128.216 403.462 128.253 403.462C128.291 403.462 128.327 403.451 128.358 403.43C128.408 403.372 128.445 403.304 128.469 403.231C128.634 402.355 128.634 401.456 128.469 400.579H128.436Z" fill="#263238"/>
<path d="M145.454 386.887L134.757 390.7L129.618 392.534L130.933 398.159L135.906 397.098L148.062 394.501L145.454 386.887Z" fill="#EBB376"/>
<path d="M132.337 398.424L131.43 391.794C131.418 391.706 131.389 391.622 131.344 391.546C131.299 391.47 131.239 391.404 131.168 391.351C131.097 391.299 131.016 391.261 130.93 391.24C130.844 391.219 130.755 391.216 130.668 391.23L127.353 391.783C127.353 391.783 122.932 392.191 122.015 393.341C119.429 396.656 121.042 411.398 122.766 411.918C123.396 412.106 124.059 411.244 124.336 410.647C125.209 408.746 126.745 403.784 127.496 402.215C128.358 400.369 130.812 399.474 131.828 399.154C131.988 399.117 132.129 399.022 132.223 398.887C132.317 398.752 132.357 398.587 132.337 398.424Z" fill="#619937"/>
<path d="M128.458 400.049C128.482 400.032 128.511 400.022 128.541 400.022C128.57 400.022 128.599 400.032 128.623 400.049C128.723 400.049 130.513 400.822 130.834 401.806C130.873 401.929 130.887 402.059 130.875 402.188C130.864 402.317 130.827 402.443 130.767 402.557C130.732 402.68 130.656 402.786 130.551 402.859C130.446 402.931 130.32 402.965 130.193 402.955C129.43 402.867 128.513 401.054 128.413 400.237V400.049C128.428 400.046 128.443 400.046 128.458 400.049ZM130.491 402.314C130.535 402.178 130.535 402.031 130.491 401.894C130.281 401.264 129.286 400.712 128.778 400.458C129.021 401.309 129.762 402.524 130.215 402.568C130.215 402.568 130.347 402.568 130.447 402.381V402.314H130.491Z" fill="#263238"/>
<path opacity="0.2" d="M145.454 386.887L134.757 390.7L135.906 397.098L148.062 394.501L145.454 386.887Z" fill="black"/>
<path d="M137.807 398.06L140.879 398.281L138.824 387.694L135.331 389.617L137.807 398.06Z" fill="#619937"/>
<path opacity="0.6" d="M137.807 398.06L140.879 398.281L138.824 387.694L135.331 389.617L137.807 398.06Z" fill="white"/>
<path opacity="0.2" d="M93.1716 356.95L109.196 374.72C109.196 374.72 126.877 374.322 148.427 384.842C148.427 384.842 171.513 375.305 173.634 367.382C176.419 357.005 120.589 365.116 120.589 365.116L93.1716 356.95Z" fill="black"/>
<path d="M115.428 364.055L82.7504 360.265C83.3763 356.89 83.7457 353.473 83.8555 350.043C83.9864 345.154 83.7944 340.263 83.2809 335.4C82.8278 330.748 82.1757 325.399 81.0706 319.122C80.8496 317.999 80.8824 316.842 81.1668 315.733C81.4512 314.625 81.9799 313.595 82.7142 312.717C83.4485 311.84 84.3698 311.138 85.4105 310.663C86.4513 310.188 87.5851 309.952 88.729 309.971C90.0441 309.971 91.4255 310.038 92.84 310.126C97.8442 310.35 102.826 310.93 107.748 311.861C109.339 312.182 110.986 312.58 112.566 312.966C118.235 314.436 121.75 321.575 121.263 327.333C121.072 331.807 120.577 336.264 119.783 340.671C118.777 347.169 117.594 353.513 115.428 364.055Z" fill="#619937"/>
<path opacity="0.7" d="M115.428 364.055L82.7504 360.265C83.3763 356.89 83.7457 353.473 83.8555 350.043C83.9864 345.154 83.7944 340.263 83.2809 335.4C82.8278 330.748 82.1757 325.399 81.0706 319.122C80.8496 317.999 80.8824 316.842 81.1668 315.733C81.4512 314.625 81.9799 313.595 82.7142 312.717C83.4485 311.84 84.3698 311.138 85.4105 310.663C86.4513 310.188 87.5851 309.952 88.729 309.971C90.0441 309.971 91.4255 310.038 92.84 310.126C97.8442 310.35 102.826 310.93 107.748 311.861C109.339 312.182 110.986 312.58 112.566 312.966C118.235 314.436 121.75 321.575 121.263 327.333C121.072 331.807 120.577 336.264 119.783 340.671C118.777 347.169 117.594 353.513 115.428 364.055Z" fill="white"/>
<path opacity="0.2" d="M83.8776 350.054C84.0085 345.166 83.8165 340.274 83.3029 335.411C87.3918 330.582 91.2597 326.57 91.2597 326.57C91.2597 326.57 97.6693 343.07 83.8776 350.054Z" fill="black"/>
<path d="M89.0385 324.78C89.4142 331.775 89.3479 342.661 90.6188 349.346L90.2872 348.529C90.0662 348.208 90.1988 348.529 90.4309 348.706C90.7298 349.002 91.0473 349.278 91.3813 349.534C95.8017 352.85 101.106 355.402 106.09 358.044L112.378 361.282C112.923 361.555 113.349 362.019 113.574 362.586C113.8 363.153 113.809 363.782 113.6 364.355C113.391 364.928 112.979 365.405 112.442 365.694C111.905 365.983 111.281 366.064 110.688 365.923C108.289 365.348 105.991 364.663 103.659 363.956C97.0284 361.746 90.2209 359.624 84.5186 355.303C83.4049 354.438 82.5394 353.295 82.01 351.988C79.4572 342.926 79.2583 334.173 79.0704 324.935C79.3025 318.492 88.6296 318.37 89.0164 324.813L89.0385 324.78Z" fill="#E9B376"/>
<path d="M121.197 360.884L119.208 359.436C118.839 359.169 118.412 358.995 117.962 358.927C117.512 358.86 117.052 358.902 116.622 359.049L112.533 360.42C111.727 360.693 110.998 361.154 110.406 361.765C109.814 362.376 109.376 363.12 109.129 363.934L108.82 364.962C111.958 367.57 117.274 368.089 117.274 368.089L118.766 368.399C119.071 368.472 119.389 368.485 119.699 368.435C120.009 368.385 120.307 368.274 120.574 368.109C120.841 367.943 121.073 367.727 121.256 367.471C121.439 367.215 121.569 366.926 121.639 366.619L122.302 363.658C122.409 363.138 122.361 362.598 122.165 362.105C121.968 361.613 121.632 361.188 121.197 360.884Z" fill="#EBB376"/>
<path d="M86.0547 310.425C79.6672 312.712 77.8327 318.282 77.7001 329.897C81.0154 332.914 91.0829 333.079 91.0829 333.079C91.0829 333.079 92.829 315.464 86.0547 310.425Z" fill="#619937"/>
<path d="M163.434 367.282V369.913C163.434 370.587 162.639 370.863 161.964 370.863H109.406C108.72 370.863 107.914 370.587 107.914 369.913V367.282H163.434Z" fill="#263238"/>
<path opacity="0.4" d="M163.434 367.282V369.913C163.434 370.587 162.639 370.863 161.964 370.863H109.406C108.72 370.863 107.914 370.587 107.914 369.913V367.282H163.434Z" fill="white"/>
<path opacity="0.2" d="M163.434 367.282V369.913C163.434 370.587 162.639 370.863 161.964 370.863H127.264C126.59 370.863 125.783 370.587 125.783 369.913V367.282H163.434Z" fill="black"/>
<path d="M172.242 339.942L165.976 368.354C165.86 368.809 165.599 369.212 165.231 369.504C164.864 369.795 164.411 369.958 163.943 369.968H129.684C129.471 369.962 129.262 369.907 129.074 369.807C128.885 369.707 128.723 369.565 128.599 369.391C128.474 369.218 128.392 369.018 128.358 368.807C128.324 368.597 128.339 368.381 128.402 368.178L134.657 339.986C134.785 339.556 135.057 339.183 135.427 338.93C135.797 338.676 136.243 338.557 136.691 338.594H170.949C171.866 338.594 172.397 339.014 172.242 339.942Z" fill="#263238"/>
<path opacity="0.4" d="M172.242 339.942L165.976 368.354C165.86 368.809 165.599 369.212 165.231 369.504C164.864 369.795 164.411 369.958 163.943 369.968H130.878C130.664 369.961 130.455 369.906 130.267 369.806C130.078 369.706 129.915 369.564 129.79 369.391C129.665 369.218 129.582 369.019 129.546 368.808C129.511 368.598 129.524 368.382 129.585 368.178L135.851 339.986C135.979 339.556 136.25 339.183 136.621 338.93C136.991 338.676 137.437 338.557 137.884 338.594H170.949C171.866 338.594 172.397 339.014 172.242 339.942Z" fill="white"/>
<path opacity="0.2" d="M155.367 354.375C155.258 355.527 154.744 356.603 153.916 357.412C153.089 358.222 152.001 358.712 150.847 358.795C148.935 358.795 147.797 356.817 148.35 354.375C148.902 351.932 150.792 350.043 152.659 349.954C152.118 352.386 153.289 354.375 155.19 354.375H155.367Z" fill="black"/>
<path d="M160.793 324.106L168.153 324.294L164.838 316.845C164.838 316.845 158.273 317.077 158.528 320.459L160.793 324.106Z" fill="#EBB376"/>
<path d="M174.463 320.669L169.424 315.232L164.816 316.845L168.153 324.294L174.463 320.669Z" fill="#EBB376"/>
<path d="M91.2266 310.049C90.4751 309.994 92.7737 319.221 103.935 321.498C115.097 323.774 114.235 313.508 113.362 310.933C113.362 310.933 98.6861 310.535 91.2266 310.049Z" fill="#EBB376"/>
<path d="M94.2878 273.967C94.2878 273.967 100.686 266.872 112.389 270.53C124.092 274.188 123.595 295.075 117.65 302.656C108.338 302.329 99.0237 303.198 89.9336 305.242C89.9336 305.242 84.2976 290.091 87.0935 281.184C89.8894 272.276 94.2878 273.967 94.2878 273.967Z" fill="#263238"/>
<path d="M96.6416 294.798C97.382 299.727 97.9567 308.656 94.4314 311.485C94.4314 311.485 99.0286 311.331 107.947 318.381C111.185 314.712 109.273 313.198 109.273 313.198C104.002 311.309 104.3 307.33 105.372 303.694L96.6416 294.798Z" fill="#EBB376"/>
<path opacity="0.2" d="M100.222 298.434L105.427 303.695C105.165 304.546 104.976 305.419 104.864 306.303C102.841 305.772 100.134 303.197 100.012 301.02C99.9263 300.153 99.9975 299.277 100.222 298.434Z" fill="black"/>
<path d="M93.6689 284.742C94.2214 292.621 94.2988 295.959 98.2661 300.213C104.245 306.535 113.738 304.634 115.451 296.898C117.053 289.914 115.87 278.2 108.223 274.741C106.61 273.942 104.813 273.589 103.018 273.717C101.222 273.845 99.4936 274.45 98.0102 275.469C96.5267 276.488 95.3423 277.885 94.5791 279.515C93.8159 281.146 93.5017 282.95 93.6689 284.742Z" fill="#EBB376"/>
<path d="M103.372 287.162C103.372 287.836 103.736 288.378 104.167 288.4C104.598 288.422 104.908 287.892 104.897 287.228C104.886 286.565 104.521 286.013 104.101 286.002C103.681 285.991 103.35 286.499 103.372 287.162Z" fill="#263238"/>
<path d="M111.616 287.251C111.616 287.914 111.992 288.466 112.411 288.488C112.831 288.51 113.152 287.98 113.141 287.317C113.13 286.654 112.765 286.101 112.345 286.09C111.925 286.079 111.616 286.588 111.616 287.251Z" fill="#263238"/>
<path d="M112.124 286.112L113.66 285.714C113.66 285.714 112.898 286.93 112.124 286.112Z" fill="#263238"/>
<path d="M109.118 288.61C109.736 290.149 110.546 291.605 111.527 292.942C111.196 293.167 110.819 293.315 110.423 293.374C110.027 293.434 109.622 293.403 109.24 293.284L109.118 288.61Z" fill="#D58745"/>
<path d="M102.046 282.963C102.095 282.971 102.146 282.967 102.194 282.952C102.242 282.936 102.286 282.91 102.322 282.874C102.667 282.555 103.086 282.327 103.542 282.211C103.997 282.096 104.474 282.096 104.93 282.211C104.976 282.226 105.025 282.232 105.074 282.227C105.122 282.222 105.169 282.207 105.212 282.183C105.255 282.159 105.292 282.127 105.321 282.088C105.351 282.049 105.372 282.005 105.383 281.957C105.411 281.855 105.397 281.745 105.346 281.653C105.294 281.56 105.208 281.491 105.107 281.46C104.53 281.305 103.924 281.299 103.344 281.442C102.764 281.585 102.23 281.872 101.791 282.278C101.721 282.35 101.681 282.447 101.681 282.548C101.681 282.65 101.721 282.747 101.791 282.819C101.855 282.897 101.946 282.949 102.046 282.963Z" fill="#263238"/>
<path d="M114.821 283.029C114.91 283.063 115.008 283.063 115.097 283.029C115.14 283.002 115.177 282.967 115.206 282.925C115.235 282.884 115.255 282.837 115.265 282.787C115.275 282.738 115.276 282.687 115.266 282.637C115.256 282.587 115.236 282.54 115.207 282.499C114.904 281.953 114.479 281.485 113.965 281.131C113.451 280.776 112.863 280.545 112.246 280.454C112.197 280.451 112.147 280.458 112.101 280.475C112.055 280.492 112.013 280.519 111.977 280.553C111.942 280.588 111.914 280.629 111.896 280.675C111.877 280.72 111.868 280.769 111.87 280.819C111.872 280.922 111.911 281.022 111.98 281.099C112.049 281.176 112.143 281.225 112.246 281.239C112.734 281.313 113.199 281.499 113.603 281.783C114.008 282.067 114.341 282.44 114.578 282.874C114.606 282.915 114.642 282.949 114.684 282.976C114.725 283.002 114.772 283.02 114.821 283.029Z" fill="#263238"/>
<path d="M103.88 286.024L105.416 285.637C105.416 285.637 104.687 286.842 103.88 286.024Z" fill="#263238"/>
<path d="M95.3044 289.472C95.3044 289.472 101.382 284.698 100.001 277.227C100.001 277.227 110.875 272.928 115.163 283.858C115.163 283.858 116.069 274.487 105.847 272.652C95.6249 270.818 83.524 284.676 95.1055 295.185L95.3044 289.472Z" fill="#263238"/>
<path d="M91.1603 291.107C91.5545 291.838 92.0895 292.484 92.7343 293.008C93.3792 293.531 94.1212 293.922 94.9176 294.157C96.9842 294.721 97.9125 292.688 97.2494 290.588C96.6416 288.698 94.8403 286.168 92.829 286.488C90.8177 286.808 90.1325 289.24 91.1603 291.107Z" fill="#EBB376"/>
<path d="M116.357 288.499C116.307 288.499 116.259 288.483 116.219 288.453C116.179 288.423 116.15 288.381 116.136 288.333C112.235 274.597 99.3602 277.426 99.2276 277.448C99.1993 277.455 99.1699 277.456 99.1413 277.451C99.1127 277.446 99.0852 277.436 99.0606 277.42C99.036 277.405 99.0146 277.385 98.9978 277.361C98.9809 277.337 98.9689 277.311 98.9623 277.282C98.9558 277.254 98.9549 277.225 98.9597 277.196C98.9645 277.167 98.9749 277.14 98.9903 277.115C99.0057 277.091 99.0258 277.069 99.0494 277.053C99.0731 277.036 99.0998 277.024 99.1281 277.017C99.2607 277.017 112.555 274.067 116.567 288.212C116.575 288.24 116.578 288.27 116.574 288.299C116.571 288.329 116.562 288.357 116.548 288.383C116.533 288.408 116.514 288.431 116.49 288.449C116.467 288.467 116.44 288.481 116.412 288.488L116.357 288.499Z" fill="#263238"/>
<path d="M109.627 295.572C109.241 296.475 108.923 297.406 108.676 298.357H108.157C105.825 298.103 104.842 297.252 104.422 296.312C104.233 295.866 104.154 295.381 104.189 294.898C104.206 294.624 104.258 294.352 104.344 294.091C105.719 294.887 107.249 295.377 108.831 295.528C109.317 295.55 109.627 295.572 109.627 295.572Z" fill="#263238"/>
<path d="M108.831 295.484L108.533 296.29C106.322 296.058 104.808 295.594 104.189 294.854C104.206 294.579 104.258 294.308 104.344 294.047C105.719 294.843 107.249 295.333 108.831 295.484Z" fill="white"/>
<path d="M108.157 298.313C105.825 298.058 104.841 297.208 104.422 296.268C105.307 296.383 106.167 296.648 106.963 297.053C107.482 297.339 107.899 297.779 108.157 298.313Z" fill="#DE5753"/>
<path d="M107.781 332.394C107.746 332.396 107.711 332.391 107.678 332.377C107.646 332.364 107.617 332.343 107.593 332.317C101.721 326.021 97.2936 318.52 94.6193 310.336C94.6024 310.269 94.6126 310.198 94.6477 310.138C94.6828 310.078 94.7401 310.034 94.8071 310.016C94.8398 310.008 94.8738 310.006 94.9071 310.011C94.9404 310.016 94.9723 310.027 95.0011 310.045C95.0299 310.062 95.055 310.085 95.0748 310.113C95.0946 310.14 95.1088 310.171 95.1166 310.204C97.7195 318.162 102.001 325.47 107.671 331.632C108.334 329.421 111.085 318.923 106.941 310.878C106.921 310.818 106.923 310.753 106.946 310.694C106.97 310.635 107.013 310.587 107.069 310.558C107.125 310.529 107.19 310.52 107.252 310.534C107.313 310.548 107.368 310.584 107.405 310.635C112.146 319.84 108.068 332.096 108.024 332.217C108.01 332.26 107.985 332.298 107.952 332.329C107.919 332.36 107.88 332.382 107.836 332.394H107.781Z" fill="#263238"/>
<path d="M108.124 331.93L108.964 333.035C109.039 333.129 109.08 333.246 109.08 333.367C109.08 333.487 109.039 333.604 108.964 333.698L108.113 334.803C108.062 334.864 107.998 334.912 107.927 334.946C107.855 334.979 107.777 334.996 107.698 334.996C107.619 334.996 107.541 334.979 107.47 334.946C107.398 334.912 107.335 334.864 107.284 334.803L106.488 333.897C106.418 333.805 106.38 333.692 106.38 333.577C106.38 333.461 106.418 333.348 106.488 333.256L107.195 331.974C107.242 331.894 107.307 331.827 107.386 331.779C107.465 331.731 107.555 331.703 107.647 331.699C107.74 331.694 107.832 331.713 107.915 331.754C107.998 331.794 108.07 331.855 108.124 331.93Z" fill="white"/>
<path opacity="0.7" d="M86.0547 310.425C79.6672 312.712 77.8327 318.282 77.7001 329.897C81.0154 332.914 91.0829 333.079 91.0829 333.079C91.0829 333.079 92.829 315.464 86.0547 310.425Z" fill="white"/>
<path d="M152.88 399.065L164.086 400.911L169.468 401.795L171.037 396.236L166.175 394.755L154.284 391.142L152.88 399.065Z" fill="#EBB376"/>
<path d="M169.943 395.33L167.523 401.563C167.491 401.646 167.476 401.735 167.479 401.824C167.482 401.914 167.503 402.001 167.54 402.083C167.577 402.164 167.629 402.237 167.695 402.297C167.76 402.358 167.837 402.405 167.921 402.436L171.048 403.541C171.048 403.541 175.148 405.331 176.475 404.757C180.353 403.088 186.067 389.418 184.807 388.18C184.343 387.705 183.348 388.18 182.818 388.534C181.138 389.771 177.392 393.363 175.977 394.38C174.32 395.573 171.789 395.197 170.695 394.965C170.547 394.926 170.389 394.942 170.252 395.008C170.114 395.075 170.004 395.189 169.943 395.33Z" fill="#619937"/>
<path opacity="0.2" d="M152.88 399.065L164.086 400.911L166.175 394.755L154.284 391.142L152.88 399.065Z" fill="black"/>
<path d="M164.241 393.595C164.241 393.595 118.556 367.912 102.775 368.642C86.994 369.371 84.7396 383.273 91.2376 391.97C97.7356 400.668 109.759 402.789 109.759 402.789C109.759 402.789 101.592 391.208 102.775 387.981C103.957 384.754 108.577 389.263 108.577 389.263C108.577 389.263 137.31 398.546 162.473 400.679L164.241 393.595Z" fill="#263238"/>
<path d="M164.981 392.888L162.395 391.153L159.069 401.353H163.059L164.981 392.888Z" fill="#619937"/>
<path opacity="0.6" d="M164.981 392.888L162.395 391.153L159.069 401.353H163.059L164.981 392.888Z" fill="white"/>
</svg>
