<svg width="398" height="358" viewBox="0 0 398 358" fill="none" xmlns="http://www.w3.org/2000/svg">
<g opacity="0.1">
<path d="M262.964 8.98771C262.964 8.98771 196.409 -17.1596 132.756 19.7419C69.1033 56.6434 38.5268 132.569 12.1446 193.336C-14.2375 254.103 3.58825 317.16 53.7353 347.082C103.882 377.004 136.338 335.858 205.569 335.741C274.8 335.623 293.7 346.419 350.096 307.421C406.493 268.422 414.311 172.826 367.058 100.608C319.805 28.3906 262.964 8.98771 262.964 8.98771Z" fill="#619937"/>
<path opacity="0.7" d="M262.964 8.98771C262.964 8.98771 196.409 -17.1596 132.756 19.7419C69.1033 56.6434 38.5268 132.569 12.1446 193.336C-14.2375 254.103 3.58825 317.16 53.7353 347.082C103.882 377.004 136.338 335.858 205.569 335.741C274.8 335.623 293.7 346.419 350.096 307.421C406.493 268.422 414.311 172.826 367.058 100.608C319.805 28.3906 262.964 8.98771 262.964 8.98771Z" fill="#619937"/>
</g>
<path d="M138.972 31.3769H37.7634V169.235H138.972V31.3769Z" stroke="#455F32" stroke-width="0.289648" stroke-linecap="round" stroke-linejoin="round"/>
<path d="M132.118 37.1818H44.6167V163.422H132.118V37.1818Z" stroke="#455F32" stroke-width="0.289648" stroke-linecap="round" stroke-linejoin="round"/>
<path d="M132.118 44.8658C130.684 44.5135 115.341 40.9399 111.868 49.2614C108.236 57.9856 132.236 80.5341 119.141 98.7542C106.046 116.974 68.9604 89.3002 63.1471 103.846C57.3338 118.392 58.0552 138.03 47.8715 141.662C46.8117 142.031 45.723 142.312 44.6167 142.501V163.472H132.118V44.8658Z" stroke="#455F32" stroke-width="0.289648" stroke-miterlimit="10"/>
<path d="M66.2846 37.1818C72.8696 40.8141 77.7182 46.0486 72.6012 52.9021C61.696 67.4395 45.6905 76.1721 55.8743 84.1664C66.0581 92.1608 92.9603 85.626 89.3281 63.0775C87.3148 50.612 87.3148 42.6009 89.1771 37.1818H66.2846Z" stroke="#455F32" stroke-width="0.289648" stroke-miterlimit="10"/>
<path d="M90.0421 142.65C96.8376 139.643 99.9088 131.697 96.9016 124.901C93.8945 118.105 85.9479 115.034 79.1523 118.041C72.3568 121.049 69.2856 128.995 72.2928 135.791C75.2999 142.586 83.2465 145.657 90.0421 142.65Z" stroke="#455F32" stroke-width="0.289648" stroke-miterlimit="10"/>
<path d="M127.144 117.989C127.142 119.067 126.821 120.121 126.221 121.016C125.621 121.912 124.769 122.609 123.772 123.021C122.776 123.432 121.68 123.539 120.622 123.328C119.565 123.116 118.595 122.596 117.833 121.833C117.071 121.071 116.553 120.099 116.343 119.042C116.133 117.984 116.242 116.888 116.655 115.892C117.068 114.896 117.766 114.045 118.663 113.447C119.559 112.848 120.613 112.528 121.691 112.528C122.408 112.528 123.118 112.67 123.78 112.944C124.442 113.219 125.043 113.621 125.55 114.128C126.056 114.635 126.458 115.238 126.731 115.9C127.005 116.563 127.145 117.273 127.144 117.989Z" stroke="#455F32" stroke-width="0.289648" stroke-miterlimit="10"/>
<path d="M74.0523 73.2612C74.0523 74.1239 73.7964 74.9673 73.3171 75.6847C72.8378 76.402 72.1566 76.9611 71.3595 77.2912C70.5624 77.6214 69.6854 77.7078 68.8392 77.5395C67.993 77.3712 67.2158 76.9557 66.6057 76.3457C65.9957 75.7356 65.5803 74.9584 65.4119 74.1122C65.2436 73.2661 65.33 72.389 65.6602 71.5919C65.9903 70.7949 66.5494 70.1136 67.2668 69.6343C67.9841 69.155 68.8275 68.8991 69.6902 68.8991C70.8471 68.8991 71.9566 69.3587 72.7747 70.1768C73.5927 70.9948 74.0523 72.1043 74.0523 73.2612Z" stroke="#455F32" stroke-width="0.289648" stroke-miterlimit="10"/>
<path d="M386.469 261.686H281.88V274.848H378.576" stroke="#455F32" stroke-width="0.289648" stroke-linecap="round" stroke-linejoin="round"/>
<path d="M287.148 274.848V335.363" stroke="#455F32" stroke-width="0.289648" stroke-linecap="round" stroke-linejoin="round"/>
<path d="M347.664 307.731H295.034V281.425H374.625" stroke="#455F32" stroke-width="0.289648" stroke-linecap="round" stroke-linejoin="round"/>
<path d="M295.034 332.729V314.971H335.819" stroke="#455F32" stroke-width="0.289648" stroke-linecap="round" stroke-linejoin="round"/>
<path d="M340.441 211.346C344.11 211.346 347.085 203.546 347.085 193.923C347.085 184.3 344.11 176.5 340.441 176.5C336.772 176.5 333.797 184.3 333.797 193.923C333.797 203.546 336.772 211.346 340.441 211.346Z" fill="#619937"/>
<path d="M361.1 183.208C363.177 176.673 362.555 170.643 359.712 169.739C356.868 168.836 352.88 173.401 350.803 179.935C348.726 186.47 349.348 192.5 352.191 193.403C355.035 194.307 359.023 189.742 361.1 183.208Z" fill="#619937"/>
<path d="M312.339 222.587C305.578 221.446 300.503 218.132 301.006 215.188C301.509 212.244 307.39 210.784 314.143 211.933C320.895 213.083 325.987 216.396 325.484 219.332C324.981 222.268 319.1 223.736 312.339 222.587Z" fill="#619937"/>
<path d="M367.335 206.499C372.984 200.898 375.468 194.245 372.884 191.639C370.301 189.034 363.627 191.463 357.979 197.064C352.331 202.665 349.846 209.318 352.43 211.923C355.014 214.529 361.687 212.1 367.335 206.499Z" fill="#619937"/>
<path d="M332.063 209.753C335.515 207.373 333.886 199.022 328.425 191.099C322.963 183.177 315.738 178.683 312.286 181.063C308.834 183.443 310.462 191.794 315.924 199.717C321.385 207.639 328.611 212.133 332.063 209.753Z" fill="#619937"/>
<path d="M340.902 210.482L341.422 234.432" stroke="#455F32" stroke-width="0.289648" stroke-miterlimit="10" stroke-linecap="round"/>
<path d="M340.29 187.447L340.902 210.482" stroke="#8C8C8C" stroke-width="0.289648" stroke-miterlimit="10" stroke-linecap="round"/>
<path d="M340.332 183.689L340.29 185.459" stroke="#8C8C8C" stroke-width="0.289648" stroke-miterlimit="10" stroke-linecap="round"/>
<path d="M332.027 208.645C335.841 216.503 338.075 225.033 338.604 233.752" stroke="#455F32" stroke-width="0.289648" stroke-miterlimit="10" stroke-linecap="round"/>
<path d="M320.619 191.188C325.178 196.476 329.014 202.347 332.027 208.645" stroke="#8C8C8C" stroke-width="0.289648" stroke-miterlimit="10" stroke-linecap="round"/>
<path d="M317.028 187.397C317.028 187.397 317.716 188.026 318.849 189.225" stroke="#8C8C8C" stroke-width="0.289648" stroke-miterlimit="10" stroke-linecap="round"/>
<path d="M352.864 211.103C348.207 217.633 344.577 224.839 342.102 232.469" stroke="#455F32" stroke-width="0.289648" stroke-miterlimit="10" stroke-linecap="round"/>
<path d="M360.481 202.32C357.677 205.007 355.127 207.947 352.865 211.103" stroke="#8C8C8C" stroke-width="0.289648" stroke-miterlimit="10" stroke-linecap="round"/>
<path d="M368.643 196.104C366.566 197.276 364.616 198.659 362.822 200.231" stroke="#8C8C8C" stroke-width="0.289648" stroke-miterlimit="10" stroke-linecap="round"/>
<path d="M352.563 191.759C348.88 203.343 343.939 220.448 341.657 235.304" stroke="#455F32" stroke-width="0.289648" stroke-miterlimit="10" stroke-linecap="round"/>
<path d="M354.802 184.888C354.148 186.843 353.385 189.167 352.562 191.759" stroke="#8C8C8C" stroke-width="0.289648" stroke-miterlimit="10" stroke-linecap="round"/>
<path d="M357.101 178.245C357.101 178.245 356.455 180.023 355.423 183.06" stroke="#8C8C8C" stroke-width="0.289648" stroke-miterlimit="10" stroke-linecap="round"/>
<path d="M325.182 217.73C327.812 218.654 330.196 220.169 332.149 222.159C334.102 224.148 335.572 226.559 336.448 229.205" stroke="#455F32" stroke-width="0.289648" stroke-miterlimit="10" stroke-linecap="round"/>
<path d="M316.651 216.002C319.565 216.148 322.441 216.731 325.182 217.73" stroke="#8C8C8C" stroke-width="0.289648" stroke-miterlimit="10" stroke-linecap="round"/>
<path d="M311.148 216.136C311.148 216.136 311.987 216.019 313.321 215.968" stroke="#8C8C8C" stroke-width="0.289648" stroke-miterlimit="10" stroke-linecap="round"/>
<path d="M370.195 222.587C376.957 221.446 382.032 218.132 381.537 215.188C381.042 212.244 375.153 210.784 368.392 211.933C361.631 213.083 356.555 216.396 357.05 219.332C357.545 222.268 363.434 223.736 370.195 222.587Z" fill="#619937"/>
<path d="M357.537 217.671C354.879 218.587 352.469 220.104 350.494 222.105C348.52 224.106 347.034 226.536 346.154 229.205" stroke="#455F32" stroke-width="0.289648" stroke-miterlimit="10" stroke-linecap="round"/>
<path d="M366.597 215.968C363.508 216.053 360.451 216.619 357.537 217.646" stroke="#8C8C8C" stroke-width="0.289648" stroke-miterlimit="10" stroke-linecap="round"/>
<path d="M371.387 216.136C371.387 216.136 370.85 216.061 369.927 216.002" stroke="#8C8C8C" stroke-width="0.289648" stroke-miterlimit="10" stroke-linecap="round"/>
<path d="M323.949 227.461C323.108 230.177 322.684 233.006 322.691 235.849C322.691 248.776 331.172 261.854 341.641 261.854C352.11 261.854 360.582 248.759 360.582 235.849C360.589 233.006 360.165 230.177 359.324 227.461H323.949Z" fill="#455F32"/>
<path d="M323.043 231.387C322.943 232.024 322.859 232.678 322.808 233.341H360.473C360.414 232.678 360.339 232.024 360.238 231.387H323.043Z" fill="#7A7A7A"/>
<path d="M360.07 241.403C360.188 240.748 360.288 240.094 360.372 239.44H322.909C322.984 240.094 323.085 240.748 323.202 241.403H360.07Z" fill="#7A7A7A"/>
<path d="M327.262 235.958C327.262 236.261 327.173 236.556 327.005 236.807C326.836 237.059 326.597 237.254 326.318 237.37C326.039 237.485 325.731 237.515 325.435 237.455C325.138 237.395 324.866 237.249 324.653 237.035C324.44 236.821 324.295 236.548 324.237 236.251C324.179 235.954 324.211 235.647 324.328 235.368C324.444 235.089 324.641 234.852 324.894 234.685C325.146 234.518 325.442 234.43 325.744 234.432C325.944 234.432 326.142 234.471 326.327 234.548C326.512 234.625 326.68 234.737 326.821 234.879C326.962 235.021 327.073 235.189 327.149 235.375C327.225 235.56 327.264 235.758 327.262 235.958Z" fill="#8C8C8C"/>
<path d="M334.888 235.958C334.888 236.26 334.798 236.555 334.631 236.807C334.463 237.058 334.224 237.253 333.945 237.369C333.666 237.484 333.36 237.515 333.063 237.456C332.767 237.397 332.495 237.251 332.282 237.038C332.068 236.824 331.923 236.552 331.864 236.256C331.805 235.96 331.835 235.653 331.951 235.374C332.066 235.095 332.262 234.857 332.513 234.689C332.764 234.521 333.059 234.432 333.361 234.432C333.562 234.43 333.761 234.469 333.947 234.546C334.133 234.622 334.301 234.734 334.443 234.876C334.585 235.018 334.698 235.187 334.774 235.373C334.85 235.558 334.889 235.758 334.888 235.958Z" fill="#8C8C8C"/>
<path d="M342.505 235.958C342.505 236.261 342.415 236.556 342.247 236.807C342.079 237.059 341.84 237.254 341.56 237.37C341.281 237.485 340.974 237.515 340.677 237.455C340.381 237.395 340.109 237.249 339.896 237.035C339.682 236.821 339.538 236.548 339.48 236.251C339.422 235.954 339.453 235.647 339.57 235.368C339.687 235.089 339.884 234.852 340.136 234.685C340.388 234.518 340.684 234.43 340.987 234.432C341.187 234.432 341.385 234.471 341.57 234.548C341.754 234.625 341.922 234.737 342.063 234.879C342.204 235.021 342.316 235.189 342.392 235.375C342.468 235.56 342.506 235.758 342.505 235.958Z" fill="#8C8C8C"/>
<path d="M350.13 235.958C350.13 236.26 350.041 236.555 349.873 236.807C349.705 237.058 349.467 237.253 349.188 237.369C348.909 237.484 348.602 237.515 348.306 237.456C348.009 237.397 347.737 237.251 347.524 237.038C347.31 236.824 347.165 236.552 347.106 236.256C347.047 235.96 347.077 235.653 347.193 235.374C347.308 235.095 347.504 234.857 347.755 234.689C348.006 234.521 348.301 234.432 348.603 234.432C348.804 234.43 349.003 234.469 349.189 234.546C349.375 234.622 349.543 234.734 349.685 234.876C349.827 235.018 349.94 235.187 350.016 235.373C350.092 235.558 350.131 235.758 350.13 235.958Z" fill="#8C8C8C"/>
<path d="M357.755 235.958C357.755 236.26 357.666 236.555 357.498 236.807C357.33 237.058 357.092 237.253 356.813 237.369C356.534 237.484 356.227 237.515 355.931 237.456C355.634 237.397 355.362 237.251 355.149 237.038C354.935 236.824 354.79 236.552 354.731 236.256C354.672 235.96 354.702 235.653 354.818 235.374C354.933 235.095 355.129 234.857 355.38 234.689C355.631 234.521 355.926 234.432 356.228 234.432C356.633 234.432 357.022 234.592 357.308 234.879C357.594 235.165 357.755 235.553 357.755 235.958Z" fill="#8C8C8C"/>
<path d="M60.8573 334.139C61.3186 332.771 61.7548 331.479 62.082 330.464C60.7314 328.459 59.5067 326.698 58.7266 325.515C58.5923 325.314 58.4078 325.372 58.3071 325.515L58.433 326.58C58.9614 328.543 59.8422 331.253 60.8573 334.139Z" fill="#619937"/>
<path d="M62.929 329.592C62.929 329.298 62.4509 329.298 62.3586 329.592C62.2663 329.886 62.1825 330.146 62.0818 330.431L63.1304 332.008C63.08 331.06 63.0129 330.221 62.929 329.592Z" fill="#619937"/>
<path d="M67.4338 338.702C67.4331 338.665 67.4244 338.628 67.4083 338.594C67.3921 338.561 67.369 338.531 67.3403 338.507C67.3117 338.483 67.2782 338.466 67.2423 338.456C67.2063 338.446 67.1686 338.444 67.1318 338.45L67.4254 338.97C67.4254 338.878 67.4338 338.786 67.4338 338.702Z" fill="#619937"/>
<path d="M60.5048 335.187C59.8086 337.36 58.9529 339.658 58.5335 341.37C58.0456 343.166 57.6785 344.993 57.4346 346.839C56.7215 344.968 55.9833 343.106 55.1193 341.302C55.95 340.578 56.5774 339.65 56.9397 338.61C57.6391 336.854 58.1372 335.025 58.4244 333.157C58.6482 331.024 58.6482 328.873 58.4244 326.74C58.4208 326.695 58.4208 326.65 58.4244 326.606C58.3657 326.404 58.2986 326.203 58.2483 326.018C58.2214 325.94 58.2119 325.856 58.2206 325.774C58.2293 325.691 58.2559 325.611 58.2986 325.54C58.0721 323.77 57.8121 322.134 57.5772 321.103C57.5101 320.817 57.0655 320.859 57.0068 321.161C56.7551 322.462 56.2266 324.668 55.7233 326.899C55.22 329.131 54.6747 331.479 54.4147 333.241C54.1355 335.08 53.9758 336.935 53.9365 338.794L52.5524 336.093L50.9921 333.577C51.7476 332.759 52.2692 331.754 52.5021 330.666C52.9821 328.862 53.2634 327.011 53.3409 325.146C53.3451 323.009 53.1428 320.877 52.737 318.779C52.2336 316.564 51.6045 314.451 51.1935 313.159C51.1012 312.865 50.6482 312.957 50.6314 313.268C50.4972 314.627 50.2623 316.858 50.0274 319.207C49.7926 321.556 49.4151 323.888 49.3731 325.649C49.2832 327.506 49.3141 329.367 49.4654 331.219L47.7877 328.703L46.0093 326.287C46.6749 325.395 47.097 324.346 47.234 323.242C47.5495 321.392 47.6452 319.511 47.5192 317.638C47.2911 315.457 46.8011 313.31 46.0596 311.246C45.3666 309.387 44.5741 307.567 43.6856 305.793C43.6491 305.738 43.5951 305.696 43.5322 305.674C43.4694 305.652 43.4011 305.652 43.3379 305.673C43.2748 305.694 43.2204 305.735 43.1831 305.791C43.1459 305.846 43.1279 305.912 43.132 305.978C43.2411 307.371 43.3249 309.677 43.4172 311.993C43.5095 314.308 43.4172 316.783 43.6353 318.536C43.7512 320.4 43.9866 322.255 44.34 324.089C43.0565 322.546 41.8234 320.985 40.3721 319.576C40.9331 318.608 41.2229 317.507 41.211 316.388C41.2806 314.497 41.1029 312.605 40.6825 310.76C40.4568 309.737 40.1308 308.74 39.7094 307.782C39.2755 306.688 38.7769 305.62 38.2163 304.586C37.232 302.809 36.1101 301.112 34.8608 299.51C34.8163 299.46 34.7563 299.426 34.6903 299.414C34.6243 299.402 34.5561 299.412 34.4965 299.443C34.4368 299.473 34.3891 299.523 34.3609 299.584C34.3327 299.645 34.3256 299.713 34.3407 299.779C34.5169 300.458 34.735 301.347 34.995 302.371C35.2551 303.394 35.4396 304.552 35.6745 305.726C36.1611 308.016 36.5134 310.466 36.9077 312.202L37.6542 315.222C37.8604 316.032 38.1096 316.83 38.4008 317.613L36.1946 315.541C35.4564 314.87 34.6343 314.283 33.8542 313.654C34.2659 312.612 34.382 311.477 34.1897 310.374C33.9654 308.479 33.4798 306.624 32.7469 304.862C32.315 303.892 31.8219 302.951 31.2705 302.044C30.6248 301.039 29.9247 300.07 29.1734 299.141C27.8765 297.527 26.4362 296.033 24.87 294.679C24.8178 294.635 24.7525 294.611 24.6847 294.609C24.6169 294.608 24.5506 294.629 24.4963 294.67C24.4421 294.71 24.4031 294.768 24.3857 294.834C24.3683 294.899 24.3734 294.969 24.4002 295.031C24.719 295.677 25.1384 296.524 25.5746 297.489L26.9084 300.66C27.7473 302.849 28.6365 305.148 29.2992 306.867C29.727 307.916 30.138 308.872 30.5491 309.711C30.8735 310.49 31.2374 311.251 31.6396 311.993L29.8109 310.751L27.9151 309.627C27.8137 309.241 27.6274 308.883 27.3698 308.578C26.9756 308.136 26.5402 307.731 26.0696 307.371C24.7326 306.367 23.2427 305.585 21.6572 305.055C19.7882 304.445 17.8352 304.131 15.869 304.124C14.9306 304.108 13.9921 304.15 13.0588 304.25C13.4447 304.983 13.839 305.712 14.2416 306.439L15.2818 306.867C17.0266 307.589 18.7966 308.469 20.2227 308.973C23.1923 310.047 25.885 310.751 27.1517 310.533L29.0643 311.624C29.6851 312.009 30.2723 312.462 30.8846 312.848C30.0994 312.76 29.3088 312.729 28.519 312.756C27.5782 312.828 26.6425 312.957 25.7172 313.142C24.7988 313.329 23.9021 313.61 23.0413 313.981C22.0858 314.363 21.158 314.812 20.2647 315.323L19.9207 315.533C20.4156 316.246 20.9106 316.95 21.4139 317.647L22.7645 317.412C23.6033 317.286 24.5093 317.135 25.281 316.959C27.0678 316.564 28.7791 316.221 30.2135 315.784C31.2732 315.571 32.2798 315.149 33.1747 314.543C33.9297 315.147 34.7098 315.709 35.4229 316.355L37.5704 318.301C36.7983 318.1 36.0136 317.952 35.2215 317.856C34.2846 317.732 33.3379 317.698 32.3946 317.756C30.3991 317.874 28.4304 318.275 26.5477 318.947C25.5663 319.282 24.6519 319.626 23.8382 319.987L23.3181 320.239C23.6285 320.641 23.9473 321.078 24.266 321.438H26.0025C26.9 321.438 27.7976 321.497 28.7204 321.497H31.346C33.1496 321.497 34.9867 321.296 36.4295 321.136C37.5137 321.103 38.578 320.837 39.5501 320.356C40.9258 321.715 42.1505 323.217 43.3837 324.693C41.7734 324.037 40.0792 323.611 38.3505 323.426C36.3565 323.265 34.3502 323.352 32.3778 323.686C30.6741 323.972 28.9923 324.375 27.3446 324.894C27.3014 324.912 27.2617 324.938 27.2272 324.97L27.6634 325.465L31.5054 326.086C33.2334 326.463 35.2719 326.748 36.8573 326.983C38.5601 327.202 40.2744 327.32 41.9912 327.335C43.0734 327.443 44.1661 327.317 45.1956 326.966L46.8733 329.298L48.4839 331.714C46.9401 330.873 45.2851 330.255 43.5682 329.877C41.5933 329.45 39.5732 329.266 37.5536 329.332C35.8023 329.374 34.0547 329.514 32.3191 329.751C32.0423 329.81 31.8745 330.162 32.0842 330.238C33.0153 330.548 34.6008 331.077 36.3792 331.597C38.1179 332.259 39.8937 332.819 41.6975 333.275C43.3671 333.7 45.0623 334.016 46.7727 334.222C47.8446 334.425 48.9468 334.405 50.0107 334.164L51.4787 336.68L52.8292 339.247C51.3828 338.249 49.8009 337.464 48.1316 336.915C46.2034 336.301 44.2103 335.912 42.1925 335.758C40.5148 335.59 38.9125 335.531 37.7046 335.531C38.5434 336.252 39.3823 336.966 40.2212 337.67L40.7916 337.922C42.4615 338.729 44.1723 339.449 45.917 340.078C47.538 340.65 49.1939 341.118 50.8747 341.479C51.9126 341.804 53.0085 341.901 54.0875 341.764C54.9264 343.509 55.631 345.312 56.3357 347.107C55.0041 345.968 53.5222 345.017 51.9317 344.28C50.3155 343.563 48.6286 343.018 46.8985 342.653C49.1047 344.197 51.3864 345.681 53.7436 347.082C55.329 348.03 56.8893 348.903 58.4412 349.708L58.3657 349.473C59.2806 348.84 60.0057 347.97 60.4629 346.956C61.3687 345.31 62.0567 343.554 62.5097 341.73C62.7 341.02 62.8401 340.296 62.9291 339.566C62.2161 337.813 61.5114 335.934 60.8655 334.113L60.5048 335.187Z" fill="#619937"/>
<path d="M64.6654 343.467L64.4138 344.012C63.3988 346.143 62.4005 348.282 61.721 349.959L61.2932 351.117C62.476 351.679 63.6504 352.208 64.8164 352.686C65.1016 352.107 65.3785 351.486 65.6553 350.832C66.0985 349.626 66.4436 348.386 66.6871 347.124C66.1251 346.185 65.563 345.161 65.0094 344.087C64.8668 343.886 64.7661 343.643 64.6654 343.467Z" fill="#619937"/>
<path d="M100.367 343.97C100.577 343.769 100.3 343.425 100.007 343.534C97.4902 344.448 91.7943 346.889 88.7241 349.305C87.0653 350.557 85.5665 352.008 84.2613 353.625C84.8905 351.318 85.5616 349.012 86.3249 346.738C87.5665 346.973 91.0226 345.237 94.7136 342.779C98.0081 340.326 101.169 337.7 104.184 334.91C104.402 334.709 104.184 334.348 103.857 334.449C102.574 334.86 100.502 335.581 98.2619 336.487C96.1524 337.334 94.1227 338.367 92.197 339.574C90.4514 340.712 88.8488 342.056 87.4239 343.576C88.2124 341.311 89.1016 339.071 89.9404 336.865C91.1903 337.192 94.7219 335.674 98.5639 333.417C102.023 331.133 105.34 328.64 108.496 325.951C108.723 325.758 108.496 325.381 108.186 325.465C106.885 325.834 104.738 326.471 102.481 327.285C100.327 328.034 98.239 328.963 96.2403 330.062C94.4308 331.108 92.7427 332.351 91.2071 333.769C92.1802 331.58 93.1197 329.365 94.1683 327.21C95.3846 327.595 99.0085 326.295 102.968 324.19C104.907 323.085 106.781 321.869 108.58 320.549C110.476 319.215 112.195 317.923 113.227 317.143C113.47 316.967 113.227 316.59 112.942 316.657C110.3 317.227 104.251 318.854 100.804 320.708C98.9533 321.68 97.2125 322.847 95.6111 324.19C96.6849 322.042 97.7418 319.878 98.8827 317.764C100.074 318.209 103.773 317.059 107.8 315.13C111.281 313.452 116.188 310.038 118.361 308.646C118.604 308.486 118.403 308.092 118.093 308.142C115.425 308.545 109.318 309.879 105.803 311.573C103.906 312.448 102.113 313.534 100.46 314.811C101.617 312.706 102.783 310.617 104.008 308.536C105.174 309.031 108.932 308.058 113.034 306.355C116.566 304.845 121.658 301.8 123.856 300.567C124.107 300.425 123.923 300.03 123.621 300.056C122.287 300.173 120.106 300.45 117.749 300.894C115.511 301.303 113.315 301.915 111.189 302.723C109.249 303.488 107.407 304.483 105.703 305.684C106.936 303.629 108.219 301.607 109.553 299.594C110.711 300.173 114.486 299.368 118.671 297.958C120.475 297.354 122.673 296.339 124.711 295.442C126.75 294.544 128.587 293.714 129.686 293.227C129.946 293.127 129.795 292.724 129.493 292.707C127.561 292.655 125.628 292.725 123.705 292.917C121.482 293.103 119.283 293.516 117.145 294.15C115.164 294.793 113.266 295.669 111.491 296.759C112.506 295.324 113.504 293.873 114.561 292.472C115.861 292.271 118.487 289.729 121.272 286.474C121.876 285.745 122.547 284.897 123.201 283.958C123.856 283.018 124.569 282.079 125.248 281.139C126.378 279.54 127.594 278.003 128.889 276.534C128.936 276.484 128.965 276.419 128.971 276.35C128.976 276.28 128.958 276.212 128.918 276.155C128.879 276.098 128.821 276.056 128.755 276.036C128.688 276.017 128.617 276.021 128.553 276.047C126.684 276.89 124.907 277.925 123.252 279.134C122.254 279.844 121.296 280.609 120.383 281.425C119.557 282.164 118.778 282.954 118.051 283.79C115.375 286.961 113.856 290.149 113.789 291.617C112.699 293.051 111.692 294.536 110.644 295.996C111.029 293.969 111.268 291.916 111.357 289.855C111.449 287.85 111.357 285.233 111.273 282.708C111.189 280.183 111.113 277.767 111.113 276.274C111.107 276.203 111.076 276.136 111.025 276.086C110.975 276.035 110.909 276.003 110.839 275.995C110.768 275.987 110.696 276.004 110.636 276.042C110.576 276.081 110.531 276.139 110.509 276.207C109.71 278.251 109.024 280.337 108.454 282.456C107.802 284.785 107.386 287.174 107.213 289.587C106.978 294.209 107.758 297.975 108.681 298.906C107.389 300.894 106.105 302.874 104.889 304.904C105.142 302.859 105.245 300.799 105.199 298.739C105.149 296.734 104.897 294.167 104.57 291.684C104.243 289.201 103.958 286.844 103.773 285.409C103.757 285.343 103.72 285.285 103.667 285.243C103.613 285.201 103.547 285.178 103.48 285.178C103.412 285.178 103.346 285.201 103.293 285.243C103.24 285.285 103.202 285.343 103.186 285.409C102.347 288.261 100.938 294.72 101.055 298.747C101.148 303.344 102.079 307.077 103.085 307.974C101.877 310.005 100.72 312.068 99.5873 314.14C99.7442 312.088 99.7442 310.027 99.5873 307.974C99.2937 304.032 97.9096 297.673 97.3643 294.838C97.3485 294.772 97.3109 294.713 97.2576 294.671C97.2044 294.629 97.1386 294.607 97.0708 294.607C97.003 294.607 96.9371 294.629 96.8839 294.671C96.8306 294.713 96.793 294.772 96.7771 294.838C96.148 297.673 95.1498 304.158 95.4517 308.151C95.7705 312.722 96.8862 316.405 97.918 317.235C96.8023 319.316 95.7621 321.43 94.6968 323.552C94.7811 321.496 94.6941 319.437 94.4367 317.395C93.9754 313.469 92.2641 307.203 91.5594 304.418C91.5436 304.352 91.506 304.293 91.4527 304.251C91.3995 304.209 91.3336 304.186 91.2658 304.186C91.198 304.186 91.1322 304.209 91.0789 304.251C91.0257 304.293 90.9881 304.352 90.9722 304.418C90.7625 305.835 90.4689 308.176 90.2844 310.642C90.0813 312.998 90.0813 315.366 90.2844 317.722C90.8045 322.26 92.0879 325.918 93.1533 326.681C92.1131 328.812 91.1903 330.993 90.2257 333.149C90.2071 331.09 90.0219 329.037 89.672 327.008C89.2444 324.691 88.6842 322.4 87.9943 320.146C87.3316 317.772 86.6269 315.533 86.1991 314.165C86.1824 314.096 86.1413 314.036 86.0834 313.995C86.0255 313.954 85.9547 313.935 85.8841 313.942C85.8135 313.949 85.7478 313.982 85.6994 314.034C85.6509 314.085 85.6228 314.153 85.6203 314.224C85.3267 317.068 84.8653 323.586 85.5448 327.579C86.2578 332.108 87.7678 335.699 88.9002 336.395C88.0614 338.593 87.1554 340.799 86.3837 343.039C86.2166 340.982 85.9083 338.938 85.4609 336.924C84.9039 334.625 84.2291 332.358 83.4393 330.129C83.2799 329.642 83.1121 329.164 82.9527 328.694C83.2967 327.235 83.5819 325.96 83.7916 324.995C83.8922 324.55 83.498 324.206 83.2799 324.55C82.9611 325.062 82.5752 325.691 82.1474 326.413C81.8454 325.574 81.577 324.794 81.3589 324.206C81.3325 324.144 81.2862 324.093 81.2272 324.06C81.1682 324.028 81.1 324.016 81.0334 324.026C80.9668 324.037 80.9057 324.069 80.8598 324.119C80.8139 324.168 80.7858 324.232 80.7801 324.299C80.713 325.423 80.6459 327.109 80.6459 328.98C79.5386 330.942 78.339 333.174 77.2904 335.38C77.173 335.103 77.0723 334.843 76.98 334.617C76.9521 334.553 76.9029 334.5 76.8407 334.468C76.7786 334.437 76.7073 334.427 76.639 334.442C76.5708 334.457 76.5098 334.495 76.4664 334.55C76.423 334.605 76.4 334.673 76.4012 334.743C76.4012 335.414 76.4012 336.286 76.4012 337.259C75.9986 338.173 75.6379 339.071 75.3359 339.91C74.3207 342.763 73.5435 345.695 73.0122 348.676C72.6851 344.926 72.4166 341.126 72.1734 337.41C73.4233 337.083 75.8811 332.62 78.1964 326.698C80.1845 321.581 82.441 312.714 83.4896 308.864C83.5986 308.427 83.2128 308.067 82.9863 308.411C81.0066 311.355 76.569 318.36 74.5977 323.51C73.4448 326.333 72.5246 329.245 71.8462 332.218C71.6561 328.459 71.4995 324.699 71.3764 320.935C72.6431 320.641 75.2352 316.262 77.7602 310.424C78.8171 307.907 80.0251 304.451 81.0569 301.196C82.2229 298.068 83.2379 295.182 83.8335 293.42C83.9677 293.026 83.5986 292.665 83.3638 292.959C82.3068 294.259 80.5704 296.465 78.792 299.032C78.3474 299.67 77.9028 300.332 77.4666 301.012C77.0304 301.691 76.6277 302.413 76.267 303.109C75.4952 304.51 74.7906 305.894 74.2286 307.152C73.0072 309.928 72.0113 312.798 71.2506 315.734C71.1835 311.976 71.1332 308.184 71.1667 304.443C71.7959 304.325 72.8445 303.193 73.9853 301.373C75.4733 299.138 76.8344 296.822 78.0622 294.435C78.3725 293.856 78.6745 293.211 78.9849 292.539L80.0587 290.425C80.7885 288.966 81.5099 287.431 82.1894 285.938C82.8688 284.444 83.6154 283.002 84.2446 281.743L85.8384 278.497C86.023 278.119 85.7042 277.708 85.4274 277.985C84.211 279.16 82.2145 281.164 80.1174 283.522C78.1445 285.855 76.3631 288.343 74.7906 290.962C74.3645 291.667 73.9835 292.399 73.6498 293.152C73.3142 293.873 73.0038 294.595 72.7102 295.299C72.1314 296.7 71.6365 298.034 71.259 299.234C71.4603 295.484 71.5023 291.726 72.0308 288.001C73.3562 287.884 76.3761 283.908 79.9748 278.858C82.8772 274.42 87.4155 266.912 89.4707 263.758C89.6972 263.389 89.4203 262.919 89.1183 263.188C87.7762 264.253 85.57 266.048 83.2463 268.179C81.0323 270.299 78.9797 272.581 77.1059 275.007C75.4059 277.489 73.9079 280.104 72.6263 282.825L73.5826 277.281L74.0692 274.504L74.6983 271.761C75.3443 271.761 76.5774 270.88 78.1209 269.395C79.6644 267.91 81.5938 265.855 83.607 263.523C85.2848 261.476 87.4993 258.675 89.4791 255.973L94.5877 249.321C94.8562 248.977 94.6464 248.482 94.3025 248.726C92.8261 249.648 90.5025 251.242 87.9859 253.155C85.5502 255.035 83.2696 257.108 81.1659 259.354C79.1993 261.637 77.4313 264.085 75.8811 266.669L77.4162 261.242L78.1964 258.54L79.094 255.864C80.3858 256.024 84.2781 252.803 88.766 248.508C92.6248 244.758 98.3542 238.097 101.072 235.396C101.366 235.086 101.181 234.599 100.837 234.784C98.5356 235.942 96.2956 237.219 94.1263 238.609C92.8177 239.448 91.4336 240.354 90.1837 241.302C88.9338 242.25 87.7678 243.223 86.7612 244.154C85.5698 245.245 84.4491 246.41 83.4057 247.644C82.4075 248.793 81.5183 249.909 80.7801 250.924C81.7951 248.365 82.6927 245.765 83.8084 243.24C84.5214 242.745 85.5784 241.26 86.7863 239.121C87.9943 236.982 89.4707 234.247 91.031 231.252C91.6937 229.918 92.3983 228.35 93.1617 226.722L94.269 224.206L95.4182 221.689C96.9198 218.334 98.371 215.238 99.3357 213.376C99.5538 212.948 99.1931 212.68 98.8575 213.041C96.7652 215.35 94.8047 217.775 92.9855 220.305L91.3497 222.612C90.8296 223.401 90.3263 224.197 89.823 224.969C88.9035 226.407 88.0634 227.894 87.3064 229.424C86.0162 231.968 84.9143 234.603 84.0097 237.309C83.4204 238.969 83.0592 240.702 82.9359 242.459L82.0971 244.397L81.3421 246.36L79.8238 250.294C79.9496 249.07 80.0335 247.677 80.0754 246.159C80.1174 244.64 80.0754 243.021 80.1341 241.344C80.1341 239.934 80.0587 238.349 79.9412 236.688C79.8238 235.027 79.7231 233.333 79.6141 231.655C79.3288 228.299 79.1611 225.212 79.0017 223.266C79.0017 222.83 78.4564 223.006 78.339 223.493L77.3995 227.545C77.0891 229.155 76.7619 230.959 76.4599 232.787C76.1579 234.616 75.965 236.529 75.7888 238.307C75.6144 239.931 75.5416 241.565 75.5707 243.198C75.663 249.749 76.9381 254.707 78.037 255.47L77.1478 258.079C76.871 258.918 76.6361 259.857 76.3761 260.747L74.8577 266.082C74.8445 263.092 74.654 260.106 74.2873 257.14C74.0776 254.354 73.4484 250.831 72.8864 247.535C72.3244 244.238 71.821 241.126 71.5023 239.255C71.4435 238.827 70.9318 239.045 70.848 239.54C70.5795 241.721 70.0762 245.261 69.8581 248.986C69.5993 252.475 69.6358 255.98 69.9672 259.463C70.2375 262.246 70.7998 264.993 71.6449 267.659C72.3411 269.764 73.0542 271.115 73.6414 271.442L73.0206 274.152L72.5425 276.886L71.5945 282.364C71.2658 279.386 70.7588 276.431 70.0762 273.514C69.5813 270.763 68.6334 267.332 67.7022 264.069C66.7711 260.805 66.0748 257.811 65.5631 255.948C65.4457 255.52 64.9759 255.789 64.9508 256.292C64.6907 260.705 64.6404 270.654 66.0329 276.291C67.3583 282.716 69.7491 287.322 70.957 287.833C70.4369 291.499 70.3866 295.215 70.1936 298.915C69.9252 297.715 69.5645 296.398 69.1199 294.905C68.9018 294.184 68.6669 293.429 68.4069 292.657C68.1468 291.885 67.8784 291.088 67.6519 290.291C66.813 287.607 65.4876 284.285 64.2461 281.139C63.0046 277.994 61.9644 275.058 61.2598 273.246C61.1004 272.826 60.6558 273.145 60.6894 273.657C60.7732 274.756 60.8739 276.215 60.9913 277.851C61.1088 279.487 61.2598 281.307 61.6037 283.195C61.9476 285.082 62.2496 286.953 62.6103 288.723C62.8033 289.603 62.9711 290.451 63.1976 291.239C63.424 292.028 63.6841 292.799 63.9274 293.487C64.8227 296.13 65.9454 298.689 67.2828 301.138C68.4236 303.008 69.4135 304.174 70.0594 304.376C70.0594 308.067 70.0594 311.758 70.1433 315.457C69.2759 312.616 68.2394 309.828 67.0395 307.11C66.4943 305.827 65.8064 304.418 65.043 302.975L63.8686 300.785L62.7278 298.529C61.1423 295.501 59.6827 292.657 58.7851 290.979C58.5838 290.585 58.1812 290.979 58.2734 291.457C58.6929 293.664 59.3891 297.262 60.2699 300.886C61.1631 304.166 62.2643 307.385 63.5666 310.525C66.1252 316.397 68.9773 320.591 70.2775 320.935C70.3866 324.626 70.546 328.317 70.7305 332.008C69.7815 329.196 68.6609 326.445 67.3751 323.77C64.9592 318.737 60.3538 311.657 58.3322 308.528C58.1057 308.176 57.7282 308.528 57.8456 309.015C58.8858 313.1 61.5702 322.26 64.0112 327.31C66.7795 333.082 69.7574 337.175 71.0577 337.477C71.3009 341.168 71.561 344.851 71.8965 348.533C70.8402 345.759 69.6246 343.048 68.2559 340.413C68.0126 339.943 67.7442 339.449 67.417 338.945C67.413 340.79 67.2982 342.634 67.0731 344.465C66.9724 345.346 66.8298 346.235 66.6537 347.099C69.036 351.125 71.2842 353.81 72.3495 353.994C72.3495 354.447 72.4502 354.9 72.4921 355.353L73.6581 355.689C73.5994 355.093 73.5323 354.498 73.4736 353.902C74.4131 353.617 75.9902 350.958 77.5588 347.099C77.6595 347.502 77.7518 347.887 77.8608 348.24C79.1695 352.728 81.1659 356.058 82.3823 356.578L82.2061 357.417L83.3302 357.551L83.4812 356.872C84.7395 356.989 88.0362 354.976 91.4923 352.308C94.4954 349.968 98.5555 345.757 100.367 343.97ZM83.2128 353.197C82.8924 351.152 82.4328 349.132 81.837 347.149C81.3421 345.472 80.5368 343.316 79.7063 341.227C80.1845 339.7 80.6542 337.997 81.1156 336.252C81.1995 336.781 81.2918 337.293 81.4008 337.762C82.3823 342.284 84.0936 345.748 85.2512 346.386C84.5298 348.626 83.8671 350.899 83.2463 353.189L83.2128 353.197Z" fill="#619937"/>
<path d="M67.132 338.45C65.9492 336.387 64.5147 334.139 63.1306 332.041C63.1809 333.048 63.2145 334.181 63.2313 335.321C63.1809 336.781 63.1054 338.249 62.9209 339.591C63.4997 341 64.0869 342.317 64.6657 343.467C65.5046 341.546 66.3435 339.751 66.8719 338.626C66.895 338.576 66.9314 338.533 66.9773 338.502C67.0231 338.471 67.0766 338.453 67.132 338.45Z" fill="#619937"/>
<path d="M187.223 109.659C187.223 109.659 187.223 127.77 186.762 129.599C186.3 131.428 169.146 135.186 169.146 135.186C169.146 135.186 181.485 144.959 200.737 144.497C219.989 144.036 228.713 130.975 228.713 130.975L218.227 128.056L216.793 111.949C216.793 111.949 197.541 116.765 187.223 109.659Z" fill="white" stroke="#455F32" stroke-width="0.289648" stroke-linecap="round" stroke-linejoin="round"/>
<path d="M170.328 132.795L175.42 128.836C175.42 128.836 183.624 133.03 198.33 133.03C213.035 133.03 220.14 130.773 222.657 128.509L225.173 126.244L233.377 129.356C233.377 129.356 230.861 131.621 223.756 137.56C216.65 143.499 184.161 142.081 175.68 138.692C167.2 135.303 170.328 132.795 170.328 132.795Z" fill="#619937" stroke="#455F32" stroke-width="0.289648" stroke-linecap="round" stroke-linejoin="round"/>
<path d="M212.213 117.15L204.521 113.527C198.707 113.686 192.005 112.956 187.223 109.659C187.223 109.659 187.223 123.92 186.905 128.4C208.883 128.366 212.213 117.15 212.213 117.15Z" fill="#455F32" stroke="#455F32" stroke-width="0.289648" stroke-linecap="round" stroke-linejoin="round"/>
<path d="M173.122 71.1221C173.122 72.3888 175.026 98.7039 176.737 103.485C180.739 114.684 194.555 127.636 207.129 121.345C211.609 119.105 215.77 115.422 219.654 112.31C222.397 110.112 227.614 106.933 228.881 103.435C230.148 99.937 237.429 78.4034 237.429 78.4034C237.429 78.4034 235.533 60.3428 228.243 51.1572C220.954 41.9717 215.568 42.6009 205.745 46.4093C195.922 50.2177 172.51 67.0033 172.51 67.0033L173.122 71.1221Z" fill="white" stroke="#455F32" stroke-width="0.289648" stroke-linecap="round" stroke-linejoin="round"/>
<path d="M184.564 74.8215C186.948 71.7663 190.34 69.6582 194.135 68.874" stroke="#455F32" stroke-width="0.868943" stroke-miterlimit="10" stroke-linecap="round"/>
<path d="M212.624 66.9614C212.624 66.9614 219.494 69.5367 221.575 76.7257" stroke="#455F32" stroke-width="0.868943" stroke-miterlimit="10" stroke-linecap="round"/>
<path d="M201.937 105.029C201.972 105.285 201.952 105.546 201.878 105.794C201.803 106.042 201.677 106.271 201.507 106.466C201.337 106.661 201.127 106.817 200.892 106.924C200.656 107.031 200.4 107.087 200.142 107.087C199.883 107.087 199.627 107.031 199.392 106.924C199.156 106.817 198.946 106.661 198.776 106.466C198.606 106.271 198.48 106.042 198.406 105.794C198.331 105.546 198.311 105.285 198.346 105.029C198.346 103.888 199.244 103.762 200.242 103.762C201.24 103.762 201.937 103.888 201.937 105.029Z" fill="#455F32" stroke="#455F32" stroke-width="0.289648" stroke-linecap="round" stroke-linejoin="round"/>
<path d="M181.863 83.4618L191.384 82.3461" stroke="#455F32" stroke-width="0.289648" stroke-linecap="round" stroke-linejoin="round"/>
<path d="M210.116 82.9836L222.338 85.2066" stroke="#455F32" stroke-width="0.289648" stroke-linecap="round" stroke-linejoin="round"/>
<path d="M215.291 78.3112C215.291 79.8631 214.537 81.1297 213.614 81.1297C212.691 81.1297 211.936 79.8631 211.936 78.3112C211.936 76.7593 212.691 75.501 213.614 75.501C214.537 75.501 215.291 76.7593 215.291 78.3112Z" fill="#455F32"/>
<path d="M191.116 77.724C191.116 79.3094 190.327 80.6012 189.346 80.6012C188.364 80.6012 187.609 79.2675 187.609 77.724C187.609 76.1805 188.406 74.8551 189.379 74.8551C190.352 74.8551 191.116 76.0966 191.116 77.724Z" fill="#455F32"/>
<path d="M196.644 91.5819C196.798 92.1891 197.099 92.7491 197.52 93.2128C197.941 93.6765 198.47 94.0296 199.06 94.2411C201.241 95.2142 204.143 96.1789 206.811 91.8252" stroke="#455F32" stroke-width="0.289648" stroke-linecap="round" stroke-linejoin="round"/>
<path d="M262.46 70.2742C262.462 70.2381 262.462 70.2019 262.46 70.1658" stroke="#455F32" stroke-width="0.289648" stroke-linecap="round" stroke-linejoin="round"/>
<path d="M258.35 81.2556C258.35 81.2556 259.617 80.3076 260.867 77.4555C261.733 75.1496 262.264 72.7315 262.444 70.2749C262.394 70.6943 261.999 72.263 258.971 71.4325C255.481 70.4846 251.22 67.0201 251.22 64.4867C251.22 61.9534 252 42.2905 245.977 35.0008C239.954 27.7111 231.406 26.7632 226.339 29.6153C226.339 29.6153 215.56 20.111 206.374 18.8443C197.189 17.5776 184.832 19.7922 178.809 25.1777C172.786 30.5632 170.27 32.7778 163.618 39.1364C159.373 43.0945 154.568 46.4045 149.357 48.9594C149.297 49.8303 149.472 50.7013 149.863 51.4818C150.254 52.2622 150.847 52.9236 151.58 53.397C153.285 54.4167 155.089 55.2599 156.966 55.9136C155.458 57.1462 153.863 58.2677 152.192 59.269C151.176 59.7123 150.123 60.0686 149.047 60.3344L146.824 60.024C146.824 60.024 146.505 65.0572 149.34 67.3053C152.176 69.5535 159.163 70.795 162.653 65.0907C162.183 65.9541 161.771 66.8481 161.42 67.7667L154.348 75.9456C153.297 77.2389 151.957 78.2673 150.436 78.9478C148.915 79.6282 147.255 79.9418 145.591 79.8631C145.591 79.8631 145.893 81.977 148.946 85.9028C151.999 89.8287 159.507 93.1422 164.339 94.3502C166.503 94.9804 168.727 95.3851 170.974 95.5581C170.974 95.5581 170.723 94.6606 170.463 93.2177C172.25 93.8636 173.483 94.2915 173.483 94.2915C172.483 89.4641 172.329 84.4996 173.03 79.6198C173.231 78.1853 175.068 75.9623 175.731 74.9305C178.612 70.8404 182.636 67.6917 187.299 65.8792C193.431 63.7989 198.9 64.0673 204.797 61.3997C207.851 60.0156 215.912 55.922 215.912 51.7864C215.912 51.7864 219.083 64.4532 224.469 72.0616C229.854 79.6701 234.921 92.3369 234.921 92.3369L233.008 103.729C233.008 103.729 236.808 101.514 248.217 96.4389C259.625 91.3638 263.107 85.6931 264.055 83.1598C264.524 81.83 265.164 80.5668 265.959 79.4017L258.35 81.2556Z" fill="#455F32" stroke="#455F32" stroke-width="0.289648" stroke-linecap="round" stroke-linejoin="round"/>
<path d="M163.609 117.914C163.609 117.914 164.297 86.0371 164.985 82.6145C165.673 79.192 170.261 76.6502 170.261 76.6502C170.261 76.6502 176.679 70.2329 178.281 69.5451C179.883 68.8572 180.797 70.4678 180.118 72.2965C179.439 74.1253 174.842 81.0039 174.842 81.0039L174.615 90.634C176.965 88.9114 179.497 87.4515 182.165 86.2803C186.057 84.6781 194.999 82.3796 195.687 82.6145C196.375 82.8494 195.226 85.366 192.936 86.9682C190.646 88.5704 184.916 90.4075 184.228 91.0954C183.541 91.7833 178.725 97.0513 178.725 97.0513C178.725 97.0513 186.275 94.2998 188.582 93.159C190.889 92.0181 197.289 87.4296 197.524 89.9462C197.759 92.4628 193.162 95.4491 190.646 97.2778C188.129 99.1065 179.875 103.016 179.875 104.391C179.875 105.767 179.875 115.162 178.499 119.491C177.123 123.819 175.513 125.447 172.082 127.51C169.254 129.115 166.345 130.571 163.366 131.872L158.098 122.016C158.098 122.016 163.383 120.204 163.609 117.914Z" fill="white" stroke="#455F32" stroke-width="0.289648" stroke-linecap="round" stroke-linejoin="round"/>
<path d="M170.262 76.6502C170.262 76.6502 167.971 80.316 167.971 82.841C167.971 85.366 168.424 94.7612 168.424 94.7612" stroke="#455F32" stroke-width="0.289648" stroke-linecap="round" stroke-linejoin="round"/>
<path d="M256.018 284.235L148.375 283.941V344.482H149.667C165.807 339.843 183.884 335.783 205.561 335.741C227.539 335.741 244.433 336.764 259.08 336.982L256.018 284.235Z" fill="#455F32" stroke="#455F32" stroke-width="0.289648" stroke-linecap="round" stroke-linejoin="round"/>
<path d="M168.911 282.767C168.911 283.647 166.856 299.779 149.256 307.094" stroke="white" stroke-width="0.289648" stroke-linecap="round" stroke-linejoin="round"/>
<path d="M253.636 309.686C254.312 309.915 255.009 310.133 255.725 310.34" stroke="white" stroke-width="0.289648" stroke-linecap="round" stroke-linejoin="round"/>
<path d="M226.104 285.703C226.104 285.703 230.66 300.081 249.299 308.042" stroke="white" stroke-width="0.289648" stroke-linecap="round" stroke-linejoin="round"/>
<path d="M196.182 320.012L194.722 295.081L194.135 291.566L202.348 291.86L203.229 314.736" stroke="white" stroke-width="0.289648" stroke-linecap="round" stroke-linejoin="round"/>
<path d="M211.374 326.169L184.455 315.029" stroke="white" stroke-width="0.289648" stroke-linecap="round" stroke-linejoin="round"/>
<path d="M218.479 329.105L215.468 327.864" stroke="white" stroke-width="0.289648" stroke-linecap="round" stroke-linejoin="round"/>
<path d="M201.174 322.655V346.814" stroke="white" stroke-width="0.289648" stroke-linecap="round" stroke-linejoin="round"/>
<path d="M146.035 274.554C146.035 274.554 145.741 282.767 147.201 285.409C148.661 288.052 163.047 295.375 198.237 295.375C233.427 295.375 254.844 288.043 257.486 285.996C260.128 283.949 260.414 283.941 260.414 282.18C260.414 280.418 259.835 272.499 259.835 272.499C259.835 272.499 229.636 279.831 190.906 276.903C152.175 273.975 145.448 271.031 145.448 271.031L146.035 274.554Z" fill="#619937" stroke="#455F32" stroke-width="0.289648" stroke-linecap="round" stroke-linejoin="round"/>
<path d="M213.28 138.499C206.795 140.529 199.497 139.791 192.82 138.055C184.758 135.966 177.041 132.543 168.828 131.143C153.922 128.626 140.257 133.433 128.353 142.174C114.951 152.02 102.155 162.665 90.0341 174.05C87.1652 176.751 84.1201 179.922 84.095 183.873C84.0446 190.333 91.7873 193.814 98.2382 194.166C114.881 195.081 130.434 186.616 144.929 178.354C148.931 206.949 146.858 236.068 138.847 263.808C137.891 267.105 136.918 270.88 138.755 273.774C140.173 275.989 142.849 276.995 145.349 277.792C180.673 289.048 218.593 289.244 254.031 278.354C256.464 277.591 259.065 276.677 260.449 274.496C262.009 272.054 261.464 268.875 260.868 266.048C256.467 245.026 252.06 224.007 247.648 202.991C251.204 208.402 252.681 214.869 254.4 221.119C256.12 227.368 258.242 233.769 262.722 238.45C267.202 243.131 274.659 245.572 280.338 242.476C284.348 240.295 286.713 235.849 287.485 231.345C288.257 226.84 287.67 222.243 287.074 217.721C284.692 199.557 282.295 181.413 279.885 163.288C278.535 153.07 276.689 141.872 268.854 135.169C263.15 130.295 255.357 128.811 247.883 127.93C241.172 127.091 234.067 126.755 228.01 129.742C224.118 131.663 220.964 134.85 217.105 136.897C215.881 137.547 214.601 138.083 213.28 138.499Z" fill="white"/>
<path d="M254.399 221.102C254.609 221.865 254.827 222.637 255.053 223.409H287.719C287.568 221.496 287.324 219.592 287.081 217.705C286.712 214.942 286.349 212.182 285.991 209.425H250.884C252.251 213.256 253.424 217.153 254.399 221.102Z" fill="#619937"/>
<path d="M93.49 170.838H280.917C280.581 168.321 280.246 165.804 279.918 163.246C279.642 161.14 279.34 158.993 278.971 156.854H109.521C104.068 161.378 98.7245 166.039 93.49 170.838Z" fill="#619937"/>
<path d="M138.847 263.792C137.891 267.088 136.918 270.863 138.755 273.757C139.362 274.665 140.168 275.423 141.112 275.972H259.09C259.619 275.549 260.077 275.045 260.449 274.479C262.009 272.038 261.464 268.858 260.868 266.031L260.029 261.997H139.342C139.175 262.592 139.024 263.196 138.847 263.792Z" fill="#619937"/>
<path d="M217.188 136.855C215.941 137.536 214.632 138.097 213.279 138.533C206.795 140.563 199.497 139.825 192.819 138.088C184.758 136 177.04 132.577 168.828 131.176C167.162 130.897 165.481 130.707 163.795 130.606H157.923C147.236 131.31 137.32 135.639 128.403 142.207C127.33 142.996 126.273 143.793 125.216 144.59H275.581C274.305 141.299 272.312 138.333 269.746 135.909C267.181 133.484 264.108 131.661 260.75 130.572H226.483C223.278 132.485 220.485 135.094 217.188 136.855Z" fill="#619937"/>
<path d="M251.933 223.409C250.949 218.745 249.97 214.084 248.997 209.425H146.882C146.826 214.089 146.606 218.75 146.22 223.409H251.933Z" fill="#619937"/>
<path d="M98.2381 194.149C111.618 194.879 124.243 189.536 136.264 183.144H84.1284C84.1157 183.381 84.1157 183.619 84.1284 183.857C84.0446 190.316 91.7873 193.797 98.2381 194.149Z" fill="#619937"/>
<path d="M145.54 183.144C146.085 187.783 146.446 192.447 146.672 197.119H284.372L282.534 183.144H145.54Z" fill="#619937"/>
<path d="M260.498 235.707C261.168 236.671 261.911 237.582 262.721 238.433C267.2 243.114 274.658 245.555 280.337 242.459C282.997 240.932 285.066 238.554 286.209 235.707H260.498Z" fill="#619937"/>
<path d="M144.827 235.707C144.167 240.399 143.328 245.06 142.311 249.69H257.444C256.466 245.026 255.487 240.365 254.508 235.707H144.827Z" fill="#619937"/>
<g opacity="0.7">
<path d="M254.4 221.102C254.61 221.865 254.828 222.637 255.055 223.409H287.72C287.569 221.496 287.326 219.592 287.082 217.705C286.713 214.942 286.35 212.182 285.992 209.425H250.885C252.252 213.256 253.425 217.153 254.4 221.102Z" fill="white"/>
<path d="M93.4902 170.838H280.917C280.581 168.321 280.246 165.804 279.919 163.246C279.642 161.14 279.34 158.993 278.971 156.854H109.521C104.068 161.378 98.7247 166.039 93.4902 170.838Z" fill="white"/>
<path d="M138.847 263.792C137.891 267.088 136.918 270.863 138.755 273.757C139.362 274.665 140.168 275.423 141.112 275.972H259.09C259.619 275.549 260.077 275.045 260.449 274.479C262.009 272.038 261.464 268.858 260.868 266.031L260.029 261.997H139.342C139.175 262.592 139.024 263.196 138.847 263.792Z" fill="white"/>
<path d="M217.189 136.855C215.941 137.536 214.632 138.097 213.279 138.533C206.795 140.563 199.497 139.825 192.82 138.088C184.758 136 177.041 132.577 168.828 131.176C167.162 130.897 165.482 130.707 163.795 130.606H157.923C147.236 131.31 137.321 135.639 128.403 142.207C127.33 142.996 126.273 143.793 125.216 144.59H275.582C274.305 141.299 272.312 138.333 269.747 135.909C267.181 133.484 264.108 131.661 260.751 130.572H226.483C223.279 132.485 220.485 135.094 217.189 136.855Z" fill="white"/>
<path d="M251.934 223.409C250.95 218.745 249.971 214.084 248.998 209.425H146.884C146.828 214.089 146.607 218.75 146.221 223.409H251.934Z" fill="white"/>
<path d="M98.2381 194.149C111.618 194.879 124.243 189.536 136.264 183.144H84.1284C84.1157 183.381 84.1157 183.619 84.1284 183.857C84.0446 190.316 91.7873 193.797 98.2381 194.149Z" fill="white"/>
<path d="M145.542 183.144C146.087 187.783 146.447 192.447 146.674 197.119H284.373L282.536 183.144H145.542Z" fill="white"/>
<path d="M260.499 235.707C261.169 236.671 261.913 237.582 262.722 238.433C267.202 243.114 274.659 245.555 280.338 242.459C282.999 240.932 285.067 238.554 286.21 235.707H260.499Z" fill="white"/>
<path d="M144.828 235.707C144.168 240.399 143.33 245.06 142.312 249.69H257.445C256.467 245.026 255.488 240.365 254.509 235.707H144.828Z" fill="white"/>
</g>
<path d="M144.928 178.337L154.055 169.16L146.505 187.615L144.928 178.337Z" fill="#455F32" stroke="#455F32" stroke-width="0.289648" stroke-linecap="round" stroke-linejoin="round"/>
<path d="M208.773 267.172C205.613 269.038 202.347 270.718 198.992 272.205" stroke="#455F32" stroke-width="0.289648" stroke-miterlimit="10"/>
<path d="M245.893 236.269C245.893 236.269 231.951 252.006 213.865 263.951" stroke="#455F32" stroke-width="0.289648" stroke-miterlimit="10"/>
<path d="M178.667 269.823C177.635 270.226 176.595 270.662 175.546 271.014" stroke="#455F32" stroke-width="0.289648" stroke-miterlimit="10"/>
<path d="M213.228 254.229C213.228 254.229 199.806 261.242 183.079 268.036" stroke="#455F32" stroke-width="0.289648" stroke-miterlimit="10"/>
<path d="M156.286 167.138L161.311 162.533" stroke="#455F32" stroke-width="0.289648" stroke-miterlimit="10"/>
<path d="M185.336 138.642C185.336 138.642 203.573 147.76 222.246 151.082" stroke="#455F32" stroke-width="0.289648" stroke-miterlimit="10"/>
<path d="M215.342 153.221C216.762 153.518 218.227 153.797 219.737 154.06" stroke="#455F32" stroke-width="0.289648" stroke-miterlimit="10"/>
<path d="M193.213 145.672C198.543 148.323 204.138 150.404 209.906 151.879" stroke="#455F32" stroke-width="0.289648" stroke-miterlimit="10"/>
<path d="M213.28 138.499C206.795 140.529 199.497 139.791 192.82 138.055C184.758 135.966 177.041 132.543 168.828 131.143C153.922 128.626 140.257 133.433 128.353 142.174C114.951 152.02 102.155 162.665 90.0341 174.05C87.1652 176.751 84.1201 179.922 84.095 183.873C84.0446 190.333 91.7873 193.814 98.2382 194.166C114.881 195.081 130.434 186.616 144.929 178.354C148.931 206.949 146.858 236.068 138.847 263.808C137.891 267.105 136.918 270.88 138.755 273.774C140.173 275.989 142.849 276.995 145.349 277.792C180.673 289.048 218.593 289.244 254.031 278.354C256.464 277.591 259.065 276.677 260.449 274.496C262.009 272.054 261.464 268.875 260.868 266.048C256.467 245.026 252.06 224.007 247.648 202.991C251.204 208.402 252.681 214.869 254.4 221.119C256.12 227.368 258.242 233.769 262.722 238.45C267.202 243.131 274.659 245.572 280.338 242.476C284.348 240.295 286.713 235.849 287.485 231.345C288.257 226.84 287.67 222.243 287.074 217.721C284.692 199.557 282.295 181.413 279.885 163.288C278.535 153.07 276.689 141.872 268.854 135.169C263.15 130.295 255.357 128.811 247.883 127.93C241.172 127.091 234.067 126.755 228.01 129.742C224.118 131.663 220.964 134.85 217.105 136.897C215.881 137.547 214.601 138.083 213.28 138.499Z" stroke="#455F32" stroke-width="0.289648" stroke-miterlimit="10"/>
<path d="M157.829 120.086L168.315 137.845L154.331 147.349L145.666 125.539L157.829 120.086Z" fill="#619937" stroke="#455F32" stroke-width="0.289648" stroke-linecap="round" stroke-linejoin="round"/>
<path d="M245.374 76.8993L229.771 72.8407C227.73 72.31 225.646 73.5337 225.116 75.5737L214.19 117.579C213.659 119.619 214.883 121.703 216.923 122.233L232.527 126.292C234.567 126.823 236.651 125.599 237.182 123.559L248.107 81.554C248.638 79.5139 247.414 77.4299 245.374 76.8993Z" fill="#619937" stroke="#455F32" stroke-width="0.289648" stroke-linecap="round" stroke-linejoin="round"/>
<path d="M246.816 81.8344C246.712 82.2268 246.493 82.5796 246.189 82.8481C245.884 83.1167 245.507 83.289 245.105 83.3433C244.702 83.3976 244.293 83.3315 243.928 83.1534C243.563 82.9752 243.259 82.6929 243.054 82.3422C242.85 81.9914 242.754 81.5879 242.778 81.1826C242.803 80.7773 242.947 80.3883 243.192 80.0647C243.437 79.7412 243.773 79.4976 244.157 79.3646C244.54 79.2317 244.955 79.2154 245.348 79.3178C245.61 79.3851 245.857 79.5038 246.073 79.6671C246.29 79.8305 246.471 80.0351 246.608 80.2692C246.744 80.5034 246.833 80.7623 246.869 81.031C246.905 81.2996 246.887 81.5727 246.816 81.8344Z" fill="white" stroke="#455F32" stroke-width="0.289648" stroke-linecap="round" stroke-linejoin="round"/>
<path d="M245.549 150.168L239.333 136.042C239.333 136.042 246.682 115.146 245.834 111.715C244.987 108.284 236.263 95.944 235.424 94.8116C234.585 93.6791 230.903 90.8605 229.778 91.9846C228.654 93.1087 230.055 94.8116 231.456 97.0681C232.857 99.3246 236.817 105.541 236.817 106.673C236.817 107.806 237.655 112.889 237.655 112.889C237.655 112.889 230.877 103.846 227.774 102.437C224.67 101.028 220.434 99.6098 217.892 99.6098C215.35 99.6098 217.607 102.437 218.731 102.965C219.855 103.494 225.223 106.077 225.786 106.925C226.348 107.772 234.535 118.828 234.535 118.828C234.535 118.828 226.91 113.459 225.215 112.897C223.521 112.335 213.916 113.736 212.221 113.736C210.527 113.736 212.221 116.253 213.06 116.253C213.899 116.253 223.797 117.092 223.797 117.092L231.699 123.87C231.699 123.87 222.665 120.758 221.532 120.758C220.4 120.758 215.61 122.184 213.614 122.184C211.617 122.184 213.328 124.44 216.969 124.155C219.13 123.986 221.301 123.986 223.462 124.155L229.393 129.524C229.393 129.524 225.718 141.108 227.136 144.774C228.554 148.44 236.733 155.512 236.733 155.512L245.549 150.168Z" fill="white" stroke="#455F32" stroke-width="0.289648" stroke-linecap="round" stroke-linejoin="round"/>
<path d="M249.072 144.732L231.758 154.673L237.815 170.636L257.629 157.625L249.072 144.732Z" fill="#619937" stroke="#455F32" stroke-width="0.289648" stroke-linecap="round" stroke-linejoin="round"/>
<path d="M250.096 228.526C249.869 227.637 249.634 226.748 249.374 225.842C246.547 216.22 242.219 207.202 238.78 197.798C237.102 193.134 235.374 188.454 233.839 183.722C233.168 181.642 231.767 178.79 231.951 176.533C232.278 172.624 233.805 170.938 236.238 167.465C238.67 163.992 257.302 154.639 257.302 154.639C257.302 154.639 262.335 154.371 264.684 157.399C267.032 160.427 288.616 212.764 289.849 219.886C291.082 227.008 286.964 242.703 275.018 247.434C267.234 250.521 259.533 244.271 254.642 238.819C251.916 235.765 251.06 232.25 250.096 228.526Z" fill="white"/>
<path d="M289.858 219.886C289.824 219.69 289.774 219.463 289.707 219.206L253.342 237.107C253.734 237.716 254.172 238.293 254.651 238.836C257.419 241.923 261.093 245.27 265.17 247.023L286.419 236.579C289.556 230.598 290.554 223.87 289.858 219.886Z" fill="#619937"/>
<path d="M267.896 163.959L232.907 181.172C233.243 182.078 233.587 182.951 233.839 183.689C235.021 187.338 236.305 190.953 237.613 194.594L273.483 176.978C271.394 171.945 269.44 167.415 267.896 163.959Z" fill="#619937"/>
<path d="M284.565 204.484C283.004 200.416 281.209 195.894 279.38 191.306L243.226 209.081C245.012 213.46 246.774 217.847 248.259 222.335L284.565 204.484Z" fill="#619937"/>
<g opacity="0.7">
<path d="M289.858 219.886C289.824 219.69 289.774 219.463 289.707 219.206L253.342 237.108C253.734 237.716 254.172 238.293 254.651 238.836C257.419 241.923 261.093 245.27 265.17 247.023L286.419 236.579C289.556 230.598 290.554 223.87 289.858 219.886Z" fill="white"/>
<path d="M267.896 163.959L232.907 181.172C233.243 182.078 233.587 182.951 233.839 183.689C235.021 187.338 236.305 190.953 237.613 194.594L273.483 176.978C271.394 171.945 269.44 167.415 267.896 163.959Z" fill="white"/>
<path d="M284.564 204.484C283.004 200.416 281.209 195.894 279.38 191.306L243.225 209.081C245.012 213.46 246.774 217.847 248.259 222.335L284.564 204.484Z" fill="white"/>
</g>
<path d="M250.096 228.526C249.869 227.637 249.634 226.748 249.374 225.842C246.547 216.22 242.219 207.202 238.78 197.798C237.102 193.134 235.374 188.454 233.839 183.722C233.168 181.642 231.767 178.79 231.951 176.533C232.278 172.624 233.805 170.938 236.238 167.465C238.67 163.992 257.302 154.639 257.302 154.639C257.302 154.639 262.335 154.371 264.684 157.399C267.032 160.427 288.616 212.764 289.849 219.886C291.082 227.008 286.964 242.703 275.018 247.434C267.234 250.521 259.533 244.271 254.642 238.819C251.916 235.765 251.06 232.25 250.096 228.526Z" stroke="#455F32" stroke-width="0.289648" stroke-miterlimit="10"/>
<path d="M111.274 187.053C111.274 187.053 153.779 158.817 155.734 155.461C157.688 152.106 157.411 149.866 157.411 145.672C157.411 141.477 147.622 123.299 147.622 123.299C147.622 123.299 143.713 120.229 140.072 121.345C136.431 122.46 89.1868 152.659 84.1537 157.693C79.1205 162.726 73.5253 177.825 80.513 188.454C87.5007 199.082 107.08 191.532 107.08 191.532" fill="white"/>
<path d="M106.702 141.905C102.508 144.64 98.5232 147.307 95.0503 149.673L115.292 184.368C118.169 182.439 122.33 179.646 126.902 176.525L106.702 141.905Z" fill="#619937"/>
<path d="M82.8617 159.194C79.1407 164.495 77.1751 170.829 77.2414 177.305L86.4185 193.025C91.6614 194.963 98.2297 193.973 102.533 192.908L82.8617 159.194Z" fill="#619937"/>
<path d="M131.465 126.202C128.11 128.265 123.966 130.824 119.595 133.6L139.56 167.809C143.939 164.739 147.991 161.837 150.952 159.588L131.465 126.202Z" fill="#619937"/>
<g opacity="0.7">
<path d="M106.702 141.905C102.508 144.64 98.5232 147.307 95.0503 149.673L115.292 184.368C118.169 182.439 122.33 179.646 126.902 176.525L106.702 141.905Z" fill="white"/>
<path d="M82.8615 159.194C79.1405 164.495 77.1748 170.829 77.2411 177.305L86.4183 193.025C91.6611 194.963 98.2294 193.973 102.533 192.908L82.8615 159.194Z" fill="white"/>
<path d="M131.465 126.202C128.11 128.265 123.966 130.824 119.595 133.6L139.56 167.809C143.939 164.739 147.991 161.837 150.952 159.588L131.465 126.202Z" fill="white"/>
</g>
<path d="M111.274 187.053C111.274 187.053 153.779 158.817 155.734 155.461C157.688 152.106 157.411 149.866 157.411 145.672C157.411 141.477 147.622 123.299 147.622 123.299C147.622 123.299 143.713 120.229 140.072 121.345C136.431 122.46 89.1868 152.659 84.1537 157.693C79.1205 162.726 73.5253 177.825 80.513 188.454C87.5007 199.082 107.08 191.532 107.08 191.532" stroke="#455F32" stroke-width="0.289648" stroke-miterlimit="10"/>
</svg>
